<svg xmlns="http://www.w3.org/2000/svg" width="760" height="520" viewBox="0 0 760 520" font-family="sans-serif"><rect x="0" y="0" width="760" height="520" fill="#ffffff"/><clipPath id="clip6_6"><rect x="72.00" y="40.00" width="668.00" height="424.00"/></clipPath><line x1="254.18" y1="40.00" x2="254.18" y2="464.00" stroke="#dddddd" stroke-width="1"/><line x1="557.82" y1="40.00" x2="557.82" y2="464.00" stroke="#dddddd" stroke-width="1"/><line x1="72.00" y1="405.04" x2="740.00" y2="405.04" stroke="#dddddd" stroke-width="1"/><line x1="72.00" y1="269.44" x2="740.00" y2="269.44" stroke="#dddddd" stroke-width="1"/><line x1="72.00" y1="133.84" x2="740.00" y2="133.84" stroke="#dddddd" stroke-width="1"/><g clip-path="url(#clip6_6)"><line x1="254.18" y1="311.22" x2="254.18" y2="444.73" stroke="#1f77b4" stroke-width="1.2"/><line x1="250.18" y1="311.22" x2="258.18" y2="311.22" stroke="#1f77b4" stroke-width="1.2"/><line x1="250.18" y1="444.73" x2="258.18" y2="444.73" stroke="#1f77b4" stroke-width="1.2"/><circle cx="254.18" cy="377.98" r="2.50" fill="#1f77b4" fill-opacity="1.000"/><line x1="557.82" y1="59.27" x2="557.82" y2="206.94" stroke="#1f77b4" stroke-width="1.2"/><line x1="553.82" y1="59.27" x2="561.82" y2="59.27" stroke="#1f77b4" stroke-width="1.2"/><line x1="553.82" y1="206.94" x2="561.82" y2="206.94" stroke="#1f77b4" stroke-width="1.2"/><circle cx="557.82" cy="133.11" r="2.50" fill="#1f77b4" fill-opacity="1.000"/><polygon points="254.18,317.68 260.18,323.68 254.18,329.68 248.18,323.68" fill="#d62728" fill-opacity="1.000"/><polygon points="557.82,87.16 563.82,93.16 557.82,99.16 551.82,93.16" fill="#d62728" fill-opacity="1.000"/><line x1="72.00" y1="269.44" x2="740.00" y2="269.44" stroke="#7f7f7f" stroke-width="1.2" stroke-dasharray="1.5 3"/></g><line x1="72.00" y1="40.00" x2="740.00" y2="40.00" stroke="#000000" stroke-width="1"/><line x1="72.00" y1="464.00" x2="740.00" y2="464.00" stroke="#000000" stroke-width="1"/><line x1="72.00" y1="40.00" x2="72.00" y2="464.00" stroke="#000000" stroke-width="1"/><line x1="740.00" y1="40.00" x2="740.00" y2="464.00" stroke="#000000" stroke-width="1"/><line x1="254.18" y1="464.00" x2="254.18" y2="469.00" stroke="#000000"/><text x="254.18" y="480.00" font-size="11" text-anchor="middle">0</text><line x1="557.82" y1="464.00" x2="557.82" y2="469.00" stroke="#000000"/><text x="557.82" y="480.00" font-size="11" text-anchor="middle">1</text><line x1="67.00" y1="405.04" x2="72.00" y2="405.04" stroke="#000000"/><text x="64.00" y="409.04" font-size="11" text-anchor="end">-1</text><line x1="67.00" y1="269.44" x2="72.00" y2="269.44" stroke="#000000"/><text x="64.00" y="273.44" font-size="11" text-anchor="end">0</text><line x1="67.00" y1="133.84" x2="72.00" y2="133.84" stroke="#000000"/><text x="64.00" y="137.84" font-size="11" text-anchor="end">1</text><text x="406.00" y="32.00" font-size="15" font-weight="bold" text-anchor="middle">Bayesian mixed GLM (VB): fixed-effect posteriors</text><text x="406.00" y="494.00" font-size="12" text-anchor="middle">fixed effect</text><text x="22.00" y="252.00" font-size="12" text-anchor="middle" transform="rotate(-90 22.00 252.00)">coefficient</text><g class="legend"><rect x="80.00" y="48.00" width="181.50" height="44.00" fill="white" fill-opacity="0.85" stroke="#7f7f7f" stroke-width="1"/><rect class="swatch" x="86.00" y="56.00" width="14.00" height="10" fill="#1f77b4"/><text x="106.00" y="65.00" font-size="11" text-anchor="start">posterior mean +/- 2 sd</text><rect class="swatch" x="86.00" y="72.00" width="14.00" height="10" fill="#d62728"/><text x="106.00" y="81.00" font-size="11" text-anchor="start">true value</text></g></svg>