<svg xmlns="http://www.w3.org/2000/svg" width="760" height="520" viewBox="0 0 760 520" font-family="sans-serif"><rect x="0" y="0" width="760" height="520" fill="#ffffff"/><clipPath id="clip6_6"><rect x="72.00" y="40.00" width="668.00" height="424.00"/></clipPath><line x1="102.36" y1="40.00" x2="102.36" y2="464.00" stroke="#dddddd" stroke-width="1"/><line x1="254.18" y1="40.00" x2="254.18" y2="464.00" stroke="#dddddd" stroke-width="1"/><line x1="406.00" y1="40.00" x2="406.00" y2="464.00" stroke="#dddddd" stroke-width="1"/><line x1="557.82" y1="40.00" x2="557.82" y2="464.00" stroke="#dddddd" stroke-width="1"/><line x1="709.64" y1="40.00" x2="709.64" y2="464.00" stroke="#dddddd" stroke-width="1"/><line x1="72.00" y1="464.00" x2="740.00" y2="464.00" stroke="#dddddd" stroke-width="1"/><line x1="72.00" y1="379.20" x2="740.00" y2="379.20" stroke="#dddddd" stroke-width="1"/><line x1="72.00" y1="294.40" x2="740.00" y2="294.40" stroke="#dddddd" stroke-width="1"/><line x1="72.00" y1="209.60" x2="740.00" y2="209.60" stroke="#dddddd" stroke-width="1"/><line x1="72.00" y1="124.80" x2="740.00" y2="124.80" stroke="#dddddd" stroke-width="1"/><line x1="72.00" y1="40.00" x2="740.00" y2="40.00" stroke="#dddddd" stroke-width="1"/><g clip-path="url(#clip6_6)"><circle cx="102.36" cy="441.12" r="4.00" fill="#1f77b4" fill-opacity="0.850"/><circle cx="112.66" cy="459.01" r="4.00" fill="#1f77b4" fill-opacity="0.850"/><circle cx="122.95" cy="381.83" r="4.00" fill="#1f77b4" fill-opacity="0.850"/><circle cx="133.24" cy="455.46" r="4.00" fill="#1f77b4" fill-opacity="0.850"/><circle cx="143.53" cy="448.66" r="4.00" fill="#1f77b4" fill-opacity="0.850"/><circle cx="153.83" cy="400.61" r="4.00" fill="#1f77b4" fill-opacity="0.850"/><circle cx="164.12" cy="347.43" r="4.00" fill="#1f77b4" fill-opacity="0.850"/><circle cx="174.41" cy="446.24" r="4.00" fill="#1f77b4" fill-opacity="0.850"/><circle cx="184.71" cy="425.62" r="4.00" fill="#1f77b4" fill-opacity="0.850"/><circle cx="195.00" cy="308.20" r="4.00" fill="#1f77b4" fill-opacity="0.850"/><circle cx="205.29" cy="358.05" r="4.00" fill="#1f77b4" fill-opacity="0.850"/><circle cx="215.58" cy="398.30" r="4.00" fill="#1f77b4" fill-opacity="0.850"/><circle cx="225.88" cy="397.46" r="4.00" fill="#1f77b4" fill-opacity="0.850"/><circle cx="236.17" cy="418.90" r="4.00" fill="#1f77b4" fill-opacity="0.850"/><circle cx="246.46" cy="406.58" r="4.00" fill="#1f77b4" fill-opacity="0.850"/><circle cx="256.76" cy="359.72" r="4.00" fill="#1f77b4" fill-opacity="0.850"/><circle cx="267.05" cy="388.43" r="4.00" fill="#1f77b4" fill-opacity="0.850"/><circle cx="277.34" cy="410.34" r="4.00" fill="#1f77b4" fill-opacity="0.850"/><circle cx="287.63" cy="416.14" r="4.00" fill="#1f77b4" fill-opacity="0.850"/><circle cx="297.93" cy="408.83" r="4.00" fill="#1f77b4" fill-opacity="0.850"/><circle cx="308.22" cy="404.94" r="4.00" fill="#1f77b4" fill-opacity="0.850"/><circle cx="318.51" cy="341.38" r="4.00" fill="#1f77b4" fill-opacity="0.850"/><circle cx="328.80" cy="390.81" r="4.00" fill="#1f77b4" fill-opacity="0.850"/><circle cx="339.10" cy="292.67" r="4.00" fill="#1f77b4" fill-opacity="0.850"/><circle cx="349.39" cy="310.04" r="4.00" fill="#1f77b4" fill-opacity="0.850"/><circle cx="359.68" cy="251.54" r="4.00" fill="#1f77b4" fill-opacity="0.850"/><circle cx="369.98" cy="262.90" r="4.00" fill="#1f77b4" fill-opacity="0.850"/><circle cx="380.27" cy="352.93" r="4.00" fill="#1f77b4" fill-opacity="0.850"/><circle cx="390.56" cy="332.84" r="4.00" fill="#1f77b4" fill-opacity="0.850"/><circle cx="400.85" cy="326.89" r="4.00" fill="#1f77b4" fill-opacity="0.850"/><circle cx="411.15" cy="288.45" r="4.00" fill="#1f77b4" fill-opacity="0.850"/><circle cx="421.44" cy="306.04" r="4.00" fill="#1f77b4" fill-opacity="0.850"/><circle cx="431.73" cy="307.46" r="4.00" fill="#1f77b4" fill-opacity="0.850"/><circle cx="442.02" cy="228.69" r="4.00" fill="#1f77b4" fill-opacity="0.850"/><circle cx="452.32" cy="272.68" r="4.00" fill="#1f77b4" fill-opacity="0.850"/><circle cx="462.61" cy="337.08" r="4.00" fill="#1f77b4" fill-opacity="0.850"/><circle cx="472.90" cy="245.52" r="4.00" fill="#1f77b4" fill-opacity="0.850"/><circle cx="483.20" cy="160.80" r="4.00" fill="#1f77b4" fill-opacity="0.850"/><circle cx="493.49" cy="213.44" r="4.00" fill="#1f77b4" fill-opacity="0.850"/><circle cx="503.78" cy="158.05" r="4.00" fill="#1f77b4" fill-opacity="0.850"/><circle cx="514.07" cy="164.30" r="4.00" fill="#1f77b4" fill-opacity="0.850"/><circle cx="524.37" cy="180.65" r="4.00" fill="#1f77b4" fill-opacity="0.850"/><circle cx="534.66" cy="162.83" r="4.00" fill="#1f77b4" fill-opacity="0.850"/><circle cx="544.95" cy="159.96" r="4.00" fill="#1f77b4" fill-opacity="0.850"/><circle cx="555.24" cy="125.31" r="4.00" fill="#1f77b4" fill-opacity="0.850"/><circle cx="565.54" cy="169.98" r="4.00" fill="#1f77b4" fill-opacity="0.850"/><circle cx="575.83" cy="224.03" r="4.00" fill="#1f77b4" fill-opacity="0.850"/><circle cx="586.12" cy="148.33" r="4.00" fill="#1f77b4" fill-opacity="0.850"/><circle cx="596.42" cy="106.32" r="4.00" fill="#1f77b4" fill-opacity="0.850"/><circle cx="606.71" cy="132.79" r="4.00" fill="#1f77b4" fill-opacity="0.850"/><circle cx="617.00" cy="276.00" r="4.00" fill="#1f77b4" fill-opacity="0.850"/><circle cx="627.29" cy="136.67" r="4.00" fill="#1f77b4" fill-opacity="0.850"/><circle cx="637.59" cy="66.59" r="4.00" fill="#1f77b4" fill-opacity="0.850"/><circle cx="647.88" cy="89.25" r="4.00" fill="#1f77b4" fill-opacity="0.850"/><circle cx="658.17" cy="70.02" r="4.00" fill="#1f77b4" fill-opacity="0.850"/><circle cx="668.47" cy="68.02" r="4.00" fill="#1f77b4" fill-opacity="0.850"/><circle cx="678.76" cy="79.55" r="4.00" fill="#1f77b4" fill-opacity="0.850"/><circle cx="689.05" cy="158.07" r="4.00" fill="#1f77b4" fill-opacity="0.850"/><circle cx="699.34" cy="61.80" r="4.00" fill="#1f77b4" fill-opacity="0.850"/><circle cx="709.64" cy="48.64" r="4.00" fill="#1f77b4" fill-opacity="0.850"/><polyline fill="none" stroke="#d62728" stroke-width="2.5" stroke-opacity="1.000" points="102.36,437.30 105.42,436.69 108.47,436.07 111.52,435.44 114.57,434.79 117.62,434.13 120.67,433.45 123.72,432.76 126.78,432.06 129.83,431.34 132.88,430.61 135.93,429.86 138.98,429.10 142.03,428.32 145.09,427.53 148.14,426.72 151.19,425.89 154.24,425.05 157.29,424.19 160.34,423.31 163.40,422.42 166.45,421.51 169.50,420.58 172.55,419.63 175.60,418.66 178.65,417.68 181.71,416.68 184.76,415.66 187.81,414.62 190.86,413.56 193.91,412.48 196.96,411.38 200.02,410.26 203.07,409.12 206.12,407.96 209.17,406.78 212.22,405.58 215.27,404.36 218.33,403.11 221.38,401.85 224.43,400.56 227.48,399.25 230.53,397.92 233.58,396.57 236.63,395.19 239.69,393.79 242.74,392.37 245.79,390.93 248.84,389.46 251.89,387.97 254.94,386.46 258.00,384.92 261.05,383.36 264.10,381.78 267.15,380.17 270.20,378.54 273.25,376.89 276.31,375.21 279.36,373.51 282.41,371.79 285.46,370.04 288.51,368.27 291.56,366.47 294.62,364.66 297.67,362.81 300.72,360.95 303.77,359.06 306.82,357.15 309.87,355.21 312.93,353.26 315.98,351.28 319.03,349.27 322.08,347.25 325.13,345.20 328.18,343.13 331.24,341.04 334.29,338.93 337.34,336.80 340.39,334.65 343.44,332.48 346.49,330.28 349.54,328.07 352.60,325.84 355.65,323.59 358.70,321.32 361.75,319.03 364.80,316.73 367.85,314.41 370.91,312.07 373.96,309.72 377.01,307.35 380.06,304.96 383.11,302.56 386.16,300.15 389.22,297.73 392.27,295.29 395.32,292.84 398.37,290.38 401.42,287.91 404.47,285.42 407.53,282.93 410.58,280.43 413.63,277.92 416.68,275.41 419.73,272.88 422.78,270.35 425.84,267.82 428.89,265.28 431.94,262.74 434.99,260.19 438.04,257.65 441.09,255.10 444.15,252.55 447.20,250.00 450.25,247.45 453.30,244.90 456.35,242.35 459.40,239.81 462.46,237.27 465.51,234.73 468.56,232.20 471.61,229.68 474.66,227.16 477.71,224.65 480.76,222.14 483.82,219.65 486.87,217.16 489.92,214.68 492.97,212.22 496.02,209.76 499.07,207.32 502.13,204.89 505.18,202.47 508.23,200.06 511.28,197.67 514.33,195.30 517.38,192.94 520.44,190.59 523.49,188.27 526.54,185.95 529.59,183.66 532.64,181.38 535.69,179.12 538.75,176.89 541.80,174.66 544.85,172.46 547.90,170.28 550.95,168.12 554.00,165.98 557.06,163.86 560.11,161.76 563.16,159.68 566.21,157.63 569.26,155.59 572.31,153.58 575.37,151.59 578.42,149.62 581.47,147.68 584.52,145.76 587.57,143.86 590.62,141.98 593.67,140.13 596.73,138.30 599.78,136.50 602.83,134.72 605.88,132.96 608.93,131.22 611.98,129.51 615.04,127.83 618.09,126.16 621.14,124.52 624.19,122.91 627.24,121.31 630.29,119.74 633.35,118.20 636.40,116.67 639.45,115.17 642.50,113.70 645.55,112.24 648.60,110.81 651.66,109.41 654.71,108.02 657.76,106.66 660.81,105.32 663.86,104.00 666.91,102.70 669.97,101.43 673.02,100.17 676.07,98.94 679.12,97.73 682.17,96.54 685.22,95.37 688.28,94.23 691.33,93.10 694.38,91.99 697.43,90.90 700.48,89.83 703.53,88.79 706.58,87.76 709.64,86.75"/></g><line x1="72.00" y1="40.00" x2="740.00" y2="40.00" stroke="#000000" stroke-width="1"/><line x1="72.00" y1="464.00" x2="740.00" y2="464.00" stroke="#000000" stroke-width="1"/><line x1="72.00" y1="40.00" x2="72.00" y2="464.00" stroke="#000000" stroke-width="1"/><line x1="740.00" y1="40.00" x2="740.00" y2="464.00" stroke="#000000" stroke-width="1"/><line x1="102.36" y1="464.00" x2="102.36" y2="469.00" stroke="#000000"/><text x="102.36" y="480.00" font-size="11" text-anchor="middle">-2</text><line x1="254.18" y1="464.00" x2="254.18" y2="469.00" stroke="#000000"/><text x="254.18" y="480.00" font-size="11" text-anchor="middle">-1</text><line x1="406.00" y1="464.00" x2="406.00" y2="469.00" stroke="#000000"/><text x="406.00" y="480.00" font-size="11" text-anchor="middle">0</text><line x1="557.82" y1="464.00" x2="557.82" y2="469.00" stroke="#000000"/><text x="557.82" y="480.00" font-size="11" text-anchor="middle">1</text><line x1="709.64" y1="464.00" x2="709.64" y2="469.00" stroke="#000000"/><text x="709.64" y="480.00" font-size="11" text-anchor="middle">2</text><line x1="67.00" y1="464.00" x2="72.00" y2="464.00" stroke="#000000"/><text x="64.00" y="468.00" font-size="11" text-anchor="end">0</text><line x1="67.00" y1="379.20" x2="72.00" y2="379.20" stroke="#000000"/><text x="64.00" y="383.20" font-size="11" text-anchor="end">0.2</text><line x1="67.00" y1="294.40" x2="72.00" y2="294.40" stroke="#000000"/><text x="64.00" y="298.40" font-size="11" text-anchor="end">0.4</text><line x1="67.00" y1="209.60" x2="72.00" y2="209.60" stroke="#000000"/><text x="64.00" y="213.60" font-size="11" text-anchor="end">0.6</text><line x1="67.00" y1="124.80" x2="72.00" y2="124.80" stroke="#000000"/><text x="64.00" y="128.80" font-size="11" text-anchor="end">0.8</text><line x1="67.00" y1="40.00" x2="72.00" y2="40.00" stroke="#000000"/><text x="64.00" y="44.00" font-size="11" text-anchor="end">1</text><text x="406.00" y="32.00" font-size="15" font-weight="bold" text-anchor="middle">Beta regression: mean of y in (0, 1) vs x</text><text x="406.00" y="494.00" font-size="12" text-anchor="middle">x</text><text x="22.00" y="252.00" font-size="12" text-anchor="middle" transform="rotate(-90 22.00 252.00)">y</text><g class="legend"><rect x="80.00" y="48.00" width="103.50" height="44.00" fill="white" fill-opacity="0.85" stroke="#7f7f7f" stroke-width="1"/><rect class="swatch" x="86.00" y="56.00" width="14.00" height="10" fill="#1f77b4"/><text x="106.00" y="65.00" font-size="11" text-anchor="start">observed</text><rect class="swatch" x="86.00" y="72.00" width="14.00" height="10" fill="#d62728"/><text x="106.00" y="81.00" font-size="11" text-anchor="start">fitted mean</text></g></svg>