<svg xmlns="http://www.w3.org/2000/svg" width="960" height="560" viewBox="0 0 960 560" font-family="sans-serif"><rect x="0" y="0" width="960" height="560" fill="#ffffff"/><clipPath id="clip6_6"><rect x="72.00" y="40.00" width="868.00" height="464.00"/></clipPath><line x1="111.45" y1="40.00" x2="111.45" y2="504.00" stroke="#dddddd" stroke-width="1"/><line x1="395.30" y1="40.00" x2="395.30" y2="504.00" stroke="#dddddd" stroke-width="1"/><line x1="679.15" y1="40.00" x2="679.15" y2="504.00" stroke="#dddddd" stroke-width="1"/><line x1="72.00" y1="480.11" x2="940.00" y2="480.11" stroke="#dddddd" stroke-width="1"/><line x1="72.00" y1="340.11" x2="940.00" y2="340.11" stroke="#dddddd" stroke-width="1"/><line x1="72.00" y1="200.10" x2="940.00" y2="200.10" stroke="#dddddd" stroke-width="1"/><line x1="72.00" y1="60.10" x2="940.00" y2="60.10" stroke="#dddddd" stroke-width="1"/><g clip-path="url(#clip6_6)"><path d="M 787.01,320.17 792.68,259.30 798.36,247.39 804.04,262.66 809.71,290.63 815.39,366.74 821.07,381.53 826.75,332.92 832.42,273.13 838.10,254.53 843.78,266.58 849.45,298.19 855.13,358.50 860.81,379.52 866.48,338.97 872.16,282.26 877.84,257.64 883.51,266.32 889.19,297.68 894.87,348.47 900.55,371.51 900.55,170.83 894.87,147.80 889.19,97.88 883.51,67.78 877.84,61.09 872.16,85.84 866.48,148.11 860.81,198.78 855.13,177.82 849.45,118.39 843.78,87.61 838.10,77.46 832.42,96.66 826.75,162.93 821.07,235.91 815.39,221.22 809.71,145.80 804.04,118.15 798.36,103.91 792.68,116.91 787.01,183.21 Z" fill="#ff7f0e" fill-opacity="0.180" stroke="none"/><polyline fill="none" stroke="#1f77b4" stroke-width="1.6" stroke-opacity="0.900" points="111.45,345.71 117.13,331.71 122.81,326.11 128.49,314.91 134.16,396.11 139.84,463.31 145.52,466.11 151.19,362.51 156.87,359.71 162.55,351.31 168.22,348.51 173.90,362.51 179.58,474.51 185.25,438.11 190.93,281.30 196.61,286.90 202.29,250.50 207.96,337.31 213.64,348.51 219.32,443.71 224.99,482.91 230.67,326.11 236.35,314.91 242.02,300.91 247.70,298.11 253.38,314.91 259.05,421.31 264.73,482.91 270.41,323.31 276.09,278.50 281.76,270.10 287.44,272.90 293.12,323.31 298.79,435.31 304.47,435.31 310.15,295.31 315.82,247.70 321.50,261.70 327.18,270.10 332.85,300.91 338.53,398.91 344.21,457.71 349.88,281.30 355.56,309.31 361.24,298.11 366.92,309.31 372.59,295.31 378.27,415.71 383.95,410.11 389.62,284.10 395.30,267.30 400.98,186.10 406.65,233.70 412.33,239.30 418.01,326.11 423.68,362.51 429.36,278.50 435.04,270.10 440.72,247.70 446.39,264.50 452.07,309.31 457.75,365.31 463.42,432.51 469.10,312.11 474.78,256.10 480.45,261.70 486.13,281.30 491.81,289.71 497.48,328.91 503.16,356.91 508.84,258.90 514.52,219.70 520.19,155.30 525.87,174.90 531.55,258.90 537.22,373.71 542.90,382.11 548.58,236.50 554.25,208.50 559.93,228.10 565.61,214.10 571.28,267.30 576.96,351.31 582.64,359.71 588.32,230.90 593.99,186.10 599.67,188.90 605.35,216.90 611.02,236.50 616.70,334.51 622.38,354.11 628.05,202.90 633.73,191.70 639.41,208.50 645.08,205.70 650.76,247.70 656.44,373.71 662.12,393.31 667.79,214.10 673.47,197.30 679.15,186.10 684.82,225.30 690.50,250.50 696.18,303.71 701.85,326.11 707.53,197.30 713.21,197.30 718.88,174.90 724.56,177.70 730.24,191.70 735.91,320.51 741.59,390.51 747.27,258.90 752.95,197.30 758.62,188.90 764.30,211.30 769.98,225.30 775.65,331.71 781.33,328.91"/><polyline fill="none" stroke="#2ca02c" stroke-width="1.3" stroke-opacity="0.900" points="151.19,358.65 156.87,314.62 162.55,319.37 168.22,312.61 173.90,368.91 179.58,421.96 185.25,445.49 190.93,352.76 196.61,309.25 202.29,332.11 207.96,314.84 213.64,373.94 219.32,435.80 224.99,427.10 230.67,328.08 236.35,263.24 242.02,270.59 247.70,311.58 253.38,330.69 259.05,408.88 264.73,448.26 270.41,354.31 276.09,284.34 281.76,287.34 287.44,284.38 293.12,306.79 298.79,403.12 304.47,452.45 310.15,334.01 315.82,261.41 321.50,261.28 327.18,272.83 332.85,316.80 338.53,402.76 344.21,417.63 349.88,327.83 355.56,233.40 361.24,276.40 366.92,266.21 372.59,297.89 378.27,367.19 383.95,422.27 389.62,297.83 395.30,273.69 400.98,284.55 406.65,261.86 412.33,299.91 418.01,374.74 423.68,390.17 429.36,314.67 435.04,259.75 440.72,225.58 446.39,239.78 452.07,258.90 457.75,328.82 463.42,351.07 469.10,309.72 474.78,248.84 480.45,236.69 486.13,256.69 491.81,291.04 497.48,339.97 503.16,383.20 508.84,308.42 514.52,239.21 520.19,248.89 525.87,247.52 531.55,276.99 537.22,334.16 542.90,364.34 548.58,286.72 554.25,206.53 559.93,178.83 565.61,199.19 571.28,253.72 576.96,352.30 582.64,361.29 588.32,258.20 593.99,200.88 599.67,214.81 605.35,215.29 611.02,265.31 616.70,327.76 622.38,350.23 628.05,256.27 633.73,176.65 639.41,200.54 645.08,218.11 650.76,237.40 656.44,321.48 662.12,348.85 667.79,238.19 673.47,171.71 679.15,201.97 684.82,194.91 690.50,248.28 696.18,338.58 701.85,347.55 707.53,237.80 713.21,178.81 718.88,195.70 724.56,210.18 730.24,237.54 735.91,285.65 741.59,323.57 747.27,244.61 752.95,185.51 758.62,172.37 764.30,172.39 769.98,198.57 775.65,291.80 781.33,354.98" stroke-dasharray="1.5 3"/><polyline fill="none" stroke="#d62728" stroke-width="2" stroke-opacity="1.000" points="781.33,328.91 787.01,251.69 792.68,188.10 798.36,175.65 804.04,190.40 809.71,218.22 815.39,293.98 821.07,308.72 826.75,247.92 832.42,184.89 838.10,165.99 843.78,177.09 849.45,208.29 855.13,268.16 860.81,289.15 866.48,243.54 872.16,184.05 877.84,159.37 883.51,167.05 889.19,197.78 894.87,248.14 900.55,271.17" stroke-dasharray="6 4"/><circle cx="787.01" cy="188.90" r="3.50" fill="#d62728" fill-opacity="0.950"/><circle cx="792.68" cy="174.90" r="3.50" fill="#d62728" fill-opacity="0.950"/><circle cx="798.36" cy="158.10" r="3.50" fill="#d62728" fill-opacity="0.950"/><circle cx="804.04" cy="149.70" r="3.50" fill="#d62728" fill-opacity="0.950"/><circle cx="809.71" cy="174.90" r="3.50" fill="#d62728" fill-opacity="0.950"/><circle cx="815.39" cy="272.90" r="3.50" fill="#d62728" fill-opacity="0.950"/><circle cx="821.07" cy="309.31" r="3.50" fill="#d62728" fill-opacity="0.950"/><circle cx="826.75" cy="233.70" r="3.50" fill="#d62728" fill-opacity="0.950"/><circle cx="832.42" cy="172.10" r="3.50" fill="#d62728" fill-opacity="0.950"/><circle cx="838.10" cy="138.50" r="3.50" fill="#d62728" fill-opacity="0.950"/><circle cx="843.78" cy="169.30" r="3.50" fill="#d62728" fill-opacity="0.950"/><circle cx="849.45" cy="247.70" r="3.50" fill="#d62728" fill-opacity="0.950"/><circle cx="855.13" cy="309.31" r="3.50" fill="#d62728" fill-opacity="0.950"/><circle cx="860.81" cy="320.51" r="3.50" fill="#d62728" fill-opacity="0.950"/><circle cx="866.48" cy="146.90" r="3.50" fill="#d62728" fill-opacity="0.950"/><circle cx="872.16" cy="160.90" r="3.50" fill="#d62728" fill-opacity="0.950"/><circle cx="877.84" cy="186.10" r="3.50" fill="#d62728" fill-opacity="0.950"/><circle cx="883.51" cy="169.30" r="3.50" fill="#d62728" fill-opacity="0.950"/><circle cx="889.19" cy="144.10" r="3.50" fill="#d62728" fill-opacity="0.950"/><circle cx="894.87" cy="239.30" r="3.50" fill="#d62728" fill-opacity="0.950"/><circle cx="900.55" cy="342.91" r="3.50" fill="#d62728" fill-opacity="0.950"/><line x1="781.33" y1="40.00" x2="781.33" y2="504.00" stroke="#7f7f7f" stroke-width="1.2" stroke-dasharray="1.5 3"/></g><line x1="72.00" y1="40.00" x2="940.00" y2="40.00" stroke="#000000" stroke-width="1"/><line x1="72.00" y1="504.00" x2="940.00" y2="504.00" stroke="#000000" stroke-width="1"/><line x1="72.00" y1="40.00" x2="72.00" y2="504.00" stroke="#000000" stroke-width="1"/><line x1="940.00" y1="40.00" x2="940.00" y2="504.00" stroke="#000000" stroke-width="1"/><line x1="111.45" y1="504.00" x2="111.45" y2="509.00" stroke="#000000"/><text x="111.45" y="520.00" font-size="11" text-anchor="middle">0</text><line x1="395.30" y1="504.00" x2="395.30" y2="509.00" stroke="#000000"/><text x="395.30" y="520.00" font-size="11" text-anchor="middle">50</text><line x1="679.15" y1="504.00" x2="679.15" y2="509.00" stroke="#000000"/><text x="679.15" y="520.00" font-size="11" text-anchor="middle">100</text><line x1="67.00" y1="480.11" x2="72.00" y2="480.11" stroke="#000000"/><text x="64.00" y="484.11" font-size="11" text-anchor="end">150</text><line x1="67.00" y1="340.11" x2="72.00" y2="340.11" stroke="#000000"/><text x="64.00" y="344.11" font-size="11" text-anchor="end">200</text><line x1="67.00" y1="200.10" x2="72.00" y2="200.10" stroke="#000000"/><text x="64.00" y="204.10" font-size="11" text-anchor="end">250</text><line x1="67.00" y1="60.10" x2="72.00" y2="60.10" stroke="#000000"/><text x="64.00" y="64.10" font-size="11" text-anchor="end">300</text><text x="506.00" y="32.00" font-size="15" font-weight="bold" text-anchor="middle">Daily demand forecast: 20-week history, 3-week backtest</text><text x="506.00" y="534.00" font-size="12" text-anchor="middle">day</text><text x="22.00" y="272.00" font-size="12" text-anchor="middle" transform="rotate(-90 22.00 272.00)">orders / day</text><g class="legend"><rect x="80.00" y="48.00" width="155.50" height="92.00" fill="white" fill-opacity="0.85" stroke="#7f7f7f" stroke-width="1"/><rect class="swatch" x="86.00" y="56.00" width="14.00" height="10" fill="#ff7f0e"/><text x="106.00" y="65.00" font-size="11" text-anchor="start">95% prediction band</text><rect class="swatch" x="86.00" y="72.00" width="14.00" height="10" fill="#1f77b4"/><text x="106.00" y="81.00" font-size="11" text-anchor="start">observed (train)</text><rect class="swatch" x="86.00" y="88.00" width="14.00" height="10" fill="#2ca02c"/><text x="106.00" y="97.00" font-size="11" text-anchor="start">in-sample fit</text><rect class="swatch" x="86.00" y="104.00" width="14.00" height="10" fill="#d62728"/><text x="106.00" y="113.00" font-size="11" text-anchor="start">forecast</text><rect class="swatch" x="86.00" y="120.00" width="14.00" height="10" fill="#d62728"/><text x="106.00" y="129.00" font-size="11" text-anchor="start">held-out actual</text></g></svg>