<svg xmlns="http://www.w3.org/2000/svg" width="760" height="520" viewBox="0 0 760 520" font-family="sans-serif"><rect x="0" y="0" width="760" height="520" fill="#ffffff"/><clipPath id="clip6_6"><rect x="72.00" y="40.00" width="668.00" height="424.00"/></clipPath><rect x="309.94" y="40.00" width="189.29" height="424.00" fill="#1f77b4" fill-opacity="0.080"/><line x1="149.63" y1="40.00" x2="149.63" y2="464.00" stroke="#dddddd" stroke-width="1"/><line x1="287.64" y1="40.00" x2="287.64" y2="464.00" stroke="#dddddd" stroke-width="1"/><line x1="425.66" y1="40.00" x2="425.66" y2="464.00" stroke="#dddddd" stroke-width="1"/><line x1="563.68" y1="40.00" x2="563.68" y2="464.00" stroke="#dddddd" stroke-width="1"/><line x1="701.69" y1="40.00" x2="701.69" y2="464.00" stroke="#dddddd" stroke-width="1"/><line x1="72.00" y1="464.00" x2="740.00" y2="464.00" stroke="#dddddd" stroke-width="1"/><line x1="72.00" y1="287.33" x2="740.00" y2="287.33" stroke="#dddddd" stroke-width="1"/><line x1="72.00" y1="110.67" x2="740.00" y2="110.67" stroke="#dddddd" stroke-width="1"/><g clip-path="url(#clip6_6)"><polyline fill="none" stroke="#1f77b4" stroke-width="2.5" stroke-opacity="1.000" points="102.36,-751.47 105.12,-729.72 107.88,-708.24 110.64,-687.02 113.40,-666.05 116.17,-645.33 118.93,-624.86 121.69,-604.63 124.45,-584.63 127.21,-564.87 129.97,-545.33 132.73,-526.02 135.49,-506.93 138.25,-488.06 141.01,-469.40 143.77,-450.96 146.53,-432.72 149.29,-414.69 152.05,-396.86 154.81,-379.23 157.57,-361.79 160.33,-344.55 163.09,-327.51 165.85,-310.65 168.61,-293.98 171.37,-277.50 174.13,-261.20 176.89,-245.08 179.65,-229.14 182.41,-213.38 185.17,-197.80 187.93,-182.39 190.69,-167.16 193.45,-152.10 196.21,-137.21 198.98,-122.50 201.74,-107.95 204.50,-93.57 207.26,-79.36 210.02,-65.32 212.78,-51.45 215.54,-37.74 218.30,-24.20 221.06,-10.82 223.82,2.39 226.58,15.43 229.34,28.31 232.10,41.02 234.86,53.56 237.62,65.94 240.38,78.16 243.14,90.20 245.90,102.08 248.66,113.79 251.42,125.33 254.18,136.70 256.94,147.90 259.70,158.93 262.46,169.79 265.22,180.47 267.98,190.98 270.74,201.31 273.50,211.46 276.26,221.44 279.02,231.24 281.79,240.86 284.55,250.29 287.31,259.54 290.07,268.61 292.83,277.48 295.59,286.17 298.35,294.68 301.11,302.99 303.87,311.10 306.63,319.03 309.39,326.76 312.15,334.29 314.91,341.62 317.67,348.75 320.43,355.68 323.19,362.41 325.95,368.94 328.71,375.26 331.47,381.37 334.23,387.27 336.99,392.97 339.75,398.45 342.51,403.72 345.27,408.78 348.03,413.62 350.79,418.25 353.55,422.66 356.31,426.86 359.07,430.83 361.83,434.59 364.60,438.12 367.36,441.43 370.12,444.52 372.88,447.38 375.64,450.02 378.40,452.44 381.16,454.63 383.92,456.59 386.68,458.32 389.44,459.82 392.20,461.10 394.96,462.14 397.72,462.95 400.48,463.53 403.24,463.88 406.00,464.00 408.76,463.88 411.52,463.53 414.28,462.95 417.04,462.13 419.80,461.07 422.56,459.78 425.32,458.25 428.08,456.49 430.84,454.49 433.60,452.25 436.36,449.77 439.12,447.06 441.88,444.11 444.64,440.91 447.40,437.48 450.17,433.81 452.93,429.90 455.69,425.75 458.45,421.36 461.21,416.73 463.97,411.86 466.73,406.74 469.49,401.39 472.25,395.79 475.01,389.95 477.77,383.87 480.53,377.54 483.29,370.97 486.05,364.16 488.81,357.11 491.57,349.81 494.33,342.26 497.09,334.47 499.85,326.44 502.61,318.15 505.37,309.63 508.13,300.85 510.89,291.83 513.65,282.55 516.41,273.03 519.17,263.26 521.93,253.23 524.69,242.96 527.45,232.43 530.21,221.64 532.98,210.61 535.74,199.31 538.50,187.76 541.26,175.95 544.02,163.87 546.78,151.54 549.54,138.94 552.30,126.07 555.06,112.94 557.82,99.54 560.58,85.87 563.34,71.92 566.10,57.69 568.86,43.19 571.62,28.41 574.38,13.34 577.14,-2.02 579.90,-17.67 582.66,-33.60 585.42,-49.84 588.18,-66.38 590.94,-83.22 593.70,-100.37 596.46,-117.83 599.22,-135.61 601.98,-153.72 604.74,-172.14 607.50,-190.90 610.26,-210.00 613.02,-229.44 615.79,-249.22 618.55,-269.36 621.31,-289.87 624.07,-310.73 626.83,-331.98 629.59,-353.60 632.35,-375.62 635.11,-398.03 637.87,-420.85 640.63,-444.08 643.39,-467.74 646.15,-491.83 648.91,-516.37 651.67,-541.36 654.43,-566.82 657.19,-592.76 659.95,-619.19 662.71,-646.12 665.47,-673.57 668.23,-701.55 670.99,-730.08 673.75,-759.18 676.51,-788.85 679.27,-819.12 682.03,-850.01 684.79,-881.54 687.55,-913.72 690.31,-946.58 693.07,-980.15 695.83,-1014.45 698.60,-1049.50 701.36,-1085.33 704.12,-1121.97 706.88,-1159.46 709.64,-1197.82"/><circle cx="309.94" cy="328.27" r="5.00" fill="#d62728" fill-opacity="1.000"/><circle cx="499.23" cy="328.27" r="5.00" fill="#d62728" fill-opacity="1.000"/><polygon points="406.00,458.00 412.00,464.00 406.00,470.00 400.00,464.00" fill="#2ca02c" fill-opacity="1.000"/><line x1="72.00" y1="328.27" x2="740.00" y2="328.27" stroke="#d62728" stroke-width="1.2" stroke-dasharray="6 4"/><text x="102.36" y="322.97" font-size="11" fill="#d62728" text-anchor="middle">chi2(1) 95% = 3.841</text></g><line x1="72.00" y1="40.00" x2="740.00" y2="40.00" stroke="#000000" stroke-width="1"/><line x1="72.00" y1="464.00" x2="740.00" y2="464.00" stroke="#000000" stroke-width="1"/><line x1="72.00" y1="40.00" x2="72.00" y2="464.00" stroke="#000000" stroke-width="1"/><line x1="740.00" y1="40.00" x2="740.00" y2="464.00" stroke="#000000" stroke-width="1"/><line x1="149.63" y1="464.00" x2="149.63" y2="469.00" stroke="#000000"/><text x="149.63" y="480.00" font-size="11" text-anchor="middle">3</text><line x1="287.64" y1="464.00" x2="287.64" y2="469.00" stroke="#000000"/><text x="287.64" y="480.00" font-size="11" text-anchor="middle">4</text><line x1="425.66" y1="464.00" x2="425.66" y2="469.00" stroke="#000000"/><text x="425.66" y="480.00" font-size="11" text-anchor="middle">5</text><line x1="563.68" y1="464.00" x2="563.68" y2="469.00" stroke="#000000"/><text x="563.68" y="480.00" font-size="11" text-anchor="middle">6</text><line x1="701.69" y1="464.00" x2="701.69" y2="469.00" stroke="#000000"/><text x="701.69" y="480.00" font-size="11" text-anchor="middle">7</text><line x1="67.00" y1="464.00" x2="72.00" y2="464.00" stroke="#000000"/><text x="64.00" y="468.00" font-size="11" text-anchor="end">0</text><line x1="67.00" y1="287.33" x2="72.00" y2="287.33" stroke="#000000"/><text x="64.00" y="291.33" font-size="11" text-anchor="end">5</text><line x1="67.00" y1="110.67" x2="72.00" y2="110.67" stroke="#000000"/><text x="64.00" y="114.67" font-size="11" text-anchor="end">10</text><text x="406.00" y="32.00" font-size="15" font-weight="bold" text-anchor="middle">Empirical-likelihood ratio profile for the mean</text><text x="406.00" y="494.00" font-size="12" text-anchor="middle">hypothesized mean  mu</text><text x="22.00" y="252.00" font-size="12" text-anchor="middle" transform="rotate(-90 22.00 252.00)">-2 log ELR</text><g class="legend"><rect x="576.50" y="48.00" width="155.50" height="60.00" fill="white" fill-opacity="0.85" stroke="#7f7f7f" stroke-width="1"/><rect class="swatch" x="582.50" y="56.00" width="14.00" height="10" fill="#1f77b4"/><text x="602.50" y="65.00" font-size="11" text-anchor="start">-2 log ELR(mu)</text><rect class="swatch" x="582.50" y="72.00" width="14.00" height="10" fill="#d62728"/><text x="602.50" y="81.00" font-size="11" text-anchor="start">95% EL CI endpoints</text><rect class="swatch" x="582.50" y="88.00" width="14.00" height="10" fill="#2ca02c"/><text x="602.50" y="97.00" font-size="11" text-anchor="start">sample mean</text></g></svg>