<svg xmlns="http://www.w3.org/2000/svg" width="720" height="560" viewBox="0 0 720 560" font-family="sans-serif"><rect x="0" y="0" width="720" height="560" fill="#ffffff"/><clipPath id="clip6_6"><rect x="72.00" y="40.00" width="628.00" height="464.00"/></clipPath><line x1="218.97" y1="40.00" x2="218.97" y2="504.00" stroke="#dddddd" stroke-width="1"/><line x1="471.56" y1="40.00" x2="471.56" y2="504.00" stroke="#dddddd" stroke-width="1"/><line x1="72.00" y1="395.41" x2="700.00" y2="395.41" stroke="#dddddd" stroke-width="1"/><line x1="72.00" y1="208.78" x2="700.00" y2="208.78" stroke="#dddddd" stroke-width="1"/><g clip-path="url(#clip6_6)"><polyline fill="none" stroke="#7f7f7f" stroke-width="1.5" stroke-opacity="1.000" points="100.55,482.91 671.45,61.09" stroke-dasharray="6 4"/><circle cx="327.38" cy="308.82" r="4.00" fill="#1f77b4" fill-opacity="0.800"/><circle cx="551.14" cy="182.77" r="4.00" fill="#1f77b4" fill-opacity="0.800"/><circle cx="327.97" cy="312.36" r="4.00" fill="#1f77b4" fill-opacity="0.800"/><circle cx="286.36" cy="335.19" r="4.00" fill="#1f77b4" fill-opacity="0.800"/><circle cx="609.31" cy="61.09" r="4.00" fill="#1f77b4" fill-opacity="0.800"/><circle cx="293.70" cy="347.71" r="4.00" fill="#1f77b4" fill-opacity="0.800"/><circle cx="454.39" cy="226.68" r="4.00" fill="#1f77b4" fill-opacity="0.800"/><circle cx="634.43" cy="81.50" r="4.00" fill="#1f77b4" fill-opacity="0.800"/><circle cx="263.01" cy="374.51" r="4.00" fill="#1f77b4" fill-opacity="0.800"/><circle cx="272.04" cy="347.19" r="4.00" fill="#1f77b4" fill-opacity="0.800"/><circle cx="299.04" cy="366.78" r="4.00" fill="#1f77b4" fill-opacity="0.800"/><circle cx="394.93" cy="245.96" r="4.00" fill="#1f77b4" fill-opacity="0.800"/><circle cx="448.18" cy="199.66" r="4.00" fill="#1f77b4" fill-opacity="0.800"/><circle cx="607.68" cy="104.08" r="4.00" fill="#1f77b4" fill-opacity="0.800"/><circle cx="313.75" cy="364.09" r="4.00" fill="#1f77b4" fill-opacity="0.800"/><circle cx="380.57" cy="275.24" r="4.00" fill="#1f77b4" fill-opacity="0.800"/><circle cx="569.87" cy="172.15" r="4.00" fill="#1f77b4" fill-opacity="0.800"/><circle cx="229.33" cy="385.86" r="4.00" fill="#1f77b4" fill-opacity="0.800"/><circle cx="421.55" cy="227.28" r="4.00" fill="#1f77b4" fill-opacity="0.800"/><circle cx="386.73" cy="245.44" r="4.00" fill="#1f77b4" fill-opacity="0.800"/><circle cx="324.11" cy="307.68" r="4.00" fill="#1f77b4" fill-opacity="0.800"/><circle cx="351.77" cy="313.27" r="4.00" fill="#1f77b4" fill-opacity="0.800"/><circle cx="331.64" cy="287.91" r="4.00" fill="#1f77b4" fill-opacity="0.800"/><circle cx="483.95" cy="200.19" r="4.00" fill="#1f77b4" fill-opacity="0.800"/><circle cx="364.86" cy="284.08" r="4.00" fill="#1f77b4" fill-opacity="0.800"/><circle cx="529.72" cy="125.30" r="4.00" fill="#1f77b4" fill-opacity="0.800"/><circle cx="292.72" cy="306.67" r="4.00" fill="#1f77b4" fill-opacity="0.800"/><circle cx="387.26" cy="253.75" r="4.00" fill="#1f77b4" fill-opacity="0.800"/><circle cx="490.79" cy="196.10" r="4.00" fill="#1f77b4" fill-opacity="0.800"/><circle cx="283.88" cy="354.47" r="4.00" fill="#1f77b4" fill-opacity="0.800"/><circle cx="298.61" cy="360.34" r="4.00" fill="#1f77b4" fill-opacity="0.800"/><circle cx="464.78" cy="200.76" r="4.00" fill="#1f77b4" fill-opacity="0.800"/><circle cx="364.18" cy="262.40" r="4.00" fill="#1f77b4" fill-opacity="0.800"/><circle cx="390.08" cy="264.61" r="4.00" fill="#1f77b4" fill-opacity="0.800"/><circle cx="364.22" cy="256.74" r="4.00" fill="#1f77b4" fill-opacity="0.800"/><circle cx="231.67" cy="374.39" r="4.00" fill="#1f77b4" fill-opacity="0.800"/><circle cx="401.70" cy="275.30" r="4.00" fill="#1f77b4" fill-opacity="0.800"/><circle cx="432.72" cy="279.12" r="4.00" fill="#1f77b4" fill-opacity="0.800"/><circle cx="410.05" cy="295.82" r="4.00" fill="#1f77b4" fill-opacity="0.800"/><circle cx="460.82" cy="208.31" r="4.00" fill="#1f77b4" fill-opacity="0.800"/><circle cx="544.08" cy="175.93" r="4.00" fill="#1f77b4" fill-opacity="0.800"/><circle cx="258.20" cy="358.24" r="4.00" fill="#1f77b4" fill-opacity="0.800"/><circle cx="361.32" cy="289.65" r="4.00" fill="#1f77b4" fill-opacity="0.800"/><circle cx="376.34" cy="284.32" r="4.00" fill="#1f77b4" fill-opacity="0.800"/><circle cx="338.27" cy="306.45" r="4.00" fill="#1f77b4" fill-opacity="0.800"/><circle cx="370.22" cy="276.22" r="4.00" fill="#1f77b4" fill-opacity="0.800"/><circle cx="377.18" cy="245.26" r="4.00" fill="#1f77b4" fill-opacity="0.800"/><circle cx="273.72" cy="347.08" r="4.00" fill="#1f77b4" fill-opacity="0.800"/><circle cx="461.43" cy="202.49" r="4.00" fill="#1f77b4" fill-opacity="0.800"/><circle cx="515.17" cy="159.61" r="4.00" fill="#1f77b4" fill-opacity="0.800"/><circle cx="236.82" cy="384.02" r="4.00" fill="#1f77b4" fill-opacity="0.800"/><circle cx="438.24" cy="249.85" r="4.00" fill="#1f77b4" fill-opacity="0.800"/><circle cx="390.34" cy="290.59" r="4.00" fill="#1f77b4" fill-opacity="0.800"/><circle cx="302.27" cy="290.25" r="4.00" fill="#1f77b4" fill-opacity="0.800"/><circle cx="289.81" cy="338.61" r="4.00" fill="#1f77b4" fill-opacity="0.800"/><circle cx="369.49" cy="287.00" r="4.00" fill="#1f77b4" fill-opacity="0.800"/><circle cx="257.20" cy="357.59" r="4.00" fill="#1f77b4" fill-opacity="0.800"/><circle cx="329.98" cy="325.07" r="4.00" fill="#1f77b4" fill-opacity="0.800"/><circle cx="559.36" cy="163.43" r="4.00" fill="#1f77b4" fill-opacity="0.800"/><circle cx="274.63" cy="389.26" r="4.00" fill="#1f77b4" fill-opacity="0.800"/><circle cx="246.09" cy="386.35" r="4.00" fill="#1f77b4" fill-opacity="0.800"/><circle cx="540.28" cy="132.63" r="4.00" fill="#1f77b4" fill-opacity="0.800"/><circle cx="286.80" cy="366.20" r="4.00" fill="#1f77b4" fill-opacity="0.800"/><circle cx="385.44" cy="294.33" r="4.00" fill="#1f77b4" fill-opacity="0.800"/><circle cx="398.22" cy="279.26" r="4.00" fill="#1f77b4" fill-opacity="0.800"/><circle cx="261.56" cy="353.66" r="4.00" fill="#1f77b4" fill-opacity="0.800"/><circle cx="254.89" cy="339.45" r="4.00" fill="#1f77b4" fill-opacity="0.800"/><circle cx="428.43" cy="236.20" r="4.00" fill="#1f77b4" fill-opacity="0.800"/><circle cx="154.43" cy="454.22" r="4.00" fill="#1f77b4" fill-opacity="0.800"/><circle cx="448.72" cy="239.48" r="4.00" fill="#1f77b4" fill-opacity="0.800"/><circle cx="469.50" cy="197.61" r="4.00" fill="#1f77b4" fill-opacity="0.800"/><circle cx="247.51" cy="377.17" r="4.00" fill="#1f77b4" fill-opacity="0.800"/><circle cx="303.00" cy="332.16" r="4.00" fill="#1f77b4" fill-opacity="0.800"/><circle cx="411.29" cy="276.41" r="4.00" fill="#1f77b4" fill-opacity="0.800"/><circle cx="283.46" cy="335.70" r="4.00" fill="#1f77b4" fill-opacity="0.800"/><circle cx="344.62" cy="330.71" r="4.00" fill="#1f77b4" fill-opacity="0.800"/><circle cx="617.19" cy="92.88" r="4.00" fill="#1f77b4" fill-opacity="0.800"/><circle cx="335.66" cy="315.12" r="4.00" fill="#1f77b4" fill-opacity="0.800"/><circle cx="277.59" cy="338.03" r="4.00" fill="#1f77b4" fill-opacity="0.800"/><circle cx="282.50" cy="366.06" r="4.00" fill="#1f77b4" fill-opacity="0.800"/><circle cx="491.41" cy="226.81" r="4.00" fill="#1f77b4" fill-opacity="0.800"/><circle cx="450.06" cy="222.18" r="4.00" fill="#1f77b4" fill-opacity="0.800"/><circle cx="494.39" cy="218.30" r="4.00" fill="#1f77b4" fill-opacity="0.800"/><circle cx="241.02" cy="357.80" r="4.00" fill="#1f77b4" fill-opacity="0.800"/><circle cx="309.05" cy="336.76" r="4.00" fill="#1f77b4" fill-opacity="0.800"/><circle cx="583.55" cy="134.53" r="4.00" fill="#1f77b4" fill-opacity="0.800"/><circle cx="188.03" cy="416.38" r="4.00" fill="#1f77b4" fill-opacity="0.800"/><circle cx="344.46" cy="310.54" r="4.00" fill="#1f77b4" fill-opacity="0.800"/><circle cx="587.93" cy="111.66" r="4.00" fill="#1f77b4" fill-opacity="0.800"/><circle cx="105.74" cy="482.91" r="4.00" fill="#1f77b4" fill-opacity="0.800"/></g><line x1="72.00" y1="40.00" x2="700.00" y2="40.00" stroke="#000000" stroke-width="1"/><line x1="72.00" y1="504.00" x2="700.00" y2="504.00" stroke="#000000" stroke-width="1"/><line x1="72.00" y1="40.00" x2="72.00" y2="504.00" stroke="#000000" stroke-width="1"/><line x1="700.00" y1="40.00" x2="700.00" y2="504.00" stroke="#000000" stroke-width="1"/><line x1="218.97" y1="504.00" x2="218.97" y2="509.00" stroke="#000000"/><text x="218.97" y="520.00" font-size="11" text-anchor="middle">0</text><line x1="471.56" y1="504.00" x2="471.56" y2="509.00" stroke="#000000"/><text x="471.56" y="520.00" font-size="11" text-anchor="middle">5</text><line x1="67.00" y1="395.41" x2="72.00" y2="395.41" stroke="#000000"/><text x="64.00" y="399.41" font-size="11" text-anchor="end">0</text><line x1="67.00" y1="208.78" x2="72.00" y2="208.78" stroke="#000000"/><text x="64.00" y="212.78" font-size="11" text-anchor="end">5</text><text x="386.00" y="32.00" font-size="15" font-weight="bold" text-anchor="middle">Formula OLS: observed vs fitted</text><text x="386.00" y="534.00" font-size="12" text-anchor="middle">fitted y-hat</text><text x="22.00" y="272.00" font-size="12" text-anchor="middle" transform="rotate(-90 22.00 272.00)">observed y</text><g class="legend"><rect x="80.00" y="48.00" width="110.00" height="44.00" fill="white" fill-opacity="0.85" stroke="#7f7f7f" stroke-width="1"/><rect class="swatch" x="86.00" y="56.00" width="14.00" height="10" fill="#7f7f7f"/><text x="106.00" y="65.00" font-size="11" text-anchor="start">y = y-hat</text><rect class="swatch" x="86.00" y="72.00" width="14.00" height="10" fill="#1f77b4"/><text x="106.00" y="81.00" font-size="11" text-anchor="start">observations</text></g></svg>