<svg xmlns="http://www.w3.org/2000/svg" width="760" height="520" viewBox="0 0 760 520" font-family="sans-serif"><rect x="0" y="0" width="760" height="520" fill="#ffffff"/><clipPath id="clip6_6"><rect x="72.00" y="40.00" width="668.00" height="424.00"/></clipPath><line x1="102.36" y1="40.00" x2="102.36" y2="464.00" stroke="#dddddd" stroke-width="1"/><line x1="406.00" y1="40.00" x2="406.00" y2="464.00" stroke="#dddddd" stroke-width="1"/><line x1="709.64" y1="40.00" x2="709.64" y2="464.00" stroke="#dddddd" stroke-width="1"/><line x1="72.00" y1="450.07" x2="740.00" y2="450.07" stroke="#dddddd" stroke-width="1"/><line x1="72.00" y1="292.34" x2="740.00" y2="292.34" stroke="#dddddd" stroke-width="1"/><line x1="72.00" y1="134.62" x2="740.00" y2="134.62" stroke="#dddddd" stroke-width="1"/><g clip-path="url(#clip6_6)"><circle cx="102.36" cy="287.37" r="4.00" fill="#1f77b4" fill-opacity="0.650"/><circle cx="107.47" cy="341.10" r="4.00" fill="#1f77b4" fill-opacity="0.650"/><circle cx="112.57" cy="219.11" r="4.00" fill="#1f77b4" fill-opacity="0.650"/><circle cx="117.67" cy="312.70" r="4.00" fill="#1f77b4" fill-opacity="0.650"/><circle cx="122.78" cy="283.76" r="4.00" fill="#1f77b4" fill-opacity="0.650"/><circle cx="127.88" cy="211.45" r="4.00" fill="#1f77b4" fill-opacity="0.650"/><circle cx="132.98" cy="170.07" r="4.00" fill="#1f77b4" fill-opacity="0.650"/><circle cx="138.09" cy="266.44" r="4.00" fill="#1f77b4" fill-opacity="0.650"/><circle cx="143.19" cy="222.99" r="4.00" fill="#1f77b4" fill-opacity="0.650"/><circle cx="148.29" cy="128.76" r="4.00" fill="#1f77b4" fill-opacity="0.650"/><circle cx="153.39" cy="152.03" r="4.00" fill="#1f77b4" fill-opacity="0.650"/><circle cx="158.50" cy="180.11" r="4.00" fill="#1f77b4" fill-opacity="0.650"/><circle cx="163.60" cy="176.15" r="4.00" fill="#1f77b4" fill-opacity="0.650"/><circle cx="168.70" cy="199.89" r="4.00" fill="#1f77b4" fill-opacity="0.650"/><circle cx="173.81" cy="182.13" r="4.00" fill="#1f77b4" fill-opacity="0.650"/><circle cx="178.91" cy="135.24" r="4.00" fill="#1f77b4" fill-opacity="0.650"/><circle cx="184.01" cy="159.83" r="4.00" fill="#1f77b4" fill-opacity="0.650"/><circle cx="189.12" cy="186.29" r="4.00" fill="#1f77b4" fill-opacity="0.650"/><circle cx="194.22" cy="196.28" r="4.00" fill="#1f77b4" fill-opacity="0.650"/><circle cx="199.32" cy="186.96" r="4.00" fill="#1f77b4" fill-opacity="0.650"/><circle cx="204.43" cy="183.71" r="4.00" fill="#1f77b4" fill-opacity="0.650"/><circle cx="209.53" cy="118.88" r="4.00" fill="#1f77b4" fill-opacity="0.650"/><circle cx="214.63" cy="171.09" r="4.00" fill="#1f77b4" fill-opacity="0.650"/><circle cx="219.74" cy="84.48" r="4.00" fill="#1f77b4" fill-opacity="0.650"/><circle cx="224.84" cy="100.69" r="4.00" fill="#1f77b4" fill-opacity="0.650"/><circle cx="229.94" cy="59.27" r="4.00" fill="#1f77b4" fill-opacity="0.650"/><circle cx="235.05" cy="71.53" r="4.00" fill="#1f77b4" fill-opacity="0.650"/><circle cx="240.15" cy="152.44" r="4.00" fill="#1f77b4" fill-opacity="0.650"/><circle cx="245.25" cy="139.22" r="4.00" fill="#1f77b4" fill-opacity="0.650"/><circle cx="250.35" cy="140.20" r="4.00" fill="#1f77b4" fill-opacity="0.650"/><circle cx="255.46" cy="114.02" r="4.00" fill="#1f77b4" fill-opacity="0.650"/><circle cx="260.56" cy="136.01" r="4.00" fill="#1f77b4" fill-opacity="0.650"/><circle cx="265.66" cy="145.00" r="4.00" fill="#1f77b4" fill-opacity="0.650"/><circle cx="270.77" cy="88.25" r="4.00" fill="#1f77b4" fill-opacity="0.650"/><circle cx="275.87" cy="132.57" r="4.00" fill="#1f77b4" fill-opacity="0.650"/><circle cx="280.97" cy="197.74" r="4.00" fill="#1f77b4" fill-opacity="0.650"/><circle cx="286.08" cy="128.84" r="4.00" fill="#1f77b4" fill-opacity="0.650"/><circle cx="291.18" cy="65.34" r="4.00" fill="#1f77b4" fill-opacity="0.650"/><circle cx="296.28" cy="122.58" r="4.00" fill="#1f77b4" fill-opacity="0.650"/><circle cx="301.39" cy="83.99" r="4.00" fill="#1f77b4" fill-opacity="0.650"/><circle cx="306.49" cy="101.19" r="4.00" fill="#1f77b4" fill-opacity="0.650"/><circle cx="311.59" cy="127.34" r="4.00" fill="#1f77b4" fill-opacity="0.650"/><circle cx="316.70" cy="122.86" r="4.00" fill="#1f77b4" fill-opacity="0.650"/><circle cx="321.80" cy="132.00" r="4.00" fill="#1f77b4" fill-opacity="0.650"/><circle cx="326.90" cy="108.84" r="4.00" fill="#1f77b4" fill-opacity="0.650"/><circle cx="332.00" cy="164.73" r="4.00" fill="#1f77b4" fill-opacity="0.650"/><circle cx="337.11" cy="218.06" r="4.00" fill="#1f77b4" fill-opacity="0.650"/><circle cx="342.21" cy="169.86" r="4.00" fill="#1f77b4" fill-opacity="0.650"/><circle cx="347.31" cy="137.85" r="4.00" fill="#1f77b4" fill-opacity="0.650"/><circle cx="352.42" cy="180.08" r="4.00" fill="#1f77b4" fill-opacity="0.650"/><circle cx="357.52" cy="295.03" r="4.00" fill="#1f77b4" fill-opacity="0.650"/><circle cx="362.62" cy="208.41" r="4.00" fill="#1f77b4" fill-opacity="0.650"/><circle cx="367.73" cy="124.58" r="4.00" fill="#1f77b4" fill-opacity="0.650"/><circle cx="372.83" cy="181.68" r="4.00" fill="#1f77b4" fill-opacity="0.650"/><circle cx="377.93" cy="161.81" r="4.00" fill="#1f77b4" fill-opacity="0.650"/><circle cx="383.04" cy="171.56" r="4.00" fill="#1f77b4" fill-opacity="0.650"/><circle cx="388.14" cy="206.92" r="4.00" fill="#1f77b4" fill-opacity="0.650"/><circle cx="393.24" cy="292.96" r="4.00" fill="#1f77b4" fill-opacity="0.650"/><circle cx="398.35" cy="198.59" r="4.00" fill="#1f77b4" fill-opacity="0.650"/><circle cx="403.45" cy="162.92" r="4.00" fill="#1f77b4" fill-opacity="0.650"/><circle cx="408.55" cy="242.88" r="4.00" fill="#1f77b4" fill-opacity="0.650"/><circle cx="413.65" cy="273.20" r="4.00" fill="#1f77b4" fill-opacity="0.650"/><circle cx="418.76" cy="338.09" r="4.00" fill="#1f77b4" fill-opacity="0.650"/><circle cx="423.86" cy="196.36" r="4.00" fill="#1f77b4" fill-opacity="0.650"/><circle cx="428.96" cy="285.11" r="4.00" fill="#1f77b4" fill-opacity="0.650"/><circle cx="434.07" cy="314.82" r="4.00" fill="#1f77b4" fill-opacity="0.650"/><circle cx="439.17" cy="231.89" r="4.00" fill="#1f77b4" fill-opacity="0.650"/><circle cx="444.27" cy="374.95" r="4.00" fill="#1f77b4" fill-opacity="0.650"/><circle cx="449.38" cy="289.77" r="4.00" fill="#1f77b4" fill-opacity="0.650"/><circle cx="454.48" cy="322.58" r="4.00" fill="#1f77b4" fill-opacity="0.650"/><circle cx="459.58" cy="403.42" r="4.00" fill="#1f77b4" fill-opacity="0.650"/><circle cx="464.69" cy="361.80" r="4.00" fill="#1f77b4" fill-opacity="0.650"/><circle cx="469.79" cy="336.54" r="4.00" fill="#1f77b4" fill-opacity="0.650"/><circle cx="474.89" cy="323.33" r="4.00" fill="#1f77b4" fill-opacity="0.650"/><circle cx="480.00" cy="341.61" r="4.00" fill="#1f77b4" fill-opacity="0.650"/><circle cx="485.10" cy="385.14" r="4.00" fill="#1f77b4" fill-opacity="0.650"/><circle cx="490.20" cy="380.15" r="4.00" fill="#1f77b4" fill-opacity="0.650"/><circle cx="495.30" cy="282.83" r="4.00" fill="#1f77b4" fill-opacity="0.650"/><circle cx="500.41" cy="444.73" r="4.00" fill="#1f77b4" fill-opacity="0.650"/><circle cx="505.51" cy="415.16" r="4.00" fill="#1f77b4" fill-opacity="0.650"/><circle cx="510.61" cy="372.03" r="4.00" fill="#1f77b4" fill-opacity="0.650"/><circle cx="515.72" cy="374.49" r="4.00" fill="#1f77b4" fill-opacity="0.650"/><circle cx="520.82" cy="328.49" r="4.00" fill="#1f77b4" fill-opacity="0.650"/><circle cx="525.92" cy="354.94" r="4.00" fill="#1f77b4" fill-opacity="0.650"/><circle cx="531.03" cy="413.68" r="4.00" fill="#1f77b4" fill-opacity="0.650"/><circle cx="536.13" cy="355.41" r="4.00" fill="#1f77b4" fill-opacity="0.650"/><circle cx="541.23" cy="299.11" r="4.00" fill="#1f77b4" fill-opacity="0.650"/><circle cx="546.34" cy="369.06" r="4.00" fill="#1f77b4" fill-opacity="0.650"/><circle cx="551.44" cy="390.91" r="4.00" fill="#1f77b4" fill-opacity="0.650"/><circle cx="556.54" cy="427.08" r="4.00" fill="#1f77b4" fill-opacity="0.650"/><circle cx="561.65" cy="352.96" r="4.00" fill="#1f77b4" fill-opacity="0.650"/><circle cx="566.75" cy="437.00" r="4.00" fill="#1f77b4" fill-opacity="0.650"/><circle cx="571.85" cy="395.51" r="4.00" fill="#1f77b4" fill-opacity="0.650"/><circle cx="576.95" cy="434.58" r="4.00" fill="#1f77b4" fill-opacity="0.650"/><circle cx="582.06" cy="430.36" r="4.00" fill="#1f77b4" fill-opacity="0.650"/><circle cx="587.16" cy="372.77" r="4.00" fill="#1f77b4" fill-opacity="0.650"/><circle cx="592.26" cy="384.36" r="4.00" fill="#1f77b4" fill-opacity="0.650"/><circle cx="597.37" cy="379.68" r="4.00" fill="#1f77b4" fill-opacity="0.650"/><circle cx="602.47" cy="346.12" r="4.00" fill="#1f77b4" fill-opacity="0.650"/><circle cx="607.57" cy="385.46" r="4.00" fill="#1f77b4" fill-opacity="0.650"/><circle cx="612.68" cy="391.30" r="4.00" fill="#1f77b4" fill-opacity="0.650"/><circle cx="617.78" cy="360.38" r="4.00" fill="#1f77b4" fill-opacity="0.650"/><circle cx="622.88" cy="383.16" r="4.00" fill="#1f77b4" fill-opacity="0.650"/><circle cx="627.99" cy="335.74" r="4.00" fill="#1f77b4" fill-opacity="0.650"/><circle cx="633.09" cy="309.25" r="4.00" fill="#1f77b4" fill-opacity="0.650"/><circle cx="638.19" cy="267.11" r="4.00" fill="#1f77b4" fill-opacity="0.650"/><circle cx="643.30" cy="293.45" r="4.00" fill="#1f77b4" fill-opacity="0.650"/><circle cx="648.40" cy="400.18" r="4.00" fill="#1f77b4" fill-opacity="0.650"/><circle cx="653.50" cy="311.23" r="4.00" fill="#1f77b4" fill-opacity="0.650"/><circle cx="658.61" cy="275.21" r="4.00" fill="#1f77b4" fill-opacity="0.650"/><circle cx="663.71" cy="307.20" r="4.00" fill="#1f77b4" fill-opacity="0.650"/><circle cx="668.81" cy="326.76" r="4.00" fill="#1f77b4" fill-opacity="0.650"/><circle cx="673.91" cy="300.55" r="4.00" fill="#1f77b4" fill-opacity="0.650"/><circle cx="679.02" cy="234.05" r="4.00" fill="#1f77b4" fill-opacity="0.650"/><circle cx="684.12" cy="305.11" r="4.00" fill="#1f77b4" fill-opacity="0.650"/><circle cx="689.22" cy="224.69" r="4.00" fill="#1f77b4" fill-opacity="0.650"/><circle cx="694.33" cy="240.10" r="4.00" fill="#1f77b4" fill-opacity="0.650"/><circle cx="699.43" cy="220.09" r="4.00" fill="#1f77b4" fill-opacity="0.650"/><circle cx="704.53" cy="216.36" r="4.00" fill="#1f77b4" fill-opacity="0.650"/><circle cx="709.64" cy="222.16" r="4.00" fill="#1f77b4" fill-opacity="0.650"/><polyline fill="none" stroke="#d62728" stroke-width="2.5" stroke-opacity="1.000" points="102.36,226.21 107.47,222.22 112.57,218.22 117.67,214.24 122.78,210.26 127.88,206.32 132.98,202.41 138.09,198.54 143.19,194.73 148.29,190.99 153.39,187.32 158.50,183.73 163.60,180.24 168.70,176.85 173.81,173.58 178.91,170.43 184.01,167.41 189.12,164.54 194.22,161.82 199.32,159.27 204.43,156.89 209.53,154.70 214.63,152.71 219.74,150.93 224.84,149.36 229.94,148.03 235.05,146.93 240.15,146.08 245.25,145.48 250.35,145.15 255.46,145.06 260.56,145.24 265.66,145.68 270.77,146.37 275.87,147.33 280.97,148.55 286.08,150.04 291.18,151.79 296.28,153.81 301.39,156.09 306.49,158.65 311.59,161.47 316.70,164.54 321.80,167.86 326.90,171.42 332.00,175.20 337.11,179.19 342.21,183.39 347.31,187.78 352.42,192.36 357.52,197.10 362.62,202.01 367.73,207.08 372.83,212.28 377.93,217.62 383.04,223.06 388.14,228.60 393.24,234.22 398.35,239.89 403.45,245.60 408.55,251.34 413.65,257.08 418.76,262.80 423.86,268.49 428.96,274.12 434.07,279.69 439.17,285.17 444.27,290.54 449.38,295.79 454.48,300.91 459.58,305.89 464.69,310.72 469.79,315.38 474.89,319.85 480.00,324.14 485.10,328.23 490.20,332.10 495.30,335.74 500.41,339.15 505.51,342.31 510.61,345.20 515.72,347.83 520.82,350.19 525.92,352.28 531.03,354.10 536.13,355.66 541.23,356.94 546.34,357.95 551.44,358.68 556.54,359.14 561.65,359.33 566.75,359.25 571.85,358.88 576.95,358.24 582.06,357.33 587.16,356.16 592.26,354.74 597.37,353.08 602.47,351.19 607.57,349.09 612.68,346.79 617.78,344.30 622.88,341.64 627.99,338.80 633.09,335.81 638.19,332.68 643.30,329.41 648.40,326.03 653.50,322.53 658.61,318.94 663.71,315.26 668.81,311.50 673.91,307.67 679.02,303.79 684.12,299.87 689.22,295.91 694.33,291.93 699.43,287.93 704.53,283.94 709.64,279.95"/></g><line x1="72.00" y1="40.00" x2="740.00" y2="40.00" stroke="#000000" stroke-width="1"/><line x1="72.00" y1="464.00" x2="740.00" y2="464.00" stroke="#000000" stroke-width="1"/><line x1="72.00" y1="40.00" x2="72.00" y2="464.00" stroke="#000000" stroke-width="1"/><line x1="740.00" y1="40.00" x2="740.00" y2="464.00" stroke="#000000" stroke-width="1"/><line x1="102.36" y1="464.00" x2="102.36" y2="469.00" stroke="#000000"/><text x="102.36" y="480.00" font-size="11" text-anchor="middle">0</text><line x1="406.00" y1="464.00" x2="406.00" y2="469.00" stroke="#000000"/><text x="406.00" y="480.00" font-size="11" text-anchor="middle">0.5</text><line x1="709.64" y1="464.00" x2="709.64" y2="469.00" stroke="#000000"/><text x="709.64" y="480.00" font-size="11" text-anchor="middle">1</text><line x1="67.00" y1="450.07" x2="72.00" y2="450.07" stroke="#000000"/><text x="64.00" y="454.07" font-size="11" text-anchor="end">-1</text><line x1="67.00" y1="292.34" x2="72.00" y2="292.34" stroke="#000000"/><text x="64.00" y="296.34" font-size="11" text-anchor="end">0</text><line x1="67.00" y1="134.62" x2="72.00" y2="134.62" stroke="#000000"/><text x="64.00" y="138.62" font-size="11" text-anchor="end">1</text><text x="406.00" y="32.00" font-size="15" font-weight="bold" text-anchor="middle">GAM smooth: penalized B-spline fit</text><text x="406.00" y="494.00" font-size="12" text-anchor="middle">x</text><text x="22.00" y="252.00" font-size="12" text-anchor="middle" transform="rotate(-90 22.00 252.00)">y</text><g class="legend"><rect x="635.00" y="48.00" width="97.00" height="44.00" fill="white" fill-opacity="0.85" stroke="#7f7f7f" stroke-width="1"/><rect class="swatch" x="641.00" y="56.00" width="14.00" height="10" fill="#1f77b4"/><text x="661.00" y="65.00" font-size="11" text-anchor="start">observed</text><rect class="swatch" x="641.00" y="72.00" width="14.00" height="10" fill="#d62728"/><text x="661.00" y="81.00" font-size="11" text-anchor="start">GAM smooth</text></g></svg>