<svg xmlns="http://www.w3.org/2000/svg" width="760" height="520" viewBox="0 0 760 520" font-family="sans-serif"><rect x="0" y="0" width="760" height="520" fill="#ffffff"/><clipPath id="clip6_6"><rect x="72.00" y="40.00" width="668.00" height="424.00"/></clipPath><line x1="102.36" y1="40.00" x2="102.36" y2="464.00" stroke="#dddddd" stroke-width="1"/><line x1="254.18" y1="40.00" x2="254.18" y2="464.00" stroke="#dddddd" stroke-width="1"/><line x1="406.00" y1="40.00" x2="406.00" y2="464.00" stroke="#dddddd" stroke-width="1"/><line x1="557.82" y1="40.00" x2="557.82" y2="464.00" stroke="#dddddd" stroke-width="1"/><line x1="709.64" y1="40.00" x2="709.64" y2="464.00" stroke="#dddddd" stroke-width="1"/><line x1="72.00" y1="444.73" x2="740.00" y2="444.73" stroke="#dddddd" stroke-width="1"/><line x1="72.00" y1="324.27" x2="740.00" y2="324.27" stroke="#dddddd" stroke-width="1"/><line x1="72.00" y1="203.82" x2="740.00" y2="203.82" stroke="#dddddd" stroke-width="1"/><line x1="72.00" y1="83.36" x2="740.00" y2="83.36" stroke="#dddddd" stroke-width="1"/><g clip-path="url(#clip6_6)"><circle cx="102.36" cy="396.55" r="4.00" fill="#1f77b4" fill-opacity="0.550"/><circle cx="254.18" cy="372.45" r="4.00" fill="#1f77b4" fill-opacity="0.550"/><circle cx="406.00" cy="396.55" r="4.00" fill="#1f77b4" fill-opacity="0.550"/><circle cx="557.82" cy="444.73" r="4.00" fill="#1f77b4" fill-opacity="0.550"/><circle cx="709.64" cy="276.09" r="4.00" fill="#1f77b4" fill-opacity="0.550"/><circle cx="102.36" cy="396.55" r="4.00" fill="#1f77b4" fill-opacity="0.550"/><circle cx="254.18" cy="372.45" r="4.00" fill="#1f77b4" fill-opacity="0.550"/><circle cx="406.00" cy="324.27" r="4.00" fill="#1f77b4" fill-opacity="0.550"/><circle cx="557.82" cy="276.09" r="4.00" fill="#1f77b4" fill-opacity="0.550"/><circle cx="709.64" cy="107.45" r="4.00" fill="#1f77b4" fill-opacity="0.550"/><circle cx="102.36" cy="396.55" r="4.00" fill="#1f77b4" fill-opacity="0.550"/><circle cx="254.18" cy="396.55" r="4.00" fill="#1f77b4" fill-opacity="0.550"/><circle cx="406.00" cy="420.64" r="4.00" fill="#1f77b4" fill-opacity="0.550"/><circle cx="557.82" cy="227.91" r="4.00" fill="#1f77b4" fill-opacity="0.550"/><circle cx="709.64" cy="372.45" r="4.00" fill="#1f77b4" fill-opacity="0.550"/><circle cx="102.36" cy="444.73" r="4.00" fill="#1f77b4" fill-opacity="0.550"/><circle cx="254.18" cy="300.18" r="4.00" fill="#1f77b4" fill-opacity="0.550"/><circle cx="406.00" cy="396.55" r="4.00" fill="#1f77b4" fill-opacity="0.550"/><circle cx="557.82" cy="300.18" r="4.00" fill="#1f77b4" fill-opacity="0.550"/><circle cx="709.64" cy="179.73" r="4.00" fill="#1f77b4" fill-opacity="0.550"/><circle cx="102.36" cy="420.64" r="4.00" fill="#1f77b4" fill-opacity="0.550"/><circle cx="254.18" cy="396.55" r="4.00" fill="#1f77b4" fill-opacity="0.550"/><circle cx="406.00" cy="348.36" r="4.00" fill="#1f77b4" fill-opacity="0.550"/><circle cx="557.82" cy="324.27" r="4.00" fill="#1f77b4" fill-opacity="0.550"/><circle cx="709.64" cy="59.27" r="4.00" fill="#1f77b4" fill-opacity="0.550"/><circle cx="102.36" cy="372.45" r="4.00" fill="#1f77b4" fill-opacity="0.550"/><circle cx="254.18" cy="372.45" r="4.00" fill="#1f77b4" fill-opacity="0.550"/><circle cx="406.00" cy="300.18" r="4.00" fill="#1f77b4" fill-opacity="0.550"/><circle cx="557.82" cy="324.27" r="4.00" fill="#1f77b4" fill-opacity="0.550"/><circle cx="709.64" cy="348.36" r="4.00" fill="#1f77b4" fill-opacity="0.550"/><circle cx="102.36" cy="420.64" r="4.00" fill="#1f77b4" fill-opacity="0.550"/><circle cx="254.18" cy="372.45" r="4.00" fill="#1f77b4" fill-opacity="0.550"/><circle cx="406.00" cy="372.45" r="4.00" fill="#1f77b4" fill-opacity="0.550"/><circle cx="557.82" cy="348.36" r="4.00" fill="#1f77b4" fill-opacity="0.550"/><circle cx="709.64" cy="131.55" r="4.00" fill="#1f77b4" fill-opacity="0.550"/><circle cx="102.36" cy="372.45" r="4.00" fill="#1f77b4" fill-opacity="0.550"/><circle cx="254.18" cy="420.64" r="4.00" fill="#1f77b4" fill-opacity="0.550"/><circle cx="406.00" cy="420.64" r="4.00" fill="#1f77b4" fill-opacity="0.550"/><circle cx="557.82" cy="420.64" r="4.00" fill="#1f77b4" fill-opacity="0.550"/><circle cx="709.64" cy="324.27" r="4.00" fill="#1f77b4" fill-opacity="0.550"/><circle cx="102.36" cy="444.73" r="4.00" fill="#1f77b4" fill-opacity="0.550"/><circle cx="254.18" cy="420.64" r="4.00" fill="#1f77b4" fill-opacity="0.550"/><circle cx="406.00" cy="396.55" r="4.00" fill="#1f77b4" fill-opacity="0.550"/><circle cx="557.82" cy="420.64" r="4.00" fill="#1f77b4" fill-opacity="0.550"/><circle cx="709.64" cy="348.36" r="4.00" fill="#1f77b4" fill-opacity="0.550"/><circle cx="102.36" cy="444.73" r="4.00" fill="#1f77b4" fill-opacity="0.550"/><circle cx="254.18" cy="396.55" r="4.00" fill="#1f77b4" fill-opacity="0.550"/><circle cx="406.00" cy="444.73" r="4.00" fill="#1f77b4" fill-opacity="0.550"/><circle cx="557.82" cy="324.27" r="4.00" fill="#1f77b4" fill-opacity="0.550"/><circle cx="709.64" cy="252.00" r="4.00" fill="#1f77b4" fill-opacity="0.550"/><circle cx="102.36" cy="396.55" r="4.00" fill="#1f77b4" fill-opacity="0.550"/><circle cx="254.18" cy="396.55" r="4.00" fill="#1f77b4" fill-opacity="0.550"/><circle cx="406.00" cy="396.55" r="4.00" fill="#1f77b4" fill-opacity="0.550"/><circle cx="557.82" cy="372.45" r="4.00" fill="#1f77b4" fill-opacity="0.550"/><circle cx="709.64" cy="300.18" r="4.00" fill="#1f77b4" fill-opacity="0.550"/><circle cx="102.36" cy="420.64" r="4.00" fill="#1f77b4" fill-opacity="0.550"/><circle cx="254.18" cy="348.36" r="4.00" fill="#1f77b4" fill-opacity="0.550"/><circle cx="406.00" cy="372.45" r="4.00" fill="#1f77b4" fill-opacity="0.550"/><circle cx="557.82" cy="396.55" r="4.00" fill="#1f77b4" fill-opacity="0.550"/><circle cx="709.64" cy="372.45" r="4.00" fill="#1f77b4" fill-opacity="0.550"/><circle cx="102.36" cy="444.73" r="4.00" fill="#1f77b4" fill-opacity="0.550"/><circle cx="254.18" cy="396.55" r="4.00" fill="#1f77b4" fill-opacity="0.550"/><circle cx="406.00" cy="396.55" r="4.00" fill="#1f77b4" fill-opacity="0.550"/><circle cx="557.82" cy="444.73" r="4.00" fill="#1f77b4" fill-opacity="0.550"/><circle cx="709.64" cy="372.45" r="4.00" fill="#1f77b4" fill-opacity="0.550"/><circle cx="102.36" cy="396.55" r="4.00" fill="#1f77b4" fill-opacity="0.550"/><circle cx="254.18" cy="372.45" r="4.00" fill="#1f77b4" fill-opacity="0.550"/><circle cx="406.00" cy="348.36" r="4.00" fill="#1f77b4" fill-opacity="0.550"/><circle cx="557.82" cy="348.36" r="4.00" fill="#1f77b4" fill-opacity="0.550"/><circle cx="709.64" cy="227.91" r="4.00" fill="#1f77b4" fill-opacity="0.550"/><circle cx="102.36" cy="420.64" r="4.00" fill="#1f77b4" fill-opacity="0.550"/><circle cx="254.18" cy="444.73" r="4.00" fill="#1f77b4" fill-opacity="0.550"/><circle cx="406.00" cy="372.45" r="4.00" fill="#1f77b4" fill-opacity="0.550"/><circle cx="557.82" cy="372.45" r="4.00" fill="#1f77b4" fill-opacity="0.550"/><circle cx="709.64" cy="348.36" r="4.00" fill="#1f77b4" fill-opacity="0.550"/><circle cx="102.36" cy="420.64" r="4.00" fill="#1f77b4" fill-opacity="0.550"/><circle cx="254.18" cy="372.45" r="4.00" fill="#1f77b4" fill-opacity="0.550"/><circle cx="406.00" cy="396.55" r="4.00" fill="#1f77b4" fill-opacity="0.550"/><circle cx="557.82" cy="396.55" r="4.00" fill="#1f77b4" fill-opacity="0.550"/><circle cx="709.64" cy="300.18" r="4.00" fill="#1f77b4" fill-opacity="0.550"/><circle cx="102.36" cy="420.64" r="4.00" fill="#1f77b4" fill-opacity="0.550"/><circle cx="254.18" cy="396.55" r="4.00" fill="#1f77b4" fill-opacity="0.550"/><circle cx="406.00" cy="348.36" r="4.00" fill="#1f77b4" fill-opacity="0.550"/><circle cx="557.82" cy="300.18" r="4.00" fill="#1f77b4" fill-opacity="0.550"/><circle cx="709.64" cy="203.82" r="4.00" fill="#1f77b4" fill-opacity="0.550"/><circle cx="102.36" cy="444.73" r="4.00" fill="#1f77b4" fill-opacity="0.550"/><circle cx="254.18" cy="444.73" r="4.00" fill="#1f77b4" fill-opacity="0.550"/><circle cx="406.00" cy="444.73" r="4.00" fill="#1f77b4" fill-opacity="0.550"/><circle cx="557.82" cy="372.45" r="4.00" fill="#1f77b4" fill-opacity="0.550"/><circle cx="709.64" cy="300.18" r="4.00" fill="#1f77b4" fill-opacity="0.550"/><circle cx="102.36" cy="444.73" r="4.00" fill="#1f77b4" fill-opacity="0.550"/><circle cx="254.18" cy="444.73" r="4.00" fill="#1f77b4" fill-opacity="0.550"/><circle cx="406.00" cy="300.18" r="4.00" fill="#1f77b4" fill-opacity="0.550"/><circle cx="557.82" cy="372.45" r="4.00" fill="#1f77b4" fill-opacity="0.550"/><circle cx="709.64" cy="396.55" r="4.00" fill="#1f77b4" fill-opacity="0.550"/><circle cx="102.36" cy="396.55" r="4.00" fill="#1f77b4" fill-opacity="0.550"/><circle cx="254.18" cy="372.45" r="4.00" fill="#1f77b4" fill-opacity="0.550"/><circle cx="406.00" cy="348.36" r="4.00" fill="#1f77b4" fill-opacity="0.550"/><circle cx="557.82" cy="252.00" r="4.00" fill="#1f77b4" fill-opacity="0.550"/><circle cx="709.64" cy="276.09" r="4.00" fill="#1f77b4" fill-opacity="0.550"/><polyline fill="none" stroke="#d62728" stroke-width="2.5" stroke-opacity="1.000" points="102.36,414.38 108.50,413.86 114.63,413.34 120.77,412.81 126.90,412.26 133.03,411.71 139.17,411.15 145.30,410.58 151.44,410.00 157.57,409.42 163.70,408.82 169.84,408.21 175.97,407.59 182.11,406.96 188.24,406.32 194.37,405.66 200.51,405.00 206.64,404.33 212.78,403.64 218.91,402.95 225.04,402.24 231.18,401.52 237.31,400.78 243.45,400.04 249.58,399.28 255.72,398.51 261.85,397.72 267.98,396.93 274.12,396.11 280.25,395.29 286.39,394.45 292.52,393.60 298.65,392.73 304.79,391.85 310.92,390.95 317.06,390.04 323.19,389.11 329.32,388.17 335.46,387.21 341.59,386.23 347.73,385.24 353.86,384.23 359.99,383.20 366.13,382.16 372.26,381.10 378.40,380.02 384.53,378.92 390.66,377.80 396.80,376.67 402.93,375.51 409.07,374.34 415.20,373.15 421.34,371.93 427.47,370.70 433.60,369.44 439.74,368.16 445.87,366.86 452.01,365.54 458.14,364.20 464.27,362.83 470.41,361.44 476.54,360.03 482.68,358.59 488.81,357.13 494.94,355.65 501.08,354.13 507.21,352.60 513.35,351.03 519.48,349.44 525.61,347.83 531.75,346.18 537.88,344.51 544.02,342.81 550.15,341.08 556.28,339.32 562.42,337.54 568.55,335.72 574.69,333.87 580.82,331.99 586.96,330.07 593.09,328.13 599.22,326.15 605.36,324.14 611.49,322.09 617.63,320.01 623.76,317.90 629.89,315.74 636.03,313.55 642.16,311.33 648.30,309.07 654.43,306.76 660.56,304.42 666.70,302.04 672.83,299.62 678.97,297.16 685.10,294.66 691.23,292.11 697.37,289.52 703.50,286.89 709.64,284.21"/></g><line x1="72.00" y1="40.00" x2="740.00" y2="40.00" stroke="#000000" stroke-width="1"/><line x1="72.00" y1="464.00" x2="740.00" y2="464.00" stroke="#000000" stroke-width="1"/><line x1="72.00" y1="40.00" x2="72.00" y2="464.00" stroke="#000000" stroke-width="1"/><line x1="740.00" y1="40.00" x2="740.00" y2="464.00" stroke="#000000" stroke-width="1"/><line x1="102.36" y1="464.00" x2="102.36" y2="469.00" stroke="#000000"/><text x="102.36" y="480.00" font-size="11" text-anchor="middle">0</text><line x1="254.18" y1="464.00" x2="254.18" y2="469.00" stroke="#000000"/><text x="254.18" y="480.00" font-size="11" text-anchor="middle">1</text><line x1="406.00" y1="464.00" x2="406.00" y2="469.00" stroke="#000000"/><text x="406.00" y="480.00" font-size="11" text-anchor="middle">2</text><line x1="557.82" y1="464.00" x2="557.82" y2="469.00" stroke="#000000"/><text x="557.82" y="480.00" font-size="11" text-anchor="middle">3</text><line x1="709.64" y1="464.00" x2="709.64" y2="469.00" stroke="#000000"/><text x="709.64" y="480.00" font-size="11" text-anchor="middle">4</text><line x1="67.00" y1="444.73" x2="72.00" y2="444.73" stroke="#000000"/><text x="64.00" y="448.73" font-size="11" text-anchor="end">0</text><line x1="67.00" y1="324.27" x2="72.00" y2="324.27" stroke="#000000"/><text x="64.00" y="328.27" font-size="11" text-anchor="end">5</text><line x1="67.00" y1="203.82" x2="72.00" y2="203.82" stroke="#000000"/><text x="64.00" y="207.82" font-size="11" text-anchor="end">10</text><line x1="67.00" y1="83.36" x2="72.00" y2="83.36" stroke="#000000"/><text x="64.00" y="87.36" font-size="11" text-anchor="end">15</text><text x="406.00" y="32.00" font-size="15" font-weight="bold" text-anchor="middle">GEE marginal mean: Poisson, exchangeable working correlation</text><text x="406.00" y="494.00" font-size="12" text-anchor="middle">x</text><text x="22.00" y="252.00" font-size="12" text-anchor="middle" transform="rotate(-90 22.00 252.00)">count y</text><g class="legend"><rect x="80.00" y="48.00" width="175.00" height="44.00" fill="white" fill-opacity="0.85" stroke="#7f7f7f" stroke-width="1"/><rect class="swatch" x="86.00" y="56.00" width="14.00" height="10" fill="#1f77b4"/><text x="106.00" y="65.00" font-size="11" text-anchor="start">observed (20 clusters)</text><rect class="swatch" x="86.00" y="72.00" width="14.00" height="10" fill="#d62728"/><text x="106.00" y="81.00" font-size="11" text-anchor="start">fitted marginal mean</text></g></svg>