<svg xmlns="http://www.w3.org/2000/svg" width="960" height="460" viewBox="0 0 960 460" font-family="sans-serif"><rect x="0" y="0" width="960" height="460" fill="#ffffff"/><text x="480.00" y="20" font-size="18" font-weight="bold" text-anchor="middle">GLM fitted mean vs observed</text><clipPath id="clip6_30"><rect x="72.00" y="64.00" width="394.00" height="340.00"/></clipPath><line x1="89.91" y1="64.00" x2="89.91" y2="404.00" stroke="#dddddd" stroke-width="1"/><line x1="179.45" y1="64.00" x2="179.45" y2="404.00" stroke="#dddddd" stroke-width="1"/><line x1="269.00" y1="64.00" x2="269.00" y2="404.00" stroke="#dddddd" stroke-width="1"/><line x1="358.55" y1="64.00" x2="358.55" y2="404.00" stroke="#dddddd" stroke-width="1"/><line x1="448.09" y1="64.00" x2="448.09" y2="404.00" stroke="#dddddd" stroke-width="1"/><line x1="72.00" y1="388.55" x2="466.00" y2="388.55" stroke="#dddddd" stroke-width="1"/><line x1="72.00" y1="319.86" x2="466.00" y2="319.86" stroke="#dddddd" stroke-width="1"/><line x1="72.00" y1="251.17" x2="466.00" y2="251.17" stroke="#dddddd" stroke-width="1"/><line x1="72.00" y1="182.48" x2="466.00" y2="182.48" stroke="#dddddd" stroke-width="1"/><line x1="72.00" y1="113.80" x2="466.00" y2="113.80" stroke="#dddddd" stroke-width="1"/><g clip-path="url(#clip6_30)"><circle cx="89.91" cy="388.55" r="4.00" fill="#1f77b4" fill-opacity="0.700"/><circle cx="94.44" cy="354.20" r="4.00" fill="#1f77b4" fill-opacity="0.700"/><circle cx="98.98" cy="354.20" r="4.00" fill="#1f77b4" fill-opacity="0.700"/><circle cx="103.51" cy="388.55" r="4.00" fill="#1f77b4" fill-opacity="0.700"/><circle cx="108.04" cy="354.20" r="4.00" fill="#1f77b4" fill-opacity="0.700"/><circle cx="112.58" cy="388.55" r="4.00" fill="#1f77b4" fill-opacity="0.700"/><circle cx="117.11" cy="354.20" r="4.00" fill="#1f77b4" fill-opacity="0.700"/><circle cx="121.65" cy="354.20" r="4.00" fill="#1f77b4" fill-opacity="0.700"/><circle cx="126.18" cy="388.55" r="4.00" fill="#1f77b4" fill-opacity="0.700"/><circle cx="130.71" cy="388.55" r="4.00" fill="#1f77b4" fill-opacity="0.700"/><circle cx="135.25" cy="388.55" r="4.00" fill="#1f77b4" fill-opacity="0.700"/><circle cx="139.78" cy="319.86" r="4.00" fill="#1f77b4" fill-opacity="0.700"/><circle cx="144.32" cy="354.20" r="4.00" fill="#1f77b4" fill-opacity="0.700"/><circle cx="148.85" cy="388.55" r="4.00" fill="#1f77b4" fill-opacity="0.700"/><circle cx="153.38" cy="319.86" r="4.00" fill="#1f77b4" fill-opacity="0.700"/><circle cx="157.92" cy="388.55" r="4.00" fill="#1f77b4" fill-opacity="0.700"/><circle cx="162.45" cy="354.20" r="4.00" fill="#1f77b4" fill-opacity="0.700"/><circle cx="166.99" cy="354.20" r="4.00" fill="#1f77b4" fill-opacity="0.700"/><circle cx="171.52" cy="388.55" r="4.00" fill="#1f77b4" fill-opacity="0.700"/><circle cx="176.05" cy="319.86" r="4.00" fill="#1f77b4" fill-opacity="0.700"/><circle cx="180.59" cy="388.55" r="4.00" fill="#1f77b4" fill-opacity="0.700"/><circle cx="185.12" cy="388.55" r="4.00" fill="#1f77b4" fill-opacity="0.700"/><circle cx="189.66" cy="388.55" r="4.00" fill="#1f77b4" fill-opacity="0.700"/><circle cx="194.19" cy="319.86" r="4.00" fill="#1f77b4" fill-opacity="0.700"/><circle cx="198.72" cy="354.20" r="4.00" fill="#1f77b4" fill-opacity="0.700"/><circle cx="203.26" cy="354.20" r="4.00" fill="#1f77b4" fill-opacity="0.700"/><circle cx="207.79" cy="319.86" r="4.00" fill="#1f77b4" fill-opacity="0.700"/><circle cx="212.33" cy="354.20" r="4.00" fill="#1f77b4" fill-opacity="0.700"/><circle cx="216.86" cy="388.55" r="4.00" fill="#1f77b4" fill-opacity="0.700"/><circle cx="221.39" cy="354.20" r="4.00" fill="#1f77b4" fill-opacity="0.700"/><circle cx="225.93" cy="319.86" r="4.00" fill="#1f77b4" fill-opacity="0.700"/><circle cx="230.46" cy="354.20" r="4.00" fill="#1f77b4" fill-opacity="0.700"/><circle cx="235.00" cy="354.20" r="4.00" fill="#1f77b4" fill-opacity="0.700"/><circle cx="239.53" cy="354.20" r="4.00" fill="#1f77b4" fill-opacity="0.700"/><circle cx="244.06" cy="285.52" r="4.00" fill="#1f77b4" fill-opacity="0.700"/><circle cx="248.60" cy="319.86" r="4.00" fill="#1f77b4" fill-opacity="0.700"/><circle cx="253.13" cy="319.86" r="4.00" fill="#1f77b4" fill-opacity="0.700"/><circle cx="257.67" cy="388.55" r="4.00" fill="#1f77b4" fill-opacity="0.700"/><circle cx="262.20" cy="354.20" r="4.00" fill="#1f77b4" fill-opacity="0.700"/><circle cx="266.73" cy="388.55" r="4.00" fill="#1f77b4" fill-opacity="0.700"/><circle cx="271.27" cy="319.86" r="4.00" fill="#1f77b4" fill-opacity="0.700"/><circle cx="275.80" cy="251.17" r="4.00" fill="#1f77b4" fill-opacity="0.700"/><circle cx="280.33" cy="251.17" r="4.00" fill="#1f77b4" fill-opacity="0.700"/><circle cx="284.87" cy="388.55" r="4.00" fill="#1f77b4" fill-opacity="0.700"/><circle cx="289.40" cy="354.20" r="4.00" fill="#1f77b4" fill-opacity="0.700"/><circle cx="293.94" cy="251.17" r="4.00" fill="#1f77b4" fill-opacity="0.700"/><circle cx="298.47" cy="354.20" r="4.00" fill="#1f77b4" fill-opacity="0.700"/><circle cx="303.00" cy="251.17" r="4.00" fill="#1f77b4" fill-opacity="0.700"/><circle cx="307.54" cy="388.55" r="4.00" fill="#1f77b4" fill-opacity="0.700"/><circle cx="312.07" cy="285.52" r="4.00" fill="#1f77b4" fill-opacity="0.700"/><circle cx="316.61" cy="285.52" r="4.00" fill="#1f77b4" fill-opacity="0.700"/><circle cx="321.14" cy="319.86" r="4.00" fill="#1f77b4" fill-opacity="0.700"/><circle cx="325.67" cy="251.17" r="4.00" fill="#1f77b4" fill-opacity="0.700"/><circle cx="330.21" cy="319.86" r="4.00" fill="#1f77b4" fill-opacity="0.700"/><circle cx="334.74" cy="319.86" r="4.00" fill="#1f77b4" fill-opacity="0.700"/><circle cx="339.28" cy="251.17" r="4.00" fill="#1f77b4" fill-opacity="0.700"/><circle cx="343.81" cy="354.20" r="4.00" fill="#1f77b4" fill-opacity="0.700"/><circle cx="348.34" cy="251.17" r="4.00" fill="#1f77b4" fill-opacity="0.700"/><circle cx="352.88" cy="251.17" r="4.00" fill="#1f77b4" fill-opacity="0.700"/><circle cx="357.41" cy="285.52" r="4.00" fill="#1f77b4" fill-opacity="0.700"/><circle cx="361.95" cy="319.86" r="4.00" fill="#1f77b4" fill-opacity="0.700"/><circle cx="366.48" cy="251.17" r="4.00" fill="#1f77b4" fill-opacity="0.700"/><circle cx="371.01" cy="285.52" r="4.00" fill="#1f77b4" fill-opacity="0.700"/><circle cx="375.55" cy="354.20" r="4.00" fill="#1f77b4" fill-opacity="0.700"/><circle cx="380.08" cy="216.83" r="4.00" fill="#1f77b4" fill-opacity="0.700"/><circle cx="384.62" cy="319.86" r="4.00" fill="#1f77b4" fill-opacity="0.700"/><circle cx="389.15" cy="148.14" r="4.00" fill="#1f77b4" fill-opacity="0.700"/><circle cx="393.68" cy="216.83" r="4.00" fill="#1f77b4" fill-opacity="0.700"/><circle cx="398.22" cy="285.52" r="4.00" fill="#1f77b4" fill-opacity="0.700"/><circle cx="402.75" cy="251.17" r="4.00" fill="#1f77b4" fill-opacity="0.700"/><circle cx="407.29" cy="354.20" r="4.00" fill="#1f77b4" fill-opacity="0.700"/><circle cx="411.82" cy="79.45" r="4.00" fill="#1f77b4" fill-opacity="0.700"/><circle cx="416.35" cy="182.48" r="4.00" fill="#1f77b4" fill-opacity="0.700"/><circle cx="420.89" cy="148.14" r="4.00" fill="#1f77b4" fill-opacity="0.700"/><circle cx="425.42" cy="251.17" r="4.00" fill="#1f77b4" fill-opacity="0.700"/><circle cx="429.96" cy="285.52" r="4.00" fill="#1f77b4" fill-opacity="0.700"/><circle cx="434.49" cy="113.80" r="4.00" fill="#1f77b4" fill-opacity="0.700"/><circle cx="439.02" cy="216.83" r="4.00" fill="#1f77b4" fill-opacity="0.700"/><circle cx="443.56" cy="251.17" r="4.00" fill="#1f77b4" fill-opacity="0.700"/><circle cx="448.09" cy="216.83" r="4.00" fill="#1f77b4" fill-opacity="0.700"/><polyline fill="none" stroke="#d62728" stroke-width="2.5" stroke-opacity="1.000" points="89.91,372.10 91.71,371.89 93.51,371.68 95.31,371.47 97.11,371.25 98.91,371.03 100.71,370.80 102.51,370.58 104.31,370.35 106.11,370.12 107.91,369.88 109.71,369.64 111.51,369.40 113.31,369.16 115.11,368.91 116.91,368.66 118.71,368.41 120.51,368.15 122.31,367.89 124.11,367.63 125.91,367.36 127.71,367.09 129.51,366.82 131.31,366.54 133.11,366.26 134.91,365.97 136.71,365.69 138.51,365.40 140.31,365.10 142.11,364.80 143.91,364.50 145.71,364.19 147.51,363.88 149.31,363.57 151.11,363.25 152.91,362.92 154.71,362.60 156.51,362.27 158.31,361.93 160.11,361.59 161.91,361.25 163.71,360.90 165.51,360.55 167.31,360.19 169.11,359.83 170.90,359.46 172.70,359.09 174.50,358.72 176.30,358.34 178.10,357.95 179.90,357.56 181.70,357.17 183.50,356.77 185.30,356.36 187.10,355.95 188.90,355.53 190.70,355.11 192.50,354.69 194.30,354.25 196.10,353.82 197.90,353.37 199.70,352.93 201.50,352.47 203.30,352.01 205.10,351.55 206.90,351.07 208.70,350.60 210.50,350.11 212.30,349.62 214.10,349.12 215.90,348.62 217.70,348.11 219.50,347.60 221.30,347.07 223.10,346.55 224.90,346.01 226.70,345.47 228.50,344.92 230.30,344.36 232.10,343.80 233.90,343.23 235.70,342.65 237.50,342.06 239.30,341.47 241.10,340.87 242.90,340.26 244.70,339.65 246.50,339.02 248.30,338.39 250.10,337.75 251.90,337.10 253.70,336.45 255.50,335.78 257.30,335.11 259.10,334.43 260.90,333.74 262.70,333.04 264.50,332.33 266.30,331.61 268.10,330.89 269.90,330.15 271.70,329.41 273.50,328.65 275.30,327.89 277.10,327.12 278.90,326.33 280.70,325.54 282.50,324.74 284.30,323.92 286.10,323.10 287.90,322.26 289.70,321.42 291.50,320.56 293.30,319.70 295.10,318.82 296.90,317.93 298.70,317.03 300.50,316.11 302.30,315.19 304.10,314.26 305.90,313.31 307.70,312.35 309.50,311.38 311.30,310.39 313.10,309.40 314.90,308.39 316.70,307.36 318.50,306.33 320.30,305.28 322.10,304.22 323.90,303.14 325.70,302.05 327.50,300.95 329.30,299.83 331.10,298.70 332.90,297.56 334.70,296.39 336.50,295.22 338.30,294.03 340.10,292.82 341.90,291.60 343.70,290.37 345.50,289.11 347.30,287.85 349.10,286.56 350.90,285.26 352.70,283.94 354.50,282.61 356.30,281.26 358.10,279.89 359.90,278.50 361.70,277.10 363.50,275.68 365.30,274.24 367.10,272.78 368.89,271.31 370.69,269.81 372.49,268.30 374.29,266.76 376.09,265.21 377.89,263.64 379.69,262.04 381.49,260.43 383.29,258.80 385.09,257.14 386.89,255.46 388.69,253.77 390.49,252.05 392.29,250.31 394.09,248.54 395.89,246.76 397.69,244.95 399.49,243.12 401.29,241.26 403.09,239.39 404.89,237.48 406.69,235.56 408.49,233.60 410.29,231.63 412.09,229.63 413.89,227.60 415.69,225.55 417.49,223.47 419.29,221.36 421.09,219.23 422.89,217.07 424.69,214.88 426.49,212.67 428.29,210.43 430.09,208.15 431.89,205.85 433.69,203.52 435.49,201.16 437.29,198.77 439.09,196.35 440.89,193.90 442.69,191.42 444.49,188.91 446.29,186.36 448.09,183.78"/></g><line x1="72.00" y1="64.00" x2="466.00" y2="64.00" stroke="#000000" stroke-width="1"/><line x1="72.00" y1="404.00" x2="466.00" y2="404.00" stroke="#000000" stroke-width="1"/><line x1="72.00" y1="64.00" x2="72.00" y2="404.00" stroke="#000000" stroke-width="1"/><line x1="466.00" y1="64.00" x2="466.00" y2="404.00" stroke="#000000" stroke-width="1"/><line x1="89.91" y1="404.00" x2="89.91" y2="409.00" stroke="#000000"/><text x="89.91" y="420.00" font-size="11" text-anchor="middle">-2</text><line x1="179.45" y1="404.00" x2="179.45" y2="409.00" stroke="#000000"/><text x="179.45" y="420.00" font-size="11" text-anchor="middle">-1</text><line x1="269.00" y1="404.00" x2="269.00" y2="409.00" stroke="#000000"/><text x="269.00" y="420.00" font-size="11" text-anchor="middle">0</text><line x1="358.55" y1="404.00" x2="358.55" y2="409.00" stroke="#000000"/><text x="358.55" y="420.00" font-size="11" text-anchor="middle">1</text><line x1="448.09" y1="404.00" x2="448.09" y2="409.00" stroke="#000000"/><text x="448.09" y="420.00" font-size="11" text-anchor="middle">2</text><line x1="67.00" y1="388.55" x2="72.00" y2="388.55" stroke="#000000"/><text x="64.00" y="392.55" font-size="11" text-anchor="end">0</text><line x1="67.00" y1="319.86" x2="72.00" y2="319.86" stroke="#000000"/><text x="64.00" y="323.86" font-size="11" text-anchor="end">2</text><line x1="67.00" y1="251.17" x2="72.00" y2="251.17" stroke="#000000"/><text x="64.00" y="255.17" font-size="11" text-anchor="end">4</text><line x1="67.00" y1="182.48" x2="72.00" y2="182.48" stroke="#000000"/><text x="64.00" y="186.48" font-size="11" text-anchor="end">6</text><line x1="67.00" y1="113.80" x2="72.00" y2="113.80" stroke="#000000"/><text x="64.00" y="117.80" font-size="11" text-anchor="end">8</text><text x="269.00" y="56.00" font-size="15" font-weight="bold" text-anchor="middle">Poisson: counts &amp; fitted mean</text><text x="269.00" y="434.00" font-size="12" text-anchor="middle">x</text><text x="22.00" y="234.00" font-size="12" text-anchor="middle" transform="rotate(-90 22.00 234.00)">y (count)</text><g class="legend"><rect x="80.00" y="72.00" width="103.50" height="44.00" fill="white" fill-opacity="0.85" stroke="#7f7f7f" stroke-width="1"/><rect class="swatch" x="86.00" y="80.00" width="14.00" height="10" fill="#1f77b4"/><text x="106.00" y="89.00" font-size="11" text-anchor="start">observed</text><rect class="swatch" x="86.00" y="96.00" width="14.00" height="10" fill="#d62728"/><text x="106.00" y="105.00" font-size="11" text-anchor="start">fitted E[y]</text></g><clipPath id="clip480_30"><rect x="546.00" y="64.00" width="394.00" height="340.00"/></clipPath><line x1="563.91" y1="64.00" x2="563.91" y2="404.00" stroke="#dddddd" stroke-width="1"/><line x1="653.45" y1="64.00" x2="653.45" y2="404.00" stroke="#dddddd" stroke-width="1"/><line x1="743.00" y1="64.00" x2="743.00" y2="404.00" stroke="#dddddd" stroke-width="1"/><line x1="832.55" y1="64.00" x2="832.55" y2="404.00" stroke="#dddddd" stroke-width="1"/><line x1="922.09" y1="64.00" x2="922.09" y2="404.00" stroke="#dddddd" stroke-width="1"/><line x1="546.00" y1="388.55" x2="940.00" y2="388.55" stroke="#dddddd" stroke-width="1"/><line x1="546.00" y1="234.00" x2="940.00" y2="234.00" stroke="#dddddd" stroke-width="1"/><line x1="546.00" y1="79.45" x2="940.00" y2="79.45" stroke="#dddddd" stroke-width="1"/><g clip-path="url(#clip480_30)"><circle cx="563.91" cy="388.55" r="4.00" fill="#1f77b4" fill-opacity="0.600"/><circle cx="568.44" cy="388.55" r="4.00" fill="#1f77b4" fill-opacity="0.600"/><circle cx="572.98" cy="388.55" r="4.00" fill="#1f77b4" fill-opacity="0.600"/><circle cx="577.51" cy="388.55" r="4.00" fill="#1f77b4" fill-opacity="0.600"/><circle cx="582.04" cy="388.55" r="4.00" fill="#1f77b4" fill-opacity="0.600"/><circle cx="586.58" cy="388.55" r="4.00" fill="#1f77b4" fill-opacity="0.600"/><circle cx="591.11" cy="388.55" r="4.00" fill="#1f77b4" fill-opacity="0.600"/><circle cx="595.65" cy="388.55" r="4.00" fill="#1f77b4" fill-opacity="0.600"/><circle cx="600.18" cy="388.55" r="4.00" fill="#1f77b4" fill-opacity="0.600"/><circle cx="604.71" cy="388.55" r="4.00" fill="#1f77b4" fill-opacity="0.600"/><circle cx="609.25" cy="388.55" r="4.00" fill="#1f77b4" fill-opacity="0.600"/><circle cx="613.78" cy="388.55" r="4.00" fill="#1f77b4" fill-opacity="0.600"/><circle cx="618.32" cy="79.45" r="4.00" fill="#1f77b4" fill-opacity="0.600"/><circle cx="622.85" cy="388.55" r="4.00" fill="#1f77b4" fill-opacity="0.600"/><circle cx="627.38" cy="388.55" r="4.00" fill="#1f77b4" fill-opacity="0.600"/><circle cx="631.92" cy="388.55" r="4.00" fill="#1f77b4" fill-opacity="0.600"/><circle cx="636.45" cy="388.55" r="4.00" fill="#1f77b4" fill-opacity="0.600"/><circle cx="640.99" cy="388.55" r="4.00" fill="#1f77b4" fill-opacity="0.600"/><circle cx="645.52" cy="388.55" r="4.00" fill="#1f77b4" fill-opacity="0.600"/><circle cx="650.05" cy="388.55" r="4.00" fill="#1f77b4" fill-opacity="0.600"/><circle cx="654.59" cy="388.55" r="4.00" fill="#1f77b4" fill-opacity="0.600"/><circle cx="659.12" cy="388.55" r="4.00" fill="#1f77b4" fill-opacity="0.600"/><circle cx="663.66" cy="388.55" r="4.00" fill="#1f77b4" fill-opacity="0.600"/><circle cx="668.19" cy="388.55" r="4.00" fill="#1f77b4" fill-opacity="0.600"/><circle cx="672.72" cy="79.45" r="4.00" fill="#1f77b4" fill-opacity="0.600"/><circle cx="677.26" cy="388.55" r="4.00" fill="#1f77b4" fill-opacity="0.600"/><circle cx="681.79" cy="388.55" r="4.00" fill="#1f77b4" fill-opacity="0.600"/><circle cx="686.33" cy="388.55" r="4.00" fill="#1f77b4" fill-opacity="0.600"/><circle cx="690.86" cy="388.55" r="4.00" fill="#1f77b4" fill-opacity="0.600"/><circle cx="695.39" cy="388.55" r="4.00" fill="#1f77b4" fill-opacity="0.600"/><circle cx="699.93" cy="388.55" r="4.00" fill="#1f77b4" fill-opacity="0.600"/><circle cx="704.46" cy="79.45" r="4.00" fill="#1f77b4" fill-opacity="0.600"/><circle cx="709.00" cy="388.55" r="4.00" fill="#1f77b4" fill-opacity="0.600"/><circle cx="713.53" cy="388.55" r="4.00" fill="#1f77b4" fill-opacity="0.600"/><circle cx="718.06" cy="388.55" r="4.00" fill="#1f77b4" fill-opacity="0.600"/><circle cx="722.60" cy="388.55" r="4.00" fill="#1f77b4" fill-opacity="0.600"/><circle cx="727.13" cy="388.55" r="4.00" fill="#1f77b4" fill-opacity="0.600"/><circle cx="731.67" cy="79.45" r="4.00" fill="#1f77b4" fill-opacity="0.600"/><circle cx="736.20" cy="388.55" r="4.00" fill="#1f77b4" fill-opacity="0.600"/><circle cx="740.73" cy="388.55" r="4.00" fill="#1f77b4" fill-opacity="0.600"/><circle cx="745.27" cy="79.45" r="4.00" fill="#1f77b4" fill-opacity="0.600"/><circle cx="749.80" cy="79.45" r="4.00" fill="#1f77b4" fill-opacity="0.600"/><circle cx="754.33" cy="79.45" r="4.00" fill="#1f77b4" fill-opacity="0.600"/><circle cx="758.87" cy="79.45" r="4.00" fill="#1f77b4" fill-opacity="0.600"/><circle cx="763.40" cy="388.55" r="4.00" fill="#1f77b4" fill-opacity="0.600"/><circle cx="767.94" cy="79.45" r="4.00" fill="#1f77b4" fill-opacity="0.600"/><circle cx="772.47" cy="79.45" r="4.00" fill="#1f77b4" fill-opacity="0.600"/><circle cx="777.00" cy="388.55" r="4.00" fill="#1f77b4" fill-opacity="0.600"/><circle cx="781.54" cy="388.55" r="4.00" fill="#1f77b4" fill-opacity="0.600"/><circle cx="786.07" cy="79.45" r="4.00" fill="#1f77b4" fill-opacity="0.600"/><circle cx="790.61" cy="79.45" r="4.00" fill="#1f77b4" fill-opacity="0.600"/><circle cx="795.14" cy="79.45" r="4.00" fill="#1f77b4" fill-opacity="0.600"/><circle cx="799.67" cy="79.45" r="4.00" fill="#1f77b4" fill-opacity="0.600"/><circle cx="804.21" cy="388.55" r="4.00" fill="#1f77b4" fill-opacity="0.600"/><circle cx="808.74" cy="79.45" r="4.00" fill="#1f77b4" fill-opacity="0.600"/><circle cx="813.28" cy="388.55" r="4.00" fill="#1f77b4" fill-opacity="0.600"/><circle cx="817.81" cy="79.45" r="4.00" fill="#1f77b4" fill-opacity="0.600"/><circle cx="822.34" cy="388.55" r="4.00" fill="#1f77b4" fill-opacity="0.600"/><circle cx="826.88" cy="79.45" r="4.00" fill="#1f77b4" fill-opacity="0.600"/><circle cx="831.41" cy="79.45" r="4.00" fill="#1f77b4" fill-opacity="0.600"/><circle cx="835.95" cy="388.55" r="4.00" fill="#1f77b4" fill-opacity="0.600"/><circle cx="840.48" cy="79.45" r="4.00" fill="#1f77b4" fill-opacity="0.600"/><circle cx="845.01" cy="79.45" r="4.00" fill="#1f77b4" fill-opacity="0.600"/><circle cx="849.55" cy="79.45" r="4.00" fill="#1f77b4" fill-opacity="0.600"/><circle cx="854.08" cy="79.45" r="4.00" fill="#1f77b4" fill-opacity="0.600"/><circle cx="858.62" cy="388.55" r="4.00" fill="#1f77b4" fill-opacity="0.600"/><circle cx="863.15" cy="79.45" r="4.00" fill="#1f77b4" fill-opacity="0.600"/><circle cx="867.68" cy="79.45" r="4.00" fill="#1f77b4" fill-opacity="0.600"/><circle cx="872.22" cy="79.45" r="4.00" fill="#1f77b4" fill-opacity="0.600"/><circle cx="876.75" cy="79.45" r="4.00" fill="#1f77b4" fill-opacity="0.600"/><circle cx="881.29" cy="79.45" r="4.00" fill="#1f77b4" fill-opacity="0.600"/><circle cx="885.82" cy="79.45" r="4.00" fill="#1f77b4" fill-opacity="0.600"/><circle cx="890.35" cy="79.45" r="4.00" fill="#1f77b4" fill-opacity="0.600"/><circle cx="894.89" cy="79.45" r="4.00" fill="#1f77b4" fill-opacity="0.600"/><circle cx="899.42" cy="79.45" r="4.00" fill="#1f77b4" fill-opacity="0.600"/><circle cx="903.96" cy="79.45" r="4.00" fill="#1f77b4" fill-opacity="0.600"/><circle cx="908.49" cy="79.45" r="4.00" fill="#1f77b4" fill-opacity="0.600"/><circle cx="913.02" cy="79.45" r="4.00" fill="#1f77b4" fill-opacity="0.600"/><circle cx="917.56" cy="388.55" r="4.00" fill="#1f77b4" fill-opacity="0.600"/><circle cx="922.09" cy="79.45" r="4.00" fill="#1f77b4" fill-opacity="0.600"/><polyline fill="none" stroke="#d62728" stroke-width="2.5" stroke-opacity="1.000" points="563.91,381.17 565.71,380.93 567.51,380.68 569.31,380.42 571.11,380.16 572.91,379.89 574.71,379.61 576.51,379.32 578.31,379.02 580.11,378.71 581.91,378.39 583.71,378.07 585.51,377.73 587.31,377.38 589.11,377.02 590.91,376.65 592.71,376.27 594.51,375.88 596.31,375.48 598.11,375.06 599.91,374.63 601.71,374.19 603.51,373.73 605.31,373.26 607.11,372.78 608.91,372.28 610.71,371.77 612.51,371.24 614.31,370.69 616.11,370.13 617.91,369.56 619.71,368.96 621.51,368.35 623.31,367.73 625.11,367.08 626.91,366.41 628.71,365.73 630.51,365.03 632.31,364.30 634.11,363.56 635.91,362.80 637.71,362.01 639.51,361.20 641.31,360.38 643.11,359.52 644.90,358.65 646.70,357.75 648.50,356.83 650.30,355.88 652.10,354.91 653.90,353.92 655.70,352.89 657.50,351.85 659.30,350.77 661.10,349.67 662.90,348.54 664.70,347.38 666.50,346.20 668.30,344.99 670.10,343.74 671.90,342.47 673.70,341.17 675.50,339.84 677.30,338.48 679.10,337.08 680.90,335.66 682.70,334.21 684.50,332.72 686.30,331.21 688.10,329.66 689.90,328.08 691.70,326.46 693.50,324.82 695.30,323.14 697.10,321.44 698.90,319.70 700.70,317.92 702.50,316.12 704.30,314.28 706.10,312.42 707.90,310.52 709.70,308.59 711.50,306.63 713.30,304.64 715.10,302.62 716.90,300.57 718.70,298.49 720.50,296.38 722.30,294.24 724.10,292.08 725.90,289.89 727.70,287.67 729.50,285.43 731.30,283.16 733.10,280.87 734.90,278.56 736.70,276.22 738.50,273.86 740.30,271.49 742.10,269.09 743.90,266.68 745.70,264.25 747.50,261.80 749.30,259.34 751.10,256.86 752.90,254.38 754.70,251.88 756.50,249.38 758.30,246.86 760.10,244.34 761.90,241.81 763.70,239.28 765.50,236.75 767.30,234.21 769.10,231.68 770.90,229.14 772.70,226.61 774.50,224.08 776.30,221.56 778.10,219.05 779.90,216.54 781.70,214.04 783.50,211.55 785.30,209.07 787.10,206.61 788.90,204.16 790.70,201.73 792.50,199.31 794.30,196.91 796.10,194.53 797.90,192.17 799.70,189.83 801.50,187.52 803.30,185.22 805.10,182.95 806.90,180.70 808.70,178.48 810.50,176.29 812.30,174.12 814.10,171.98 815.90,169.86 817.70,167.78 819.50,165.72 821.30,163.70 823.10,161.70 824.90,159.74 826.70,157.80 828.50,155.90 830.30,154.03 832.10,152.18 833.90,150.38 835.70,148.60 837.50,146.85 839.30,145.14 841.10,143.46 842.89,141.81 844.69,140.19 846.49,138.61 848.29,137.05 850.09,135.53 851.89,134.04 853.69,132.58 855.49,131.15 857.29,129.75 859.09,128.39 860.89,127.05 862.69,125.75 864.49,124.47 866.29,123.22 868.09,122.00 869.89,120.81 871.69,119.65 873.49,118.52 875.29,117.41 877.09,116.33 878.89,115.28 880.69,114.25 882.49,113.25 884.29,112.28 886.09,111.33 887.89,110.40 889.69,109.50 891.49,108.62 893.29,107.77 895.09,106.93 896.89,106.12 898.69,105.33 900.49,104.57 902.29,103.82 904.09,103.09 905.89,102.39 907.69,101.70 909.49,101.03 911.29,100.38 913.09,99.75 914.89,99.14 916.69,98.54 918.49,97.96 920.29,97.40 922.09,96.85"/></g><line x1="546.00" y1="64.00" x2="940.00" y2="64.00" stroke="#000000" stroke-width="1"/><line x1="546.00" y1="404.00" x2="940.00" y2="404.00" stroke="#000000" stroke-width="1"/><line x1="546.00" y1="64.00" x2="546.00" y2="404.00" stroke="#000000" stroke-width="1"/><line x1="940.00" y1="64.00" x2="940.00" y2="404.00" stroke="#000000" stroke-width="1"/><line x1="563.91" y1="404.00" x2="563.91" y2="409.00" stroke="#000000"/><text x="563.91" y="420.00" font-size="11" text-anchor="middle">-2</text><line x1="653.45" y1="404.00" x2="653.45" y2="409.00" stroke="#000000"/><text x="653.45" y="420.00" font-size="11" text-anchor="middle">-1</text><line x1="743.00" y1="404.00" x2="743.00" y2="409.00" stroke="#000000"/><text x="743.00" y="420.00" font-size="11" text-anchor="middle">0</text><line x1="832.55" y1="404.00" x2="832.55" y2="409.00" stroke="#000000"/><text x="832.55" y="420.00" font-size="11" text-anchor="middle">1</text><line x1="922.09" y1="404.00" x2="922.09" y2="409.00" stroke="#000000"/><text x="922.09" y="420.00" font-size="11" text-anchor="middle">2</text><line x1="541.00" y1="388.55" x2="546.00" y2="388.55" stroke="#000000"/><text x="538.00" y="392.55" font-size="11" text-anchor="end">0</text><line x1="541.00" y1="234.00" x2="546.00" y2="234.00" stroke="#000000"/><text x="538.00" y="238.00" font-size="11" text-anchor="end">0.5</text><line x1="541.00" y1="79.45" x2="546.00" y2="79.45" stroke="#000000"/><text x="538.00" y="83.45" font-size="11" text-anchor="end">1</text><text x="743.00" y="56.00" font-size="15" font-weight="bold" text-anchor="middle">Logit: outcomes &amp; fitted P(y=1)</text><text x="743.00" y="434.00" font-size="12" text-anchor="middle">x</text><text x="496.00" y="234.00" font-size="12" text-anchor="middle" transform="rotate(-90 496.00 234.00)">y / probability</text><g class="legend"><rect x="554.00" y="72.00" width="123.00" height="44.00" fill="white" fill-opacity="0.85" stroke="#7f7f7f" stroke-width="1"/><rect class="swatch" x="560.00" y="80.00" width="14.00" height="10" fill="#1f77b4"/><text x="580.00" y="89.00" font-size="11" text-anchor="start">observed (0/1)</text><rect class="swatch" x="560.00" y="96.00" width="14.00" height="10" fill="#d62728"/><text x="580.00" y="105.00" font-size="11" text-anchor="start">fitted P(y=1)</text></g></svg>