<svg xmlns="http://www.w3.org/2000/svg" width="760" height="520" viewBox="0 0 760 520" font-family="sans-serif"><rect x="0" y="0" width="760" height="520" fill="#ffffff"/><clipPath id="clip6_6"><rect x="72.00" y="40.00" width="668.00" height="424.00"/></clipPath><line x1="135.64" y1="40.00" x2="135.64" y2="464.00" stroke="#dddddd" stroke-width="1"/><line x1="270.82" y1="40.00" x2="270.82" y2="464.00" stroke="#dddddd" stroke-width="1"/><line x1="406.00" y1="40.00" x2="406.00" y2="464.00" stroke="#dddddd" stroke-width="1"/><line x1="541.18" y1="40.00" x2="541.18" y2="464.00" stroke="#dddddd" stroke-width="1"/><line x1="676.36" y1="40.00" x2="676.36" y2="464.00" stroke="#dddddd" stroke-width="1"/><line x1="72.00" y1="386.14" x2="740.00" y2="386.14" stroke="#dddddd" stroke-width="1"/><line x1="72.00" y1="245.24" x2="740.00" y2="245.24" stroke="#dddddd" stroke-width="1"/><line x1="72.00" y1="104.34" x2="740.00" y2="104.34" stroke="#dddddd" stroke-width="1"/><g clip-path="url(#clip6_6)"><circle cx="102.36" cy="444.73" r="4.00" fill="#1f77b4" fill-opacity="0.850"/><circle cx="140.34" cy="388.69" r="4.00" fill="#1f77b4" fill-opacity="0.850"/><circle cx="164.55" cy="378.22" r="4.00" fill="#1f77b4" fill-opacity="0.850"/><circle cx="182.84" cy="376.32" r="4.00" fill="#1f77b4" fill-opacity="0.850"/><circle cx="197.77" cy="363.46" r="4.00" fill="#1f77b4" fill-opacity="0.850"/><circle cx="210.52" cy="363.29" r="4.00" fill="#1f77b4" fill-opacity="0.850"/><circle cx="221.73" cy="351.27" r="4.00" fill="#1f77b4" fill-opacity="0.850"/><circle cx="231.81" cy="350.91" r="4.00" fill="#1f77b4" fill-opacity="0.850"/><circle cx="241.00" cy="348.40" r="4.00" fill="#1f77b4" fill-opacity="0.850"/><circle cx="249.48" cy="329.60" r="4.00" fill="#1f77b4" fill-opacity="0.850"/><circle cx="257.39" cy="324.20" r="4.00" fill="#1f77b4" fill-opacity="0.850"/><circle cx="264.82" cy="320.09" r="4.00" fill="#1f77b4" fill-opacity="0.850"/><circle cx="271.85" cy="317.07" r="4.00" fill="#1f77b4" fill-opacity="0.850"/><circle cx="278.53" cy="316.68" r="4.00" fill="#1f77b4" fill-opacity="0.850"/><circle cx="284.91" cy="313.18" r="4.00" fill="#1f77b4" fill-opacity="0.850"/><circle cx="291.03" cy="309.05" r="4.00" fill="#1f77b4" fill-opacity="0.850"/><circle cx="296.93" cy="306.07" r="4.00" fill="#1f77b4" fill-opacity="0.850"/><circle cx="302.63" cy="299.68" r="4.00" fill="#1f77b4" fill-opacity="0.850"/><circle cx="308.15" cy="296.21" r="4.00" fill="#1f77b4" fill-opacity="0.850"/><circle cx="313.51" cy="294.11" r="4.00" fill="#1f77b4" fill-opacity="0.850"/><circle cx="318.72" cy="293.72" r="4.00" fill="#1f77b4" fill-opacity="0.850"/><circle cx="323.82" cy="292.61" r="4.00" fill="#1f77b4" fill-opacity="0.850"/><circle cx="328.79" cy="289.33" r="4.00" fill="#1f77b4" fill-opacity="0.850"/><circle cx="333.67" cy="285.41" r="4.00" fill="#1f77b4" fill-opacity="0.850"/><circle cx="338.45" cy="283.81" r="4.00" fill="#1f77b4" fill-opacity="0.850"/><circle cx="343.15" cy="281.67" r="4.00" fill="#1f77b4" fill-opacity="0.850"/><circle cx="347.78" cy="277.94" r="4.00" fill="#1f77b4" fill-opacity="0.850"/><circle cx="352.33" cy="276.49" r="4.00" fill="#1f77b4" fill-opacity="0.850"/><circle cx="356.83" cy="274.76" r="4.00" fill="#1f77b4" fill-opacity="0.850"/><circle cx="361.27" cy="274.04" r="4.00" fill="#1f77b4" fill-opacity="0.850"/><circle cx="365.67" cy="265.79" r="4.00" fill="#1f77b4" fill-opacity="0.850"/><circle cx="370.02" cy="262.32" r="4.00" fill="#1f77b4" fill-opacity="0.850"/><circle cx="374.34" cy="260.97" r="4.00" fill="#1f77b4" fill-opacity="0.850"/><circle cx="378.62" cy="254.82" r="4.00" fill="#1f77b4" fill-opacity="0.850"/><circle cx="382.88" cy="254.75" r="4.00" fill="#1f77b4" fill-opacity="0.850"/><circle cx="387.11" cy="251.03" r="4.00" fill="#1f77b4" fill-opacity="0.850"/><circle cx="391.33" cy="246.32" r="4.00" fill="#1f77b4" fill-opacity="0.850"/><circle cx="395.53" cy="245.47" r="4.00" fill="#1f77b4" fill-opacity="0.850"/><circle cx="399.72" cy="243.93" r="4.00" fill="#1f77b4" fill-opacity="0.850"/><circle cx="403.91" cy="242.41" r="4.00" fill="#1f77b4" fill-opacity="0.850"/><circle cx="408.09" cy="241.76" r="4.00" fill="#1f77b4" fill-opacity="0.850"/><circle cx="412.28" cy="238.17" r="4.00" fill="#1f77b4" fill-opacity="0.850"/><circle cx="416.47" cy="236.67" r="4.00" fill="#1f77b4" fill-opacity="0.850"/><circle cx="420.67" cy="236.35" r="4.00" fill="#1f77b4" fill-opacity="0.850"/><circle cx="424.89" cy="232.51" r="4.00" fill="#1f77b4" fill-opacity="0.850"/><circle cx="429.12" cy="225.60" r="4.00" fill="#1f77b4" fill-opacity="0.850"/><circle cx="433.38" cy="225.29" r="4.00" fill="#1f77b4" fill-opacity="0.850"/><circle cx="437.66" cy="220.47" r="4.00" fill="#1f77b4" fill-opacity="0.850"/><circle cx="441.98" cy="218.69" r="4.00" fill="#1f77b4" fill-opacity="0.850"/><circle cx="446.33" cy="217.03" r="4.00" fill="#1f77b4" fill-opacity="0.850"/><circle cx="450.73" cy="212.44" r="4.00" fill="#1f77b4" fill-opacity="0.850"/><circle cx="455.17" cy="212.36" r="4.00" fill="#1f77b4" fill-opacity="0.850"/><circle cx="459.67" cy="210.71" r="4.00" fill="#1f77b4" fill-opacity="0.850"/><circle cx="464.22" cy="205.09" r="4.00" fill="#1f77b4" fill-opacity="0.850"/><circle cx="468.85" cy="202.76" r="4.00" fill="#1f77b4" fill-opacity="0.850"/><circle cx="473.55" cy="200.15" r="4.00" fill="#1f77b4" fill-opacity="0.850"/><circle cx="478.33" cy="198.89" r="4.00" fill="#1f77b4" fill-opacity="0.850"/><circle cx="483.21" cy="197.34" r="4.00" fill="#1f77b4" fill-opacity="0.850"/><circle cx="488.18" cy="192.60" r="4.00" fill="#1f77b4" fill-opacity="0.850"/><circle cx="493.28" cy="186.83" r="4.00" fill="#1f77b4" fill-opacity="0.850"/><circle cx="498.49" cy="182.89" r="4.00" fill="#1f77b4" fill-opacity="0.850"/><circle cx="503.85" cy="180.17" r="4.00" fill="#1f77b4" fill-opacity="0.850"/><circle cx="509.37" cy="175.20" r="4.00" fill="#1f77b4" fill-opacity="0.850"/><circle cx="515.07" cy="168.69" r="4.00" fill="#1f77b4" fill-opacity="0.850"/><circle cx="520.97" cy="168.01" r="4.00" fill="#1f77b4" fill-opacity="0.850"/><circle cx="527.09" cy="165.18" r="4.00" fill="#1f77b4" fill-opacity="0.850"/><circle cx="533.47" cy="160.89" r="4.00" fill="#1f77b4" fill-opacity="0.850"/><circle cx="540.15" cy="157.80" r="4.00" fill="#1f77b4" fill-opacity="0.850"/><circle cx="547.18" cy="156.64" r="4.00" fill="#1f77b4" fill-opacity="0.850"/><circle cx="554.61" cy="148.35" r="4.00" fill="#1f77b4" fill-opacity="0.850"/><circle cx="562.52" cy="146.47" r="4.00" fill="#1f77b4" fill-opacity="0.850"/><circle cx="571.00" cy="144.87" r="4.00" fill="#1f77b4" fill-opacity="0.850"/><circle cx="580.19" cy="131.41" r="4.00" fill="#1f77b4" fill-opacity="0.850"/><circle cx="590.27" cy="121.66" r="4.00" fill="#1f77b4" fill-opacity="0.850"/><circle cx="601.48" cy="120.54" r="4.00" fill="#1f77b4" fill-opacity="0.850"/><circle cx="614.23" cy="115.78" r="4.00" fill="#1f77b4" fill-opacity="0.850"/><circle cx="629.16" cy="96.57" r="4.00" fill="#1f77b4" fill-opacity="0.850"/><circle cx="647.45" cy="94.53" r="4.00" fill="#1f77b4" fill-opacity="0.850"/><circle cx="671.66" cy="92.56" r="4.00" fill="#1f77b4" fill-opacity="0.850"/><circle cx="709.64" cy="91.30" r="4.00" fill="#1f77b4" fill-opacity="0.850"/><polyline fill="none" stroke="#d62728" stroke-width="2.5" stroke-opacity="1.000" points="102.36,422.73 709.64,59.27"/></g><line x1="72.00" y1="40.00" x2="740.00" y2="40.00" stroke="#000000" stroke-width="1"/><line x1="72.00" y1="464.00" x2="740.00" y2="464.00" stroke="#000000" stroke-width="1"/><line x1="72.00" y1="40.00" x2="72.00" y2="464.00" stroke="#000000" stroke-width="1"/><line x1="740.00" y1="40.00" x2="740.00" y2="464.00" stroke="#000000" stroke-width="1"/><line x1="135.64" y1="464.00" x2="135.64" y2="469.00" stroke="#000000"/><text x="135.64" y="480.00" font-size="11" text-anchor="middle">-2</text><line x1="270.82" y1="464.00" x2="270.82" y2="469.00" stroke="#000000"/><text x="270.82" y="480.00" font-size="11" text-anchor="middle">-1</text><line x1="406.00" y1="464.00" x2="406.00" y2="469.00" stroke="#000000"/><text x="406.00" y="480.00" font-size="11" text-anchor="middle">0</text><line x1="541.18" y1="464.00" x2="541.18" y2="469.00" stroke="#000000"/><text x="541.18" y="480.00" font-size="11" text-anchor="middle">1</text><line x1="676.36" y1="464.00" x2="676.36" y2="469.00" stroke="#000000"/><text x="676.36" y="480.00" font-size="11" text-anchor="middle">2</text><line x1="67.00" y1="386.14" x2="72.00" y2="386.14" stroke="#000000"/><text x="64.00" y="390.14" font-size="11" text-anchor="end">-2</text><line x1="67.00" y1="245.24" x2="72.00" y2="245.24" stroke="#000000"/><text x="64.00" y="249.24" font-size="11" text-anchor="end">0</text><line x1="67.00" y1="104.34" x2="72.00" y2="104.34" stroke="#000000"/><text x="64.00" y="108.34" font-size="11" text-anchor="end">2</text><text x="406.00" y="32.00" font-size="15" font-weight="bold" text-anchor="middle">Normal Q-Q plot</text><text x="406.00" y="494.00" font-size="12" text-anchor="middle">Theoretical quantiles</text><text x="22.00" y="252.00" font-size="12" text-anchor="middle" transform="rotate(-90 22.00 252.00)">Sample quantiles</text><g class="legend"><rect x="80.00" y="48.00" width="149.00" height="44.00" fill="white" fill-opacity="0.85" stroke="#7f7f7f" stroke-width="1"/><rect class="swatch" x="86.00" y="56.00" width="14.00" height="10" fill="#1f77b4"/><text x="106.00" y="65.00" font-size="11" text-anchor="start">sample quantiles</text><rect class="swatch" x="86.00" y="72.00" width="14.00" height="10" fill="#d62728"/><text x="106.00" y="81.00" font-size="11" text-anchor="start">OLS reference line</text></g></svg>