<svg xmlns="http://www.w3.org/2000/svg" width="820" height="560" viewBox="0 0 820 560" font-family="sans-serif"><rect x="0" y="0" width="820" height="560" fill="#ffffff"/><clipPath id="clip6_6"><rect x="72.00" y="40.00" width="728.00" height="464.00"/></clipPath><line x1="105.09" y1="40.00" x2="105.09" y2="504.00" stroke="#dddddd" stroke-width="1"/><line x1="272.64" y1="40.00" x2="272.64" y2="504.00" stroke="#dddddd" stroke-width="1"/><line x1="440.19" y1="40.00" x2="440.19" y2="504.00" stroke="#dddddd" stroke-width="1"/><line x1="607.74" y1="40.00" x2="607.74" y2="504.00" stroke="#dddddd" stroke-width="1"/><line x1="775.29" y1="40.00" x2="775.29" y2="504.00" stroke="#dddddd" stroke-width="1"/><line x1="72.00" y1="492.81" x2="800.00" y2="492.81" stroke="#dddddd" stroke-width="1"/><line x1="72.00" y1="365.07" x2="800.00" y2="365.07" stroke="#dddddd" stroke-width="1"/><line x1="72.00" y1="237.33" x2="800.00" y2="237.33" stroke="#dddddd" stroke-width="1"/><line x1="72.00" y1="109.58" x2="800.00" y2="109.58" stroke="#dddddd" stroke-width="1"/><g clip-path="url(#clip6_6)"><polyline fill="none" stroke="#7f7f7f" stroke-width="2" stroke-opacity="1.000" points="105.09,474.65 758.53,73.61" stroke-dasharray="6 4"/><circle cx="121.85" cy="482.14" r="5.00" fill="#1f77b4" fill-opacity="0.850"/><circle cx="138.60" cy="435.30" r="5.00" fill="#1f77b4" fill-opacity="0.850"/><circle cx="155.36" cy="458.29" r="5.00" fill="#1f77b4" fill-opacity="0.850"/><circle cx="172.11" cy="441.56" r="5.00" fill="#1f77b4" fill-opacity="0.850"/><circle cx="205.62" cy="389.93" r="5.00" fill="#1f77b4" fill-opacity="0.850"/><circle cx="222.38" cy="413.68" r="5.00" fill="#1f77b4" fill-opacity="0.850"/><circle cx="239.13" cy="392.09" r="5.00" fill="#1f77b4" fill-opacity="0.850"/><circle cx="255.88" cy="353.99" r="5.00" fill="#1f77b4" fill-opacity="0.850"/><circle cx="289.39" cy="355.27" r="5.00" fill="#1f77b4" fill-opacity="0.850"/><circle cx="306.15" cy="346.20" r="5.00" fill="#1f77b4" fill-opacity="0.850"/><circle cx="322.90" cy="346.02" r="5.00" fill="#1f77b4" fill-opacity="0.850"/><circle cx="339.66" cy="332.30" r="5.00" fill="#1f77b4" fill-opacity="0.850"/><circle cx="373.17" cy="308.86" r="5.00" fill="#1f77b4" fill-opacity="0.850"/><circle cx="389.92" cy="309.16" r="5.00" fill="#1f77b4" fill-opacity="0.850"/><circle cx="406.68" cy="304.02" r="5.00" fill="#1f77b4" fill-opacity="0.850"/><circle cx="423.43" cy="292.51" r="5.00" fill="#1f77b4" fill-opacity="0.850"/><circle cx="456.94" cy="253.10" r="5.00" fill="#1f77b4" fill-opacity="0.850"/><circle cx="473.70" cy="261.14" r="5.00" fill="#1f77b4" fill-opacity="0.850"/><circle cx="490.45" cy="224.09" r="5.00" fill="#1f77b4" fill-opacity="0.850"/><circle cx="507.21" cy="220.21" r="5.00" fill="#1f77b4" fill-opacity="0.850"/><circle cx="540.72" cy="192.09" r="5.00" fill="#1f77b4" fill-opacity="0.850"/><circle cx="557.47" cy="208.76" r="5.00" fill="#1f77b4" fill-opacity="0.850"/><circle cx="574.23" cy="194.79" r="5.00" fill="#1f77b4" fill-opacity="0.850"/><circle cx="590.98" cy="185.28" r="5.00" fill="#1f77b4" fill-opacity="0.850"/><circle cx="624.49" cy="163.84" r="5.00" fill="#1f77b4" fill-opacity="0.850"/><circle cx="641.25" cy="156.50" r="5.00" fill="#1f77b4" fill-opacity="0.850"/><circle cx="658.00" cy="127.72" r="5.00" fill="#1f77b4" fill-opacity="0.850"/><circle cx="674.76" cy="131.54" r="5.00" fill="#1f77b4" fill-opacity="0.850"/><circle cx="708.27" cy="108.85" r="5.00" fill="#1f77b4" fill-opacity="0.850"/><circle cx="725.02" cy="77.33" r="5.00" fill="#1f77b4" fill-opacity="0.850"/><circle cx="741.78" cy="84.80" r="5.00" fill="#1f77b4" fill-opacity="0.850"/><circle cx="758.53" cy="61.09" r="5.00" fill="#1f77b4" fill-opacity="0.850"/><polygon points="105.09,458.68 112.09,465.68 105.09,472.68 98.09,465.68" fill="#d62728" fill-opacity="0.950"/><polygon points="188.87,414.28 195.87,421.28 188.87,428.28 181.87,421.28" fill="#d62728" fill-opacity="0.950"/><polygon points="272.64,360.08 279.64,367.08 272.64,374.08 265.64,367.08" fill="#d62728" fill-opacity="0.950"/><polygon points="356.41,310.07 363.41,317.07 356.41,324.07 349.41,317.07" fill="#d62728" fill-opacity="0.950"/><polygon points="440.19,249.76 447.19,256.76 440.19,263.76 433.19,256.76" fill="#d62728" fill-opacity="0.950"/><polygon points="523.96,214.31 530.96,221.31 523.96,228.31 516.96,221.31" fill="#d62728" fill-opacity="0.950"/><polygon points="607.74,177.96 614.74,184.96 607.74,191.96 600.74,184.96" fill="#d62728" fill-opacity="0.950"/><polygon points="691.51,109.45 698.51,116.45 691.51,123.45 684.51,116.45" fill="#d62728" fill-opacity="0.950"/><line x1="766.91" y1="482.14" x2="766.91" y2="482.91" stroke="#2ca02c" stroke-width="1.2"/><line x1="762.91" y1="482.14" x2="770.91" y2="482.14" stroke="#2ca02c" stroke-width="1.2"/><line x1="762.91" y1="482.91" x2="770.91" y2="482.91" stroke="#2ca02c" stroke-width="1.2"/><circle cx="766.91" cy="482.53" r="2.50" fill="#2ca02c" fill-opacity="1.000"/><text x="607.74" y="467.20" font-size="12" fill="#2ca02c" text-anchor="middle">b1 = 0.805</text></g><line x1="72.00" y1="40.00" x2="800.00" y2="40.00" stroke="#000000" stroke-width="1"/><line x1="72.00" y1="504.00" x2="800.00" y2="504.00" stroke="#000000" stroke-width="1"/><line x1="72.00" y1="40.00" x2="72.00" y2="504.00" stroke="#000000" stroke-width="1"/><line x1="800.00" y1="40.00" x2="800.00" y2="504.00" stroke="#000000" stroke-width="1"/><line x1="105.09" y1="504.00" x2="105.09" y2="509.00" stroke="#000000"/><text x="105.09" y="520.00" font-size="11" text-anchor="middle">0</text><line x1="272.64" y1="504.00" x2="272.64" y2="509.00" stroke="#000000"/><text x="272.64" y="520.00" font-size="11" text-anchor="middle">10</text><line x1="440.19" y1="504.00" x2="440.19" y2="509.00" stroke="#000000"/><text x="440.19" y="520.00" font-size="11" text-anchor="middle">20</text><line x1="607.74" y1="504.00" x2="607.74" y2="509.00" stroke="#000000"/><text x="607.74" y="520.00" font-size="11" text-anchor="middle">30</text><line x1="775.29" y1="504.00" x2="775.29" y2="509.00" stroke="#000000"/><text x="775.29" y="520.00" font-size="11" text-anchor="middle">40</text><line x1="67.00" y1="492.81" x2="72.00" y2="492.81" stroke="#000000"/><text x="64.00" y="496.81" font-size="11" text-anchor="end">0</text><line x1="67.00" y1="365.07" x2="72.00" y2="365.07" stroke="#000000"/><text x="64.00" y="369.07" font-size="11" text-anchor="end">10</text><line x1="67.00" y1="237.33" x2="72.00" y2="237.33" stroke="#000000"/><text x="64.00" y="241.33" font-size="11" text-anchor="end">20</text><line x1="67.00" y1="109.58" x2="72.00" y2="109.58" stroke="#000000"/><text x="64.00" y="113.58" font-size="11" text-anchor="end">30</text><text x="436.00" y="32.00" font-size="15" font-weight="bold" text-anchor="middle">Multiple imputation: observed vs imputed y, with pooled slope CI</text><text x="436.00" y="534.00" font-size="12" text-anchor="middle">x</text><text x="22.00" y="272.00" font-size="12" text-anchor="middle" transform="rotate(-90 22.00 272.00)">y</text><g class="legend"><rect x="80.00" y="48.00" width="188.00" height="76.00" fill="white" fill-opacity="0.85" stroke="#7f7f7f" stroke-width="1"/><rect class="swatch" x="86.00" y="56.00" width="14.00" height="10" fill="#7f7f7f"/><text x="106.00" y="65.00" font-size="11" text-anchor="start">pooled fit</text><rect class="swatch" x="86.00" y="72.00" width="14.00" height="10" fill="#1f77b4"/><text x="106.00" y="81.00" font-size="11" text-anchor="start">observed</text><rect class="swatch" x="86.00" y="88.00" width="14.00" height="10" fill="#d62728"/><text x="106.00" y="97.00" font-size="11" text-anchor="start">imputed (draw 1)</text><rect class="swatch" x="86.00" y="104.00" width="14.00" height="10" fill="#2ca02c"/><text x="106.00" y="113.00" font-size="11" text-anchor="start">pooled slope b1 (95% CI)</text></g></svg>