<svg xmlns="http://www.w3.org/2000/svg" width="820" height="560" viewBox="0 0 820 560" font-family="sans-serif"><rect x="0" y="0" width="820" height="560" fill="#ffffff"/><clipPath id="clip6_6"><rect x="72.00" y="40.00" width="728.00" height="464.00"/></clipPath><line x1="105.09" y1="40.00" x2="105.09" y2="504.00" stroke="#dddddd" stroke-width="1"/><line x1="436.00" y1="40.00" x2="436.00" y2="504.00" stroke="#dddddd" stroke-width="1"/><line x1="766.91" y1="40.00" x2="766.91" y2="504.00" stroke="#dddddd" stroke-width="1"/><line x1="72.00" y1="480.13" x2="800.00" y2="480.13" stroke="#dddddd" stroke-width="1"/><line x1="72.00" y1="279.36" x2="800.00" y2="279.36" stroke="#dddddd" stroke-width="1"/><line x1="72.00" y1="78.59" x2="800.00" y2="78.59" stroke="#dddddd" stroke-width="1"/><g clip-path="url(#clip6_6)"><circle cx="138.18" cy="361.03" r="5.00" fill="#1f77b4" fill-opacity="0.900"/><circle cx="223.27" cy="381.05" r="5.00" fill="#1f77b4" fill-opacity="0.900"/><circle cx="308.36" cy="322.67" r="5.00" fill="#1f77b4" fill-opacity="0.900"/><circle cx="393.45" cy="235.75" r="5.00" fill="#1f77b4" fill-opacity="0.900"/><circle cx="478.55" cy="214.52" r="5.00" fill="#1f77b4" fill-opacity="0.900"/><circle cx="563.64" cy="195.86" r="5.00" fill="#1f77b4" fill-opacity="0.900"/><circle cx="648.73" cy="159.13" r="5.00" fill="#1f77b4" fill-opacity="0.900"/><circle cx="733.82" cy="137.76" r="5.00" fill="#1f77b4" fill-opacity="0.900"/><polyline fill="none" stroke="#1f77b4" stroke-width="1.8" stroke-opacity="0.900" points="105.09,400.75 766.91,102.38"/><circle cx="138.18" cy="466.62" r="5.00" fill="#ff7f0e" fill-opacity="0.900"/><circle cx="223.27" cy="405.37" r="5.00" fill="#ff7f0e" fill-opacity="0.900"/><circle cx="308.36" cy="383.98" r="5.00" fill="#ff7f0e" fill-opacity="0.900"/><circle cx="393.45" cy="363.46" r="5.00" fill="#ff7f0e" fill-opacity="0.900"/><circle cx="478.55" cy="333.51" r="5.00" fill="#ff7f0e" fill-opacity="0.900"/><circle cx="563.64" cy="292.56" r="5.00" fill="#ff7f0e" fill-opacity="0.900"/><circle cx="648.73" cy="254.79" r="5.00" fill="#ff7f0e" fill-opacity="0.900"/><circle cx="733.82" cy="182.32" r="5.00" fill="#ff7f0e" fill-opacity="0.900"/><polyline fill="none" stroke="#ff7f0e" stroke-width="1.8" stroke-opacity="0.900" points="105.09,482.91 766.91,184.54"/><circle cx="138.18" cy="369.84" r="5.00" fill="#2ca02c" fill-opacity="0.900"/><circle cx="223.27" cy="284.73" r="5.00" fill="#2ca02c" fill-opacity="0.900"/><circle cx="308.36" cy="256.97" r="5.00" fill="#2ca02c" fill-opacity="0.900"/><circle cx="393.45" cy="196.70" r="5.00" fill="#2ca02c" fill-opacity="0.900"/><circle cx="478.55" cy="166.26" r="5.00" fill="#2ca02c" fill-opacity="0.900"/><circle cx="563.64" cy="174.02" r="5.00" fill="#2ca02c" fill-opacity="0.900"/><circle cx="648.73" cy="128.82" r="5.00" fill="#2ca02c" fill-opacity="0.900"/><circle cx="733.82" cy="91.33" r="5.00" fill="#2ca02c" fill-opacity="0.900"/><polyline fill="none" stroke="#2ca02c" stroke-width="1.8" stroke-opacity="0.900" points="105.09,359.46 766.91,61.09"/><circle cx="138.18" cy="452.51" r="5.00" fill="#d62728" fill-opacity="0.900"/><circle cx="223.27" cy="426.29" r="5.00" fill="#d62728" fill-opacity="0.900"/><circle cx="308.36" cy="392.55" r="5.00" fill="#d62728" fill-opacity="0.900"/><circle cx="393.45" cy="321.75" r="5.00" fill="#d62728" fill-opacity="0.900"/><circle cx="478.55" cy="307.30" r="5.00" fill="#d62728" fill-opacity="0.900"/><circle cx="563.64" cy="304.30" r="5.00" fill="#d62728" fill-opacity="0.900"/><circle cx="648.73" cy="225.96" r="5.00" fill="#d62728" fill-opacity="0.900"/><circle cx="733.82" cy="150.42" r="5.00" fill="#d62728" fill-opacity="0.900"/><polyline fill="none" stroke="#d62728" stroke-width="1.8" stroke-opacity="0.900" points="105.09,470.55 766.91,172.18"/><circle cx="138.18" cy="431.58" r="5.00" fill="#9467bd" fill-opacity="0.900"/><circle cx="223.27" cy="369.54" r="5.00" fill="#9467bd" fill-opacity="0.900"/><circle cx="308.36" cy="338.53" r="5.00" fill="#9467bd" fill-opacity="0.900"/><circle cx="393.45" cy="312.32" r="5.00" fill="#9467bd" fill-opacity="0.900"/><circle cx="478.55" cy="268.75" r="5.00" fill="#9467bd" fill-opacity="0.900"/><circle cx="563.64" cy="232.62" r="5.00" fill="#9467bd" fill-opacity="0.900"/><circle cx="648.73" cy="178.20" r="5.00" fill="#9467bd" fill-opacity="0.900"/><circle cx="733.82" cy="167.88" r="5.00" fill="#9467bd" fill-opacity="0.900"/><polyline fill="none" stroke="#9467bd" stroke-width="1.8" stroke-opacity="0.900" points="105.09,436.25 766.91,137.89"/><circle cx="138.18" cy="400.99" r="5.00" fill="#8c564b" fill-opacity="0.900"/><circle cx="223.27" cy="332.04" r="5.00" fill="#8c564b" fill-opacity="0.900"/><circle cx="308.36" cy="272.00" r="5.00" fill="#8c564b" fill-opacity="0.900"/><circle cx="393.45" cy="253.41" r="5.00" fill="#8c564b" fill-opacity="0.900"/><circle cx="478.55" cy="275.41" r="5.00" fill="#8c564b" fill-opacity="0.900"/><circle cx="563.64" cy="184.40" r="5.00" fill="#8c564b" fill-opacity="0.900"/><circle cx="648.73" cy="94.85" r="5.00" fill="#8c564b" fill-opacity="0.900"/><circle cx="733.82" cy="84.13" r="5.00" fill="#8c564b" fill-opacity="0.900"/><polyline fill="none" stroke="#8c564b" stroke-width="1.8" stroke-opacity="0.900" points="105.09,387.29 766.91,88.92"/><polyline fill="none" stroke="#000000" stroke-width="2.8" stroke-opacity="1.000" points="105.09,422.87 766.91,124.50" stroke-dasharray="6 4"/></g><line x1="72.00" y1="40.00" x2="800.00" y2="40.00" stroke="#000000" stroke-width="1"/><line x1="72.00" y1="504.00" x2="800.00" y2="504.00" stroke="#000000" stroke-width="1"/><line x1="72.00" y1="40.00" x2="72.00" y2="504.00" stroke="#000000" stroke-width="1"/><line x1="800.00" y1="40.00" x2="800.00" y2="504.00" stroke="#000000" stroke-width="1"/><line x1="105.09" y1="504.00" x2="105.09" y2="509.00" stroke="#000000"/><text x="105.09" y="520.00" font-size="11" text-anchor="middle">0</text><line x1="436.00" y1="504.00" x2="436.00" y2="509.00" stroke="#000000"/><text x="436.00" y="520.00" font-size="11" text-anchor="middle">5</text><line x1="766.91" y1="504.00" x2="766.91" y2="509.00" stroke="#000000"/><text x="766.91" y="520.00" font-size="11" text-anchor="middle">10</text><line x1="67.00" y1="480.13" x2="72.00" y2="480.13" stroke="#000000"/><text x="64.00" y="484.13" font-size="11" text-anchor="end">0</text><line x1="67.00" y1="279.36" x2="72.00" y2="279.36" stroke="#000000"/><text x="64.00" y="283.36" font-size="11" text-anchor="end">10</text><line x1="67.00" y1="78.59" x2="72.00" y2="78.59" stroke="#000000"/><text x="64.00" y="82.59" font-size="11" text-anchor="end">20</text><text x="436.00" y="32.00" font-size="15" font-weight="bold" text-anchor="middle">Random-intercept mixed model: partial pooling across groups</text><text x="436.00" y="534.00" font-size="12" text-anchor="middle">x</text><text x="22.00" y="272.00" font-size="12" text-anchor="middle" transform="rotate(-90 22.00 272.00)">y</text><g class="legend"><rect x="80.00" y="48.00" width="175.00" height="124.00" fill="white" fill-opacity="0.85" stroke="#7f7f7f" stroke-width="1"/><rect class="swatch" x="86.00" y="56.00" width="14.00" height="10" fill="#1f77b4"/><text x="106.00" y="65.00" font-size="11" text-anchor="start">group 0</text><rect class="swatch" x="86.00" y="72.00" width="14.00" height="10" fill="#ff7f0e"/><text x="106.00" y="81.00" font-size="11" text-anchor="start">group 1</text><rect class="swatch" x="86.00" y="88.00" width="14.00" height="10" fill="#2ca02c"/><text x="106.00" y="97.00" font-size="11" text-anchor="start">group 2</text><rect class="swatch" x="86.00" y="104.00" width="14.00" height="10" fill="#d62728"/><text x="106.00" y="113.00" font-size="11" text-anchor="start">group 3</text><rect class="swatch" x="86.00" y="120.00" width="14.00" height="10" fill="#9467bd"/><text x="106.00" y="129.00" font-size="11" text-anchor="start">group 4</text><rect class="swatch" x="86.00" y="136.00" width="14.00" height="10" fill="#8c564b"/><text x="106.00" y="145.00" font-size="11" text-anchor="start">group 5</text><rect class="swatch" x="86.00" y="152.00" width="14.00" height="10" fill="#000000"/><text x="106.00" y="161.00" font-size="11" text-anchor="start">population (fixed) fit</text></g></svg>