<svg xmlns="http://www.w3.org/2000/svg" width="760" height="520" viewBox="0 0 760 520" font-family="sans-serif"><rect x="0" y="0" width="760" height="520" fill="#ffffff"/><clipPath id="clip6_6"><rect x="72.00" y="40.00" width="668.00" height="424.00"/></clipPath><line x1="102.36" y1="40.00" x2="102.36" y2="464.00" stroke="#dddddd" stroke-width="1"/><line x1="350.23" y1="40.00" x2="350.23" y2="464.00" stroke="#dddddd" stroke-width="1"/><line x1="598.10" y1="40.00" x2="598.10" y2="464.00" stroke="#dddddd" stroke-width="1"/><line x1="72.00" y1="455.63" x2="740.00" y2="455.63" stroke="#dddddd" stroke-width="1"/><line x1="72.00" y1="308.80" x2="740.00" y2="308.80" stroke="#dddddd" stroke-width="1"/><line x1="72.00" y1="161.98" x2="740.00" y2="161.98" stroke="#dddddd" stroke-width="1"/><g clip-path="url(#clip6_6)"><circle cx="102.36" cy="424.04" r="4.00" fill="#1f77b4" fill-opacity="0.850"/><circle cx="114.76" cy="444.73" r="4.00" fill="#1f77b4" fill-opacity="0.850"/><circle cx="127.15" cy="386.88" r="4.00" fill="#1f77b4" fill-opacity="0.850"/><circle cx="139.54" cy="425.34" r="4.00" fill="#1f77b4" fill-opacity="0.850"/><circle cx="151.94" cy="409.03" r="4.00" fill="#1f77b4" fill-opacity="0.850"/><circle cx="164.33" cy="373.29" r="4.00" fill="#1f77b4" fill-opacity="0.850"/><circle cx="176.72" cy="351.31" r="4.00" fill="#1f77b4" fill-opacity="0.850"/><circle cx="189.12" cy="390.84" r="4.00" fill="#1f77b4" fill-opacity="0.850"/><circle cx="201.51" cy="367.81" r="4.00" fill="#1f77b4" fill-opacity="0.850"/><circle cx="213.90" cy="322.01" r="4.00" fill="#1f77b4" fill-opacity="0.850"/><circle cx="226.30" cy="328.62" r="4.00" fill="#1f77b4" fill-opacity="0.850"/><circle cx="238.69" cy="337.29" r="4.00" fill="#1f77b4" fill-opacity="0.850"/><circle cx="251.08" cy="331.53" r="4.00" fill="#1f77b4" fill-opacity="0.850"/><circle cx="263.48" cy="338.03" r="4.00" fill="#1f77b4" fill-opacity="0.850"/><circle cx="275.87" cy="325.87" r="4.00" fill="#1f77b4" fill-opacity="0.850"/><circle cx="288.26" cy="300.55" r="4.00" fill="#1f77b4" fill-opacity="0.850"/><circle cx="300.66" cy="307.04" r="4.00" fill="#1f77b4" fill-opacity="0.850"/><circle cx="313.05" cy="314.21" r="4.00" fill="#1f77b4" fill-opacity="0.850"/><circle cx="325.44" cy="313.87" r="4.00" fill="#1f77b4" fill-opacity="0.850"/><circle cx="337.84" cy="304.75" r="4.00" fill="#1f77b4" fill-opacity="0.850"/><circle cx="350.23" cy="298.16" r="4.00" fill="#1f77b4" fill-opacity="0.850"/><circle cx="362.62" cy="263.90" r="4.00" fill="#1f77b4" fill-opacity="0.850"/><circle cx="375.02" cy="281.75" r="4.00" fill="#1f77b4" fill-opacity="0.850"/><circle cx="387.41" cy="237.39" r="4.00" fill="#1f77b4" fill-opacity="0.850"/><circle cx="399.80" cy="238.80" r="4.00" fill="#1f77b4" fill-opacity="0.850"/><circle cx="412.20" cy="214.26" r="4.00" fill="#1f77b4" fill-opacity="0.850"/><circle cx="424.59" cy="213.52" r="4.00" fill="#1f77b4" fill-opacity="0.850"/><circle cx="436.98" cy="243.26" r="4.00" fill="#1f77b4" fill-opacity="0.850"/><circle cx="449.38" cy="230.76" r="4.00" fill="#1f77b4" fill-opacity="0.850"/><circle cx="461.77" cy="224.39" r="4.00" fill="#1f77b4" fill-opacity="0.850"/><circle cx="474.16" cy="205.70" r="4.00" fill="#1f77b4" fill-opacity="0.850"/><circle cx="486.56" cy="208.33" r="4.00" fill="#1f77b4" fill-opacity="0.850"/><circle cx="498.95" cy="204.96" r="4.00" fill="#1f77b4" fill-opacity="0.850"/><circle cx="511.34" cy="172.02" r="4.00" fill="#1f77b4" fill-opacity="0.850"/><circle cx="523.74" cy="184.04" r="4.00" fill="#1f77b4" fill-opacity="0.850"/><circle cx="536.13" cy="205.20" r="4.00" fill="#1f77b4" fill-opacity="0.850"/><circle cx="548.52" cy="166.25" r="4.00" fill="#1f77b4" fill-opacity="0.850"/><circle cx="560.92" cy="129.53" r="4.00" fill="#1f77b4" fill-opacity="0.850"/><circle cx="573.31" cy="146.59" r="4.00" fill="#1f77b4" fill-opacity="0.850"/><circle cx="585.70" cy="120.64" r="4.00" fill="#1f77b4" fill-opacity="0.850"/><circle cx="598.10" cy="119.45" r="4.00" fill="#1f77b4" fill-opacity="0.850"/><circle cx="610.49" cy="122.09" r="4.00" fill="#1f77b4" fill-opacity="0.850"/><circle cx="622.88" cy="110.87" r="4.00" fill="#1f77b4" fill-opacity="0.850"/><circle cx="635.28" cy="105.60" r="4.00" fill="#1f77b4" fill-opacity="0.850"/><circle cx="647.67" cy="85.73" r="4.00" fill="#1f77b4" fill-opacity="0.850"/><circle cx="660.06" cy="101.05" r="4.00" fill="#1f77b4" fill-opacity="0.850"/><circle cx="672.46" cy="115.08" r="4.00" fill="#1f77b4" fill-opacity="0.850"/><circle cx="684.85" cy="83.62" r="4.00" fill="#1f77b4" fill-opacity="0.850"/><circle cx="697.24" cy="59.27" r="4.00" fill="#1f77b4" fill-opacity="0.850"/><circle cx="709.64" cy="67.99" r="4.00" fill="#1f77b4" fill-opacity="0.850"/><polyline fill="none" stroke="#d62728" stroke-width="2.5" stroke-opacity="1.000" points="102.36,424.18 709.64,66.11"/></g><line x1="72.00" y1="40.00" x2="740.00" y2="40.00" stroke="#000000" stroke-width="1"/><line x1="72.00" y1="464.00" x2="740.00" y2="464.00" stroke="#000000" stroke-width="1"/><line x1="72.00" y1="40.00" x2="72.00" y2="464.00" stroke="#000000" stroke-width="1"/><line x1="740.00" y1="40.00" x2="740.00" y2="464.00" stroke="#000000" stroke-width="1"/><line x1="102.36" y1="464.00" x2="102.36" y2="469.00" stroke="#000000"/><text x="102.36" y="480.00" font-size="11" text-anchor="middle">0</text><line x1="350.23" y1="464.00" x2="350.23" y2="469.00" stroke="#000000"/><text x="350.23" y="480.00" font-size="11" text-anchor="middle">20</text><line x1="598.10" y1="464.00" x2="598.10" y2="469.00" stroke="#000000"/><text x="598.10" y="480.00" font-size="11" text-anchor="middle">40</text><line x1="67.00" y1="455.63" x2="72.00" y2="455.63" stroke="#000000"/><text x="64.00" y="459.63" font-size="11" text-anchor="end">0</text><line x1="67.00" y1="308.80" x2="72.00" y2="308.80" stroke="#000000"/><text x="64.00" y="312.80" font-size="11" text-anchor="end">10</text><line x1="67.00" y1="161.98" x2="72.00" y2="161.98" stroke="#000000"/><text x="64.00" y="165.98" font-size="11" text-anchor="end">20</text><text x="406.00" y="32.00" font-size="15" font-weight="bold" text-anchor="middle">OLS fit: y = b0 + b1 x</text><text x="406.00" y="494.00" font-size="12" text-anchor="middle">x</text><text x="22.00" y="252.00" font-size="12" text-anchor="middle" transform="rotate(-90 22.00 252.00)">y</text><g class="legend"><rect x="80.00" y="48.00" width="84.00" height="44.00" fill="white" fill-opacity="0.85" stroke="#7f7f7f" stroke-width="1"/><rect class="swatch" x="86.00" y="56.00" width="14.00" height="10" fill="#1f77b4"/><text x="106.00" y="65.00" font-size="11" text-anchor="start">observed</text><rect class="swatch" x="86.00" y="72.00" width="14.00" height="10" fill="#d62728"/><text x="106.00" y="81.00" font-size="11" text-anchor="start">OLS fit</text></g></svg>