<svg xmlns="http://www.w3.org/2000/svg" width="760" height="520" viewBox="0 0 760 520" font-family="sans-serif"><rect x="0" y="0" width="760" height="520" fill="#ffffff"/><clipPath id="clip6_6"><rect x="72.00" y="40.00" width="668.00" height="424.00"/></clipPath><line x1="102.36" y1="40.00" x2="102.36" y2="464.00" stroke="#dddddd" stroke-width="1"/><line x1="271.05" y1="40.00" x2="271.05" y2="464.00" stroke="#dddddd" stroke-width="1"/><line x1="439.74" y1="40.00" x2="439.74" y2="464.00" stroke="#dddddd" stroke-width="1"/><line x1="608.42" y1="40.00" x2="608.42" y2="464.00" stroke="#dddddd" stroke-width="1"/><line x1="72.00" y1="464.00" x2="740.00" y2="464.00" stroke="#dddddd" stroke-width="1"/><line x1="72.00" y1="440.92" x2="740.00" y2="440.92" stroke="#dddddd" stroke-width="1"/><line x1="72.00" y1="417.83" x2="740.00" y2="417.83" stroke="#dddddd" stroke-width="1"/><line x1="72.00" y1="394.75" x2="740.00" y2="394.75" stroke="#dddddd" stroke-width="1"/><line x1="72.00" y1="371.66" x2="740.00" y2="371.66" stroke="#dddddd" stroke-width="1"/><line x1="72.00" y1="348.58" x2="740.00" y2="348.58" stroke="#dddddd" stroke-width="1"/><line x1="72.00" y1="325.49" x2="740.00" y2="325.49" stroke="#dddddd" stroke-width="1"/><line x1="72.00" y1="302.41" x2="740.00" y2="302.41" stroke="#dddddd" stroke-width="1"/><line x1="72.00" y1="279.32" x2="740.00" y2="279.32" stroke="#dddddd" stroke-width="1"/><line x1="72.00" y1="256.24" x2="740.00" y2="256.24" stroke="#dddddd" stroke-width="1"/><line x1="72.00" y1="233.15" x2="740.00" y2="233.15" stroke="#dddddd" stroke-width="1"/><line x1="72.00" y1="210.07" x2="740.00" y2="210.07" stroke="#dddddd" stroke-width="1"/><line x1="72.00" y1="186.98" x2="740.00" y2="186.98" stroke="#dddddd" stroke-width="1"/><line x1="72.00" y1="163.90" x2="740.00" y2="163.90" stroke="#dddddd" stroke-width="1"/><line x1="72.00" y1="140.81" x2="740.00" y2="140.81" stroke="#dddddd" stroke-width="1"/><line x1="72.00" y1="117.73" x2="740.00" y2="117.73" stroke="#dddddd" stroke-width="1"/><line x1="72.00" y1="94.64" x2="740.00" y2="94.64" stroke="#dddddd" stroke-width="1"/><line x1="72.00" y1="71.56" x2="740.00" y2="71.56" stroke="#dddddd" stroke-width="1"/><line x1="72.00" y1="48.47" x2="740.00" y2="48.47" stroke="#dddddd" stroke-width="1"/><g clip-path="url(#clip6_6)"><polyline fill="none" stroke="#1f77b4" stroke-width="2" stroke-opacity="0.900" points="102.36,40.00 119.23,56.73 136.10,69.19 152.97,68.09 169.84,63.68 186.71,80.63 203.58,78.15 220.44,71.85 237.31,72.89 254.18,80.66 271.05,75.32 287.92,75.90 304.79,75.98 321.66,74.56 338.53,89.49 355.39,90.44 372.26,74.37 389.13,84.24 406.00,94.50 422.87,73.77 439.74,100.03 456.61,96.43 473.47,77.44 490.34,89.25 507.21,85.46 524.08,89.57 540.95,113.86 557.82,85.07 574.69,109.01 591.56,115.38 608.42,110.90 625.29,139.35 642.16,161.91 659.03,209.06 675.90,258.39 692.77,302.90 709.64,347.23 709.64,347.23 709.64,347.23 709.64,347.23 709.64,347.23"/><circle cx="102.36" cy="40.00" r="3.00" fill="#1f77b4" fill-opacity="0.900"/><circle cx="119.23" cy="56.73" r="3.00" fill="#1f77b4" fill-opacity="0.900"/><circle cx="136.10" cy="69.19" r="3.00" fill="#1f77b4" fill-opacity="0.900"/><circle cx="152.97" cy="68.09" r="3.00" fill="#1f77b4" fill-opacity="0.900"/><circle cx="169.84" cy="63.68" r="3.00" fill="#1f77b4" fill-opacity="0.900"/><circle cx="186.71" cy="80.63" r="3.00" fill="#1f77b4" fill-opacity="0.900"/><circle cx="203.58" cy="78.15" r="3.00" fill="#1f77b4" fill-opacity="0.900"/><circle cx="220.44" cy="71.85" r="3.00" fill="#1f77b4" fill-opacity="0.900"/><circle cx="237.31" cy="72.89" r="3.00" fill="#1f77b4" fill-opacity="0.900"/><circle cx="254.18" cy="80.66" r="3.00" fill="#1f77b4" fill-opacity="0.900"/><circle cx="271.05" cy="75.32" r="3.00" fill="#1f77b4" fill-opacity="0.900"/><circle cx="287.92" cy="75.90" r="3.00" fill="#1f77b4" fill-opacity="0.900"/><circle cx="304.79" cy="75.98" r="3.00" fill="#1f77b4" fill-opacity="0.900"/><circle cx="321.66" cy="74.56" r="3.00" fill="#1f77b4" fill-opacity="0.900"/><circle cx="338.53" cy="89.49" r="3.00" fill="#1f77b4" fill-opacity="0.900"/><circle cx="355.39" cy="90.44" r="3.00" fill="#1f77b4" fill-opacity="0.900"/><circle cx="372.26" cy="74.37" r="3.00" fill="#1f77b4" fill-opacity="0.900"/><circle cx="389.13" cy="84.24" r="3.00" fill="#1f77b4" fill-opacity="0.900"/><circle cx="406.00" cy="94.50" r="3.00" fill="#1f77b4" fill-opacity="0.900"/><circle cx="422.87" cy="73.77" r="3.00" fill="#1f77b4" fill-opacity="0.900"/><circle cx="439.74" cy="100.03" r="3.00" fill="#1f77b4" fill-opacity="0.900"/><circle cx="456.61" cy="96.43" r="3.00" fill="#1f77b4" fill-opacity="0.900"/><circle cx="473.47" cy="77.44" r="3.00" fill="#1f77b4" fill-opacity="0.900"/><circle cx="490.34" cy="89.25" r="3.00" fill="#1f77b4" fill-opacity="0.900"/><circle cx="507.21" cy="85.46" r="3.00" fill="#1f77b4" fill-opacity="0.900"/><circle cx="524.08" cy="89.57" r="3.00" fill="#1f77b4" fill-opacity="0.900"/><circle cx="540.95" cy="113.86" r="3.00" fill="#1f77b4" fill-opacity="0.900"/><circle cx="557.82" cy="85.07" r="3.00" fill="#1f77b4" fill-opacity="0.900"/><circle cx="574.69" cy="109.01" r="3.00" fill="#1f77b4" fill-opacity="0.900"/><circle cx="591.56" cy="115.38" r="3.00" fill="#1f77b4" fill-opacity="0.900"/><circle cx="608.42" cy="110.90" r="3.00" fill="#1f77b4" fill-opacity="0.900"/><circle cx="625.29" cy="139.35" r="3.00" fill="#1f77b4" fill-opacity="0.900"/><circle cx="642.16" cy="161.91" r="3.00" fill="#1f77b4" fill-opacity="0.900"/><circle cx="659.03" cy="209.06" r="3.00" fill="#1f77b4" fill-opacity="0.900"/><circle cx="675.90" cy="258.39" r="3.00" fill="#1f77b4" fill-opacity="0.900"/><circle cx="692.77" cy="302.90" r="3.00" fill="#1f77b4" fill-opacity="0.900"/><circle cx="709.64" cy="347.23" r="3.00" fill="#1f77b4" fill-opacity="0.900"/><circle cx="709.64" cy="347.23" r="3.00" fill="#1f77b4" fill-opacity="0.900"/><circle cx="709.64" cy="347.23" r="3.00" fill="#1f77b4" fill-opacity="0.900"/><circle cx="709.64" cy="347.23" r="3.00" fill="#1f77b4" fill-opacity="0.900"/><circle cx="709.64" cy="347.23" r="3.00" fill="#1f77b4" fill-opacity="0.900"/><polyline fill="none" stroke="#d62728" stroke-width="2" stroke-opacity="0.900" points="102.36,74.84 119.23,464.00 119.23,464.00 119.23,464.00 119.23,464.00 119.23,464.00 119.23,464.00" stroke-dasharray="6 4"/><rect x="99.36" y="71.84" width="6.00" height="6.00" fill="#d62728" fill-opacity="0.900"/><rect x="116.23" y="461.00" width="6.00" height="6.00" fill="#d62728" fill-opacity="0.900"/><rect x="116.23" y="461.00" width="6.00" height="6.00" fill="#d62728" fill-opacity="0.900"/><rect x="116.23" y="461.00" width="6.00" height="6.00" fill="#d62728" fill-opacity="0.900"/><rect x="116.23" y="461.00" width="6.00" height="6.00" fill="#d62728" fill-opacity="0.900"/><rect x="116.23" y="461.00" width="6.00" height="6.00" fill="#d62728" fill-opacity="0.900"/><rect x="116.23" y="461.00" width="6.00" height="6.00" fill="#d62728" fill-opacity="0.900"/></g><line x1="72.00" y1="40.00" x2="740.00" y2="40.00" stroke="#000000" stroke-width="1"/><line x1="72.00" y1="464.00" x2="740.00" y2="464.00" stroke="#000000" stroke-width="1"/><line x1="72.00" y1="40.00" x2="72.00" y2="464.00" stroke="#000000" stroke-width="1"/><line x1="740.00" y1="40.00" x2="740.00" y2="464.00" stroke="#000000" stroke-width="1"/><line x1="102.36" y1="464.00" x2="102.36" y2="469.00" stroke="#000000"/><text x="102.36" y="480.00" font-size="11" text-anchor="middle">0</text><line x1="271.05" y1="464.00" x2="271.05" y2="469.00" stroke="#000000"/><text x="271.05" y="480.00" font-size="11" text-anchor="middle">10</text><line x1="439.74" y1="464.00" x2="439.74" y2="469.00" stroke="#000000"/><text x="439.74" y="480.00" font-size="11" text-anchor="middle">20</text><line x1="608.42" y1="464.00" x2="608.42" y2="469.00" stroke="#000000"/><text x="608.42" y="480.00" font-size="11" text-anchor="middle">30</text><line x1="67.00" y1="464.00" x2="72.00" y2="464.00" stroke="#000000"/><text x="64.00" y="468.00" font-size="11" text-anchor="end">1e-16</text><line x1="67.00" y1="440.92" x2="72.00" y2="440.92" stroke="#000000"/><text x="64.00" y="444.92" font-size="11" text-anchor="end">1e-15</text><line x1="67.00" y1="417.83" x2="72.00" y2="417.83" stroke="#000000"/><text x="64.00" y="421.83" font-size="11" text-anchor="end">1e-14</text><line x1="67.00" y1="394.75" x2="72.00" y2="394.75" stroke="#000000"/><text x="64.00" y="398.75" font-size="11" text-anchor="end">1e-13</text><line x1="67.00" y1="371.66" x2="72.00" y2="371.66" stroke="#000000"/><text x="64.00" y="375.66" font-size="11" text-anchor="end">1e-12</text><line x1="67.00" y1="348.58" x2="72.00" y2="348.58" stroke="#000000"/><text x="64.00" y="352.58" font-size="11" text-anchor="end">1e-11</text><line x1="67.00" y1="325.49" x2="72.00" y2="325.49" stroke="#000000"/><text x="64.00" y="329.49" font-size="11" text-anchor="end">1e-10</text><line x1="67.00" y1="302.41" x2="72.00" y2="302.41" stroke="#000000"/><text x="64.00" y="306.41" font-size="11" text-anchor="end">1e-9</text><line x1="67.00" y1="279.32" x2="72.00" y2="279.32" stroke="#000000"/><text x="64.00" y="283.32" font-size="11" text-anchor="end">1e-8</text><line x1="67.00" y1="256.24" x2="72.00" y2="256.24" stroke="#000000"/><text x="64.00" y="260.24" font-size="11" text-anchor="end">1e-7</text><line x1="67.00" y1="233.15" x2="72.00" y2="233.15" stroke="#000000"/><text x="64.00" y="237.15" font-size="11" text-anchor="end">1e-6</text><line x1="67.00" y1="210.07" x2="72.00" y2="210.07" stroke="#000000"/><text x="64.00" y="214.07" font-size="11" text-anchor="end">1e-5</text><line x1="67.00" y1="186.98" x2="72.00" y2="186.98" stroke="#000000"/><text x="64.00" y="190.98" font-size="11" text-anchor="end">1e-4</text><line x1="67.00" y1="163.90" x2="72.00" y2="163.90" stroke="#000000"/><text x="64.00" y="167.90" font-size="11" text-anchor="end">0.001</text><line x1="67.00" y1="140.81" x2="72.00" y2="140.81" stroke="#000000"/><text x="64.00" y="144.81" font-size="11" text-anchor="end">0.01</text><line x1="67.00" y1="117.73" x2="72.00" y2="117.73" stroke="#000000"/><text x="64.00" y="121.73" font-size="11" text-anchor="end">0.1</text><line x1="67.00" y1="94.64" x2="72.00" y2="94.64" stroke="#000000"/><text x="64.00" y="98.64" font-size="11" text-anchor="end">1</text><line x1="67.00" y1="71.56" x2="72.00" y2="71.56" stroke="#000000"/><text x="64.00" y="75.56" font-size="11" text-anchor="end">10</text><line x1="67.00" y1="48.47" x2="72.00" y2="48.47" stroke="#000000"/><text x="64.00" y="52.47" font-size="11" text-anchor="end">100</text><text x="406.00" y="32.00" font-size="15" font-weight="bold" text-anchor="middle">Optimizer convergence: gradient norm vs iteration</text><text x="406.00" y="494.00" font-size="12" text-anchor="middle">iteration</text><text x="22.00" y="252.00" font-size="12" text-anchor="middle" transform="rotate(-90 22.00 252.00)">gradient norm  (log scale)</text><g class="legend"><rect x="589.50" y="48.00" width="142.50" height="44.00" fill="white" fill-opacity="0.85" stroke="#7f7f7f" stroke-width="1"/><rect class="swatch" x="595.50" y="56.00" width="14.00" height="10" fill="#1f77b4"/><text x="615.50" y="65.00" font-size="11" text-anchor="start">BFGS, Rosenbrock</text><rect class="swatch" x="595.50" y="72.00" width="14.00" height="10" fill="#d62728"/><text x="615.50" y="81.00" font-size="11" text-anchor="start">Newton, quadratic</text></g></svg>