<svg xmlns="http://www.w3.org/2000/svg" width="960" height="460" viewBox="0 0 960 460" font-family="sans-serif"><rect x="0" y="0" width="960" height="460" fill="#ffffff"/><text x="480.00" y="20" font-size="18" font-weight="bold" text-anchor="middle">Principal component analysis</text><clipPath id="clip6_30"><rect x="72.00" y="64.00" width="394.00" height="340.00"/></clipPath><line x1="119.76" y1="64.00" x2="119.76" y2="404.00" stroke="#dddddd" stroke-width="1"/><line x1="219.25" y1="64.00" x2="219.25" y2="404.00" stroke="#dddddd" stroke-width="1"/><line x1="318.75" y1="64.00" x2="318.75" y2="404.00" stroke="#dddddd" stroke-width="1"/><line x1="418.24" y1="64.00" x2="418.24" y2="404.00" stroke="#dddddd" stroke-width="1"/><line x1="72.00" y1="388.55" x2="466.00" y2="388.55" stroke="#dddddd" stroke-width="1"/><line x1="72.00" y1="320.40" x2="466.00" y2="320.40" stroke="#dddddd" stroke-width="1"/><line x1="72.00" y1="252.26" x2="466.00" y2="252.26" stroke="#dddddd" stroke-width="1"/><line x1="72.00" y1="184.11" x2="466.00" y2="184.11" stroke="#dddddd" stroke-width="1"/><line x1="72.00" y1="115.97" x2="466.00" y2="115.97" stroke="#dddddd" stroke-width="1"/><g clip-path="url(#clip6_30)"><rect x="89.91" y="79.45" width="59.70" height="309.09" fill="#1f77b4" fill-opacity="0.850"/><rect x="189.40" y="182.99" width="59.70" height="205.55" fill="#1f77b4" fill-opacity="0.850"/><rect x="288.90" y="280.47" width="59.70" height="108.08" fill="#1f77b4" fill-opacity="0.850"/><rect x="388.39" y="329.83" width="59.70" height="58.71" fill="#1f77b4" fill-opacity="0.850"/></g><line x1="72.00" y1="64.00" x2="466.00" y2="64.00" stroke="#000000" stroke-width="1"/><line x1="72.00" y1="404.00" x2="466.00" y2="404.00" stroke="#000000" stroke-width="1"/><line x1="72.00" y1="64.00" x2="72.00" y2="404.00" stroke="#000000" stroke-width="1"/><line x1="466.00" y1="64.00" x2="466.00" y2="404.00" stroke="#000000" stroke-width="1"/><line x1="119.76" y1="404.00" x2="119.76" y2="409.00" stroke="#000000"/><text x="119.76" y="420.00" font-size="11" text-anchor="middle">1</text><line x1="219.25" y1="404.00" x2="219.25" y2="409.00" stroke="#000000"/><text x="219.25" y="420.00" font-size="11" text-anchor="middle">2</text><line x1="318.75" y1="404.00" x2="318.75" y2="409.00" stroke="#000000"/><text x="318.75" y="420.00" font-size="11" text-anchor="middle">3</text><line x1="418.24" y1="404.00" x2="418.24" y2="409.00" stroke="#000000"/><text x="418.24" y="420.00" font-size="11" text-anchor="middle">4</text><line x1="67.00" y1="388.55" x2="72.00" y2="388.55" stroke="#000000"/><text x="64.00" y="392.55" font-size="11" text-anchor="end">0</text><line x1="67.00" y1="320.40" x2="72.00" y2="320.40" stroke="#000000"/><text x="64.00" y="324.40" font-size="11" text-anchor="end">0.1</text><line x1="67.00" y1="252.26" x2="72.00" y2="252.26" stroke="#000000"/><text x="64.00" y="256.26" font-size="11" text-anchor="end">0.2</text><line x1="67.00" y1="184.11" x2="72.00" y2="184.11" stroke="#000000"/><text x="64.00" y="188.11" font-size="11" text-anchor="end">0.3</text><line x1="67.00" y1="115.97" x2="72.00" y2="115.97" stroke="#000000"/><text x="64.00" y="119.97" font-size="11" text-anchor="end">0.4</text><text x="269.00" y="56.00" font-size="15" font-weight="bold" text-anchor="middle">Scree plot</text><text x="269.00" y="434.00" font-size="12" text-anchor="middle">component</text><text x="22.00" y="234.00" font-size="12" text-anchor="middle" transform="rotate(-90 22.00 234.00)">variance ratio</text><clipPath id="clip480_30"><rect x="546.00" y="64.00" width="394.00" height="340.00"/></clipPath><line x1="553.57" y1="64.00" x2="553.57" y2="404.00" stroke="#dddddd" stroke-width="1"/><line x1="648.46" y1="64.00" x2="648.46" y2="404.00" stroke="#dddddd" stroke-width="1"/><line x1="743.34" y1="64.00" x2="743.34" y2="404.00" stroke="#dddddd" stroke-width="1"/><line x1="838.23" y1="64.00" x2="838.23" y2="404.00" stroke="#dddddd" stroke-width="1"/><line x1="933.12" y1="64.00" x2="933.12" y2="404.00" stroke="#dddddd" stroke-width="1"/><line x1="546.00" y1="356.09" x2="940.00" y2="356.09" stroke="#dddddd" stroke-width="1"/><line x1="546.00" y1="253.19" x2="940.00" y2="253.19" stroke="#dddddd" stroke-width="1"/><line x1="546.00" y1="150.28" x2="940.00" y2="150.28" stroke="#dddddd" stroke-width="1"/><g clip-path="url(#clip480_30)"><circle cx="788.33" cy="130.71" r="4.00" fill="#1f77b4" fill-opacity="0.850"/><circle cx="770.52" cy="133.48" r="4.00" fill="#1f77b4" fill-opacity="0.850"/><circle cx="740.00" cy="152.98" r="4.00" fill="#1f77b4" fill-opacity="0.850"/><circle cx="772.23" cy="176.66" r="4.00" fill="#1f77b4" fill-opacity="0.850"/><circle cx="720.51" cy="135.79" r="4.00" fill="#1f77b4" fill-opacity="0.850"/><circle cx="743.88" cy="103.96" r="4.00" fill="#1f77b4" fill-opacity="0.850"/><circle cx="778.01" cy="141.10" r="4.00" fill="#1f77b4" fill-opacity="0.850"/><circle cx="712.68" cy="149.20" r="4.00" fill="#1f77b4" fill-opacity="0.850"/><circle cx="761.74" cy="148.31" r="4.00" fill="#1f77b4" fill-opacity="0.850"/><circle cx="678.32" cy="154.34" r="4.00" fill="#1f77b4" fill-opacity="0.850"/><circle cx="819.86" cy="133.52" r="4.00" fill="#1f77b4" fill-opacity="0.850"/><circle cx="727.97" cy="99.11" r="4.00" fill="#1f77b4" fill-opacity="0.850"/><circle cx="714.08" cy="175.97" r="4.00" fill="#1f77b4" fill-opacity="0.850"/><circle cx="768.10" cy="150.81" r="4.00" fill="#1f77b4" fill-opacity="0.850"/><circle cx="651.87" cy="109.20" r="4.00" fill="#1f77b4" fill-opacity="0.850"/><circle cx="713.16" cy="146.74" r="4.00" fill="#1f77b4" fill-opacity="0.850"/><circle cx="772.23" cy="175.16" r="4.00" fill="#1f77b4" fill-opacity="0.850"/><circle cx="739.62" cy="184.15" r="4.00" fill="#1f77b4" fill-opacity="0.850"/><circle cx="782.07" cy="182.43" r="4.00" fill="#1f77b4" fill-opacity="0.850"/><circle cx="780.45" cy="171.99" r="4.00" fill="#1f77b4" fill-opacity="0.850"/><circle cx="737.81" cy="193.83" r="4.00" fill="#1f77b4" fill-opacity="0.850"/><circle cx="791.33" cy="187.83" r="4.00" fill="#1f77b4" fill-opacity="0.850"/><circle cx="780.03" cy="143.21" r="4.00" fill="#1f77b4" fill-opacity="0.850"/><circle cx="679.92" cy="92.87" r="4.00" fill="#1f77b4" fill-opacity="0.850"/><circle cx="726.24" cy="103.34" r="4.00" fill="#1f77b4" fill-opacity="0.850"/><circle cx="746.72" cy="127.40" r="4.00" fill="#1f77b4" fill-opacity="0.850"/><circle cx="714.14" cy="169.76" r="4.00" fill="#1f77b4" fill-opacity="0.850"/><circle cx="751.16" cy="159.10" r="4.00" fill="#1f77b4" fill-opacity="0.850"/><circle cx="725.32" cy="140.99" r="4.00" fill="#1f77b4" fill-opacity="0.850"/><circle cx="748.38" cy="151.88" r="4.00" fill="#1f77b4" fill-opacity="0.850"/><circle cx="752.73" cy="115.21" r="4.00" fill="#1f77b4" fill-opacity="0.850"/><circle cx="747.73" cy="119.37" r="4.00" fill="#1f77b4" fill-opacity="0.850"/><circle cx="713.45" cy="134.77" r="4.00" fill="#1f77b4" fill-opacity="0.850"/><circle cx="691.23" cy="118.64" r="4.00" fill="#1f77b4" fill-opacity="0.850"/><circle cx="718.24" cy="175.86" r="4.00" fill="#1f77b4" fill-opacity="0.850"/><circle cx="703.60" cy="124.72" r="4.00" fill="#1f77b4" fill-opacity="0.850"/><circle cx="802.56" cy="125.13" r="4.00" fill="#1f77b4" fill-opacity="0.850"/><circle cx="746.68" cy="165.81" r="4.00" fill="#1f77b4" fill-opacity="0.850"/><circle cx="772.01" cy="143.27" r="4.00" fill="#1f77b4" fill-opacity="0.850"/><circle cx="795.82" cy="165.63" r="4.00" fill="#1f77b4" fill-opacity="0.850"/><circle cx="797.28" cy="186.19" r="4.00" fill="#1f77b4" fill-opacity="0.850"/><circle cx="727.47" cy="111.08" r="4.00" fill="#1f77b4" fill-opacity="0.850"/><circle cx="733.11" cy="125.44" r="4.00" fill="#1f77b4" fill-opacity="0.850"/><circle cx="715.64" cy="144.10" r="4.00" fill="#1f77b4" fill-opacity="0.850"/><circle cx="757.68" cy="118.21" r="4.00" fill="#1f77b4" fill-opacity="0.850"/><circle cx="768.79" cy="141.79" r="4.00" fill="#1f77b4" fill-opacity="0.850"/><circle cx="675.75" cy="128.45" r="4.00" fill="#1f77b4" fill-opacity="0.850"/><circle cx="757.36" cy="131.90" r="4.00" fill="#1f77b4" fill-opacity="0.850"/><circle cx="727.95" cy="79.45" r="4.00" fill="#1f77b4" fill-opacity="0.850"/><circle cx="692.37" cy="97.78" r="4.00" fill="#1f77b4" fill-opacity="0.850"/><circle cx="868.58" cy="253.75" r="4.00" fill="#ff7f0e" fill-opacity="0.850"/><circle cx="873.17" cy="299.59" r="4.00" fill="#ff7f0e" fill-opacity="0.850"/><circle cx="910.04" cy="298.24" r="4.00" fill="#ff7f0e" fill-opacity="0.850"/><circle cx="810.56" cy="350.59" r="4.00" fill="#ff7f0e" fill-opacity="0.850"/><circle cx="861.61" cy="282.37" r="4.00" fill="#ff7f0e" fill-opacity="0.850"/><circle cx="788.64" cy="319.94" r="4.00" fill="#ff7f0e" fill-opacity="0.850"/><circle cx="794.76" cy="242.14" r="4.00" fill="#ff7f0e" fill-opacity="0.850"/><circle cx="866.33" cy="311.72" r="4.00" fill="#ff7f0e" fill-opacity="0.850"/><circle cx="786.40" cy="277.67" r="4.00" fill="#ff7f0e" fill-opacity="0.850"/><circle cx="820.01" cy="228.10" r="4.00" fill="#ff7f0e" fill-opacity="0.850"/><circle cx="823.05" cy="323.22" r="4.00" fill="#ff7f0e" fill-opacity="0.850"/><circle cx="795.57" cy="308.48" r="4.00" fill="#ff7f0e" fill-opacity="0.850"/><circle cx="771.01" cy="294.05" r="4.00" fill="#ff7f0e" fill-opacity="0.850"/><circle cx="909.53" cy="304.85" r="4.00" fill="#ff7f0e" fill-opacity="0.850"/><circle cx="818.74" cy="328.68" r="4.00" fill="#ff7f0e" fill-opacity="0.850"/><circle cx="767.15" cy="244.29" r="4.00" fill="#ff7f0e" fill-opacity="0.850"/><circle cx="891.27" cy="311.24" r="4.00" fill="#ff7f0e" fill-opacity="0.850"/><circle cx="815.90" cy="322.62" r="4.00" fill="#ff7f0e" fill-opacity="0.850"/><circle cx="824.07" cy="321.82" r="4.00" fill="#ff7f0e" fill-opacity="0.850"/><circle cx="846.92" cy="273.01" r="4.00" fill="#ff7f0e" fill-opacity="0.850"/><circle cx="902.67" cy="323.90" r="4.00" fill="#ff7f0e" fill-opacity="0.850"/><circle cx="773.62" cy="264.68" r="4.00" fill="#ff7f0e" fill-opacity="0.850"/><circle cx="811.19" cy="327.07" r="4.00" fill="#ff7f0e" fill-opacity="0.850"/><circle cx="809.91" cy="320.82" r="4.00" fill="#ff7f0e" fill-opacity="0.850"/><circle cx="800.97" cy="323.22" r="4.00" fill="#ff7f0e" fill-opacity="0.850"/><circle cx="848.32" cy="322.33" r="4.00" fill="#ff7f0e" fill-opacity="0.850"/><circle cx="880.91" cy="323.40" r="4.00" fill="#ff7f0e" fill-opacity="0.850"/><circle cx="804.97" cy="317.55" r="4.00" fill="#ff7f0e" fill-opacity="0.850"/><circle cx="780.89" cy="294.07" r="4.00" fill="#ff7f0e" fill-opacity="0.850"/><circle cx="770.72" cy="286.33" r="4.00" fill="#ff7f0e" fill-opacity="0.850"/><circle cx="784.58" cy="291.49" r="4.00" fill="#ff7f0e" fill-opacity="0.850"/><circle cx="851.25" cy="293.12" r="4.00" fill="#ff7f0e" fill-opacity="0.850"/><circle cx="819.80" cy="288.57" r="4.00" fill="#ff7f0e" fill-opacity="0.850"/><circle cx="875.49" cy="279.13" r="4.00" fill="#ff7f0e" fill-opacity="0.850"/><circle cx="922.09" cy="298.57" r="4.00" fill="#ff7f0e" fill-opacity="0.850"/><circle cx="778.54" cy="310.41" r="4.00" fill="#ff7f0e" fill-opacity="0.850"/><circle cx="769.66" cy="314.71" r="4.00" fill="#ff7f0e" fill-opacity="0.850"/><circle cx="867.65" cy="350.62" r="4.00" fill="#ff7f0e" fill-opacity="0.850"/><circle cx="814.40" cy="343.56" r="4.00" fill="#ff7f0e" fill-opacity="0.850"/><circle cx="779.58" cy="312.41" r="4.00" fill="#ff7f0e" fill-opacity="0.850"/><circle cx="841.28" cy="275.29" r="4.00" fill="#ff7f0e" fill-opacity="0.850"/><circle cx="822.31" cy="288.87" r="4.00" fill="#ff7f0e" fill-opacity="0.850"/><circle cx="796.94" cy="312.35" r="4.00" fill="#ff7f0e" fill-opacity="0.850"/><circle cx="842.94" cy="336.33" r="4.00" fill="#ff7f0e" fill-opacity="0.850"/><circle cx="818.74" cy="337.85" r="4.00" fill="#ff7f0e" fill-opacity="0.850"/><circle cx="785.87" cy="290.54" r="4.00" fill="#ff7f0e" fill-opacity="0.850"/><circle cx="829.35" cy="294.26" r="4.00" fill="#ff7f0e" fill-opacity="0.850"/><circle cx="821.67" cy="305.05" r="4.00" fill="#ff7f0e" fill-opacity="0.850"/><circle cx="751.56" cy="312.42" r="4.00" fill="#ff7f0e" fill-opacity="0.850"/><circle cx="807.77" cy="378.56" r="4.00" fill="#ff7f0e" fill-opacity="0.850"/><circle cx="691.64" cy="343.00" r="4.00" fill="#2ca02c" fill-opacity="0.850"/><circle cx="693.51" cy="310.07" r="4.00" fill="#2ca02c" fill-opacity="0.850"/><circle cx="739.97" cy="321.14" r="4.00" fill="#2ca02c" fill-opacity="0.850"/><circle cx="666.07" cy="302.15" r="4.00" fill="#2ca02c" fill-opacity="0.850"/><circle cx="617.57" cy="296.50" r="4.00" fill="#2ca02c" fill-opacity="0.850"/><circle cx="715.23" cy="351.43" r="4.00" fill="#2ca02c" fill-opacity="0.850"/><circle cx="679.74" cy="275.94" r="4.00" fill="#2ca02c" fill-opacity="0.850"/><circle cx="653.22" cy="334.94" r="4.00" fill="#2ca02c" fill-opacity="0.850"/><circle cx="630.22" cy="281.80" r="4.00" fill="#2ca02c" fill-opacity="0.850"/><circle cx="666.59" cy="340.13" r="4.00" fill="#2ca02c" fill-opacity="0.850"/><circle cx="647.99" cy="297.63" r="4.00" fill="#2ca02c" fill-opacity="0.850"/><circle cx="607.15" cy="325.27" r="4.00" fill="#2ca02c" fill-opacity="0.850"/><circle cx="637.63" cy="332.81" r="4.00" fill="#2ca02c" fill-opacity="0.850"/><circle cx="648.44" cy="347.73" r="4.00" fill="#2ca02c" fill-opacity="0.850"/><circle cx="738.70" cy="335.55" r="4.00" fill="#2ca02c" fill-opacity="0.850"/><circle cx="676.29" cy="319.95" r="4.00" fill="#2ca02c" fill-opacity="0.850"/><circle cx="636.85" cy="277.59" r="4.00" fill="#2ca02c" fill-opacity="0.850"/><circle cx="583.98" cy="290.81" r="4.00" fill="#2ca02c" fill-opacity="0.850"/><circle cx="661.94" cy="261.46" r="4.00" fill="#2ca02c" fill-opacity="0.850"/><circle cx="625.93" cy="316.11" r="4.00" fill="#2ca02c" fill-opacity="0.850"/><circle cx="649.73" cy="338.78" r="4.00" fill="#2ca02c" fill-opacity="0.850"/><circle cx="655.69" cy="312.41" r="4.00" fill="#2ca02c" fill-opacity="0.850"/><circle cx="686.18" cy="297.24" r="4.00" fill="#2ca02c" fill-opacity="0.850"/><circle cx="726.69" cy="292.74" r="4.00" fill="#2ca02c" fill-opacity="0.850"/><circle cx="738.13" cy="297.59" r="4.00" fill="#2ca02c" fill-opacity="0.850"/><circle cx="707.51" cy="313.04" r="4.00" fill="#2ca02c" fill-opacity="0.850"/><circle cx="650.73" cy="315.04" r="4.00" fill="#2ca02c" fill-opacity="0.850"/><circle cx="599.10" cy="359.53" r="4.00" fill="#2ca02c" fill-opacity="0.850"/><circle cx="733.14" cy="349.77" r="4.00" fill="#2ca02c" fill-opacity="0.850"/><circle cx="668.37" cy="327.88" r="4.00" fill="#2ca02c" fill-opacity="0.850"/><circle cx="612.51" cy="322.16" r="4.00" fill="#2ca02c" fill-opacity="0.850"/><circle cx="703.19" cy="301.82" r="4.00" fill="#2ca02c" fill-opacity="0.850"/><circle cx="672.47" cy="310.81" r="4.00" fill="#2ca02c" fill-opacity="0.850"/><circle cx="748.99" cy="388.55" r="4.00" fill="#2ca02c" fill-opacity="0.850"/><circle cx="618.04" cy="293.40" r="4.00" fill="#2ca02c" fill-opacity="0.850"/><circle cx="647.15" cy="333.27" r="4.00" fill="#2ca02c" fill-opacity="0.850"/><circle cx="584.45" cy="300.92" r="4.00" fill="#2ca02c" fill-opacity="0.850"/><circle cx="563.91" cy="313.55" r="4.00" fill="#2ca02c" fill-opacity="0.850"/><circle cx="653.10" cy="305.46" r="4.00" fill="#2ca02c" fill-opacity="0.850"/><circle cx="696.00" cy="304.16" r="4.00" fill="#2ca02c" fill-opacity="0.850"/><circle cx="682.46" cy="326.85" r="4.00" fill="#2ca02c" fill-opacity="0.850"/><circle cx="652.65" cy="273.94" r="4.00" fill="#2ca02c" fill-opacity="0.850"/><circle cx="700.34" cy="318.24" r="4.00" fill="#2ca02c" fill-opacity="0.850"/><circle cx="647.91" cy="315.58" r="4.00" fill="#2ca02c" fill-opacity="0.850"/><circle cx="663.91" cy="233.33" r="4.00" fill="#2ca02c" fill-opacity="0.850"/><circle cx="584.93" cy="308.06" r="4.00" fill="#2ca02c" fill-opacity="0.850"/><circle cx="712.72" cy="244.54" r="4.00" fill="#2ca02c" fill-opacity="0.850"/><circle cx="625.84" cy="300.42" r="4.00" fill="#2ca02c" fill-opacity="0.850"/><circle cx="677.92" cy="348.11" r="4.00" fill="#2ca02c" fill-opacity="0.850"/><circle cx="676.01" cy="376.54" r="4.00" fill="#2ca02c" fill-opacity="0.850"/></g><line x1="546.00" y1="64.00" x2="940.00" y2="64.00" stroke="#000000" stroke-width="1"/><line x1="546.00" y1="404.00" x2="940.00" y2="404.00" stroke="#000000" stroke-width="1"/><line x1="546.00" y1="64.00" x2="546.00" y2="404.00" stroke="#000000" stroke-width="1"/><line x1="940.00" y1="64.00" x2="940.00" y2="404.00" stroke="#000000" stroke-width="1"/><line x1="553.57" y1="404.00" x2="553.57" y2="409.00" stroke="#000000"/><text x="553.57" y="420.00" font-size="11" text-anchor="middle">-0.2</text><line x1="648.46" y1="404.00" x2="648.46" y2="409.00" stroke="#000000"/><text x="648.46" y="420.00" font-size="11" text-anchor="middle">-0.1</text><line x1="743.34" y1="404.00" x2="743.34" y2="409.00" stroke="#000000"/><text x="743.34" y="420.00" font-size="11" text-anchor="middle">0</text><line x1="838.23" y1="404.00" x2="838.23" y2="409.00" stroke="#000000"/><text x="838.23" y="420.00" font-size="11" text-anchor="middle">0.1</text><line x1="933.12" y1="404.00" x2="933.12" y2="409.00" stroke="#000000"/><text x="933.12" y="420.00" font-size="11" text-anchor="middle">0.2</text><line x1="541.00" y1="356.09" x2="546.00" y2="356.09" stroke="#000000"/><text x="538.00" y="360.09" font-size="11" text-anchor="end">-0.1</text><line x1="541.00" y1="253.19" x2="546.00" y2="253.19" stroke="#000000"/><text x="538.00" y="257.19" font-size="11" text-anchor="end">0</text><line x1="541.00" y1="150.28" x2="546.00" y2="150.28" stroke="#000000"/><text x="538.00" y="154.28" font-size="11" text-anchor="end">0.1</text><text x="743.00" y="56.00" font-size="15" font-weight="bold" text-anchor="middle">Scores: PC1 vs PC2</text><text x="743.00" y="434.00" font-size="12" text-anchor="middle">PC1</text><text x="496.00" y="234.00" font-size="12" text-anchor="middle" transform="rotate(-90 496.00 234.00)">PC2</text><g class="legend"><rect x="854.50" y="72.00" width="77.50" height="60.00" fill="white" fill-opacity="0.85" stroke="#7f7f7f" stroke-width="1"/><rect class="swatch" x="860.50" y="80.00" width="14.00" height="10" fill="#1f77b4"/><text x="880.50" y="89.00" font-size="11" text-anchor="start">group 1</text><rect class="swatch" x="860.50" y="96.00" width="14.00" height="10" fill="#ff7f0e"/><text x="880.50" y="105.00" font-size="11" text-anchor="start">group 2</text><rect class="swatch" x="860.50" y="112.00" width="14.00" height="10" fill="#2ca02c"/><text x="880.50" y="121.00" font-size="11" text-anchor="start">group 3</text></g></svg>