<svg xmlns="http://www.w3.org/2000/svg" width="820" height="520" viewBox="0 0 820 520" font-family="sans-serif"><rect x="0" y="0" width="820" height="520" fill="#ffffff"/><clipPath id="clip6_6"><rect x="72.00" y="40.00" width="728.00" height="424.00"/></clipPath><line x1="105.09" y1="40.00" x2="105.09" y2="464.00" stroke="#dddddd" stroke-width="1"/><line x1="437.66" y1="40.00" x2="437.66" y2="464.00" stroke="#dddddd" stroke-width="1"/><line x1="770.23" y1="40.00" x2="770.23" y2="464.00" stroke="#dddddd" stroke-width="1"/><line x1="72.00" y1="455.85" x2="800.00" y2="455.85" stroke="#dddddd" stroke-width="1"/><line x1="72.00" y1="252.00" x2="800.00" y2="252.00" stroke="#dddddd" stroke-width="1"/><line x1="72.00" y1="48.15" x2="800.00" y2="48.15" stroke="#dddddd" stroke-width="1"/><g clip-path="url(#clip6_6)"><polyline fill="none" stroke="#7f7f7f" stroke-width="1" stroke-opacity="0.600" points="105.09,455.85 108.42,48.15 111.74,455.85 115.07,455.85 118.39,455.85 121.72,455.85 125.05,455.85 128.37,455.85 131.70,455.85 135.02,455.85 138.35,455.85 141.67,455.85 145.00,455.85 148.33,455.85 151.65,455.85 154.98,455.85 158.30,455.85 161.63,455.85 164.95,455.85 168.28,455.85 171.61,455.85 174.93,455.85 178.26,455.85 181.58,455.85 184.91,455.85 188.23,455.85 191.56,455.85 194.89,455.85 198.21,455.85 201.54,455.85 204.86,455.85 208.19,455.85 211.51,455.85 214.84,455.85 218.17,455.85 221.49,455.85 224.82,455.85 228.14,455.85 231.47,455.85 234.79,455.85 238.12,455.85 241.45,455.85 244.77,455.85 248.10,455.85 251.42,455.85 254.75,455.85 258.07,455.85 261.40,455.85 264.73,455.85 268.05,455.85 271.38,455.85 274.70,455.85 278.03,455.85 281.35,455.85 284.68,455.85 288.01,455.85 291.33,455.85 294.66,455.85 297.98,455.85 301.31,455.85 304.63,455.85 307.96,455.85 311.29,455.85 314.61,455.85 317.94,455.85 321.26,455.85 324.59,455.85 327.91,455.85 331.24,455.85 334.57,455.85 337.89,455.85 341.22,455.85 344.54,455.85 347.87,455.85 351.19,455.85 354.52,455.85 357.85,455.85 361.17,455.85 364.50,455.85 367.82,455.85 371.15,455.85 374.47,455.85 377.80,455.85 381.13,455.85 384.45,455.85 387.78,455.85 391.10,455.85 394.43,455.85 397.75,455.85 401.08,455.85 404.41,455.85 407.73,455.85 411.06,455.85 414.38,455.85 417.71,455.85 421.03,455.85 424.36,455.85 427.69,455.85 431.01,48.15 434.34,48.15 437.66,48.15 440.99,48.15 444.31,48.15 447.64,455.85 450.97,455.85 454.29,455.85 457.62,455.85 460.94,455.85 464.27,455.85 467.59,455.85 470.92,455.85 474.25,455.85 477.57,455.85 480.90,455.85 484.22,455.85 487.55,455.85 490.87,455.85 494.20,455.85 497.53,455.85 500.85,455.85 504.18,455.85 507.50,455.85 510.83,455.85 514.15,455.85 517.48,455.85 520.81,455.85 524.13,455.85 527.46,455.85 530.78,455.85 534.11,455.85 537.43,455.85 540.76,48.15 544.09,48.15 547.41,48.15 550.74,48.15 554.06,455.85 557.39,455.85 560.71,455.85 564.04,455.85 567.37,455.85 570.69,455.85 574.02,455.85 577.34,455.85 580.67,455.85 583.99,455.85 587.32,455.85 590.65,455.85 593.97,455.85 597.30,455.85 600.62,455.85 603.95,455.85 607.27,455.85 610.60,455.85 613.93,455.85 617.25,455.85 620.58,48.15 623.90,48.15 627.23,48.15 630.55,455.85 633.88,455.85 637.21,455.85 640.53,455.85 643.86,455.85 647.18,455.85 650.51,455.85 653.83,455.85 657.16,455.85 660.49,455.85 663.81,455.85 667.14,455.85 670.46,455.85 673.79,455.85 677.11,455.85 680.44,455.85 683.77,455.85 687.09,455.85 690.42,455.85 693.74,455.85 697.07,455.85 700.39,48.15 703.72,48.15 707.05,48.15 710.37,48.15 713.70,48.15 717.02,48.15 720.35,455.85 723.67,455.85 727.00,455.85 730.33,455.85 733.65,455.85 736.98,455.85 740.30,455.85 743.63,455.85 746.95,48.15 750.28,48.15 753.61,455.85 756.93,455.85 760.26,455.85 763.58,455.85 766.91,455.85" stroke-dasharray="6 4"/><polyline fill="none" stroke="#d62728" stroke-width="2" stroke-opacity="1.000" points="105.09,194.51 108.42,97.15 111.74,368.95 115.07,440.73 118.39,455.53 121.72,455.84 125.05,455.84 128.37,455.82 131.70,455.84 135.02,455.79 138.35,455.79 141.67,455.71 145.00,455.27 148.33,455.84 151.65,455.17 154.98,455.76 158.30,455.49 161.63,454.30 164.95,455.74 168.28,455.82 171.61,455.84 174.93,455.84 178.26,455.42 181.58,455.51 184.91,455.34 188.23,455.82 191.56,455.44 194.89,455.72 198.21,455.07 201.54,455.84 204.86,454.15 208.19,412.19 211.51,403.75 214.84,455.31 218.17,451.75 221.49,453.41 224.82,453.11 228.14,454.78 231.47,455.29 234.79,455.73 238.12,454.43 241.45,455.82 244.77,455.47 248.10,455.80 251.42,455.63 254.75,455.84 258.07,455.73 261.40,455.82 264.73,454.04 268.05,455.75 271.38,455.46 274.70,455.74 278.03,455.85 281.35,455.74 284.68,455.78 288.01,424.68 291.33,454.67 294.66,455.33 297.98,444.34 301.31,455.24 304.63,455.15 307.96,429.95 311.29,452.35 314.61,454.59 317.94,455.74 321.26,455.62 324.59,453.79 327.91,444.00 331.24,455.62 334.57,455.82 337.89,455.81 341.22,455.65 344.54,455.42 347.87,454.72 351.19,444.28 354.52,455.48 357.85,454.47 361.17,455.84 364.50,455.84 367.82,453.01 371.15,455.83 374.47,455.74 377.80,455.71 381.13,454.93 384.45,454.53 387.78,455.33 391.10,455.63 394.43,454.65 397.75,455.66 401.08,452.11 404.41,455.78 407.73,454.60 411.06,455.85 414.38,449.61 417.71,455.53 421.03,454.29 424.36,455.68 427.69,442.05 431.01,67.62 434.34,49.46 437.66,48.52 440.99,48.24 444.31,57.71 447.64,455.09 450.97,455.83 454.29,455.55 457.62,455.81 460.94,455.84 464.27,455.51 467.59,455.49 470.92,455.72 474.25,455.83 477.57,455.79 480.90,455.41 484.22,455.64 487.55,455.36 490.87,455.76 494.20,455.80 497.53,455.36 500.85,455.84 504.18,455.81 507.50,455.64 510.83,455.84 514.15,455.79 517.48,455.53 520.81,455.60 524.13,455.84 527.46,455.83 530.78,455.82 534.11,419.37 537.43,446.11 540.76,99.04 544.09,48.26 547.41,48.16 550.74,89.36 554.06,450.02 557.39,454.26 560.71,454.96 564.04,455.31 567.37,455.45 570.69,455.84 574.02,455.82 577.34,455.84 580.67,455.82 583.99,454.54 587.32,455.68 590.65,455.81 593.97,455.84 597.30,455.79 600.62,455.79 603.95,455.84 607.27,455.70 610.60,455.07 613.93,455.70 617.25,455.36 620.58,91.67 623.90,49.00 627.23,288.99 630.55,454.19 633.88,455.85 637.21,455.34 640.53,455.77 643.86,454.82 647.18,455.84 650.51,455.63 653.83,455.63 657.16,455.57 660.49,455.44 663.81,455.55 667.14,455.71 670.46,455.54 673.79,455.65 677.11,455.72 680.44,455.84 683.77,455.33 687.09,454.21 690.42,431.39 693.74,408.32 697.07,308.53 700.39,48.19 703.72,48.17 707.05,76.32 710.37,48.16 713.70,49.13 717.02,51.20 720.35,285.12 723.67,442.39 727.00,454.56 730.33,455.79 733.65,455.48 736.98,455.68 740.30,455.78 743.63,445.67 746.95,50.00 750.28,48.15 753.61,54.39 756.93,455.83 760.26,455.81 763.58,455.72 766.91,455.49"/></g><line x1="72.00" y1="40.00" x2="800.00" y2="40.00" stroke="#000000" stroke-width="1"/><line x1="72.00" y1="464.00" x2="800.00" y2="464.00" stroke="#000000" stroke-width="1"/><line x1="72.00" y1="40.00" x2="72.00" y2="464.00" stroke="#000000" stroke-width="1"/><line x1="800.00" y1="40.00" x2="800.00" y2="464.00" stroke="#000000" stroke-width="1"/><line x1="105.09" y1="464.00" x2="105.09" y2="469.00" stroke="#000000"/><text x="105.09" y="480.00" font-size="11" text-anchor="middle">0</text><line x1="437.66" y1="464.00" x2="437.66" y2="469.00" stroke="#000000"/><text x="437.66" y="480.00" font-size="11" text-anchor="middle">100</text><line x1="770.23" y1="464.00" x2="770.23" y2="469.00" stroke="#000000"/><text x="770.23" y="480.00" font-size="11" text-anchor="middle">200</text><line x1="67.00" y1="455.85" x2="72.00" y2="455.85" stroke="#000000"/><text x="64.00" y="459.85" font-size="11" text-anchor="end">0</text><line x1="67.00" y1="252.00" x2="72.00" y2="252.00" stroke="#000000"/><text x="64.00" y="256.00" font-size="11" text-anchor="end">0.5</text><line x1="67.00" y1="48.15" x2="72.00" y2="48.15" stroke="#000000"/><text x="64.00" y="52.15" font-size="11" text-anchor="end">1</text><text x="436.00" y="32.00" font-size="15" font-weight="bold" text-anchor="middle">Markov switching: smoothed Pr(regime 1)</text><text x="436.00" y="494.00" font-size="12" text-anchor="middle">t</text><text x="22.00" y="252.00" font-size="12" text-anchor="middle" transform="rotate(-90 22.00 252.00)">Pr(S_t = 1 | Y)</text><g class="legend"><rect x="623.50" y="48.00" width="168.50" height="44.00" fill="white" fill-opacity="0.85" stroke="#7f7f7f" stroke-width="1"/><rect class="swatch" x="629.50" y="56.00" width="14.00" height="10" fill="#7f7f7f"/><text x="649.50" y="65.00" font-size="11" text-anchor="start">true regime</text><rect class="swatch" x="629.50" y="72.00" width="14.00" height="10" fill="#d62728"/><text x="649.50" y="81.00" font-size="11" text-anchor="start">smoothed Pr(regime 1)</text></g></svg>