<svg xmlns="http://www.w3.org/2000/svg" width="760" height="520" viewBox="0 0 760 520" font-family="sans-serif"><rect x="0" y="0" width="760" height="520" fill="#ffffff"/><clipPath id="clip6_6"><rect x="72.00" y="40.00" width="668.00" height="424.00"/></clipPath><line x1="102.36" y1="40.00" x2="102.36" y2="464.00" stroke="#dddddd" stroke-width="1"/><line x1="413.79" y1="40.00" x2="413.79" y2="464.00" stroke="#dddddd" stroke-width="1"/><line x1="725.21" y1="40.00" x2="725.21" y2="464.00" stroke="#dddddd" stroke-width="1"/><line x1="72.00" y1="459.15" x2="740.00" y2="459.15" stroke="#dddddd" stroke-width="1"/><line x1="72.00" y1="329.71" x2="740.00" y2="329.71" stroke="#dddddd" stroke-width="1"/><line x1="72.00" y1="200.28" x2="740.00" y2="200.28" stroke="#dddddd" stroke-width="1"/><line x1="72.00" y1="70.85" x2="740.00" y2="70.85" stroke="#dddddd" stroke-width="1"/><g clip-path="url(#clip6_6)"><circle cx="102.36" cy="441.20" r="4.00" fill="#1f77b4" fill-opacity="0.800"/><circle cx="117.93" cy="441.03" r="4.00" fill="#1f77b4" fill-opacity="0.800"/><circle cx="133.51" cy="444.73" r="4.00" fill="#1f77b4" fill-opacity="0.800"/><circle cx="149.08" cy="422.19" r="4.00" fill="#1f77b4" fill-opacity="0.800"/><circle cx="164.65" cy="419.60" r="4.00" fill="#1f77b4" fill-opacity="0.800"/><circle cx="195.79" cy="412.84" r="4.00" fill="#1f77b4" fill-opacity="0.800"/><circle cx="211.36" cy="398.89" r="4.00" fill="#1f77b4" fill-opacity="0.800"/><circle cx="226.93" cy="386.72" r="4.00" fill="#1f77b4" fill-opacity="0.800"/><circle cx="242.50" cy="387.11" r="4.00" fill="#1f77b4" fill-opacity="0.800"/><circle cx="258.07" cy="383.67" r="4.00" fill="#1f77b4" fill-opacity="0.800"/><circle cx="273.65" cy="386.72" r="4.00" fill="#1f77b4" fill-opacity="0.800"/><circle cx="304.79" cy="355.30" r="4.00" fill="#1f77b4" fill-opacity="0.800"/><circle cx="320.36" cy="355.45" r="4.00" fill="#1f77b4" fill-opacity="0.800"/><circle cx="335.93" cy="350.84" r="4.00" fill="#1f77b4" fill-opacity="0.800"/><circle cx="351.50" cy="344.95" r="4.00" fill="#1f77b4" fill-opacity="0.800"/><circle cx="367.07" cy="345.98" r="4.00" fill="#1f77b4" fill-opacity="0.800"/><circle cx="382.64" cy="323.12" r="4.00" fill="#1f77b4" fill-opacity="0.800"/><circle cx="398.21" cy="338.33" r="4.00" fill="#1f77b4" fill-opacity="0.800"/><circle cx="413.79" cy="320.30" r="4.00" fill="#1f77b4" fill-opacity="0.800"/><circle cx="429.36" cy="304.71" r="4.00" fill="#1f77b4" fill-opacity="0.800"/><circle cx="444.93" cy="301.04" r="4.00" fill="#1f77b4" fill-opacity="0.800"/><circle cx="460.50" cy="299.18" r="4.00" fill="#1f77b4" fill-opacity="0.800"/><circle cx="476.07" cy="289.22" r="4.00" fill="#1f77b4" fill-opacity="0.800"/><circle cx="491.64" cy="267.37" r="4.00" fill="#1f77b4" fill-opacity="0.800"/><circle cx="507.21" cy="274.86" r="4.00" fill="#1f77b4" fill-opacity="0.800"/><circle cx="538.35" cy="274.37" r="4.00" fill="#1f77b4" fill-opacity="0.800"/><circle cx="553.93" cy="256.67" r="4.00" fill="#1f77b4" fill-opacity="0.800"/><circle cx="569.50" cy="245.75" r="4.00" fill="#1f77b4" fill-opacity="0.800"/><circle cx="585.07" cy="250.14" r="4.00" fill="#1f77b4" fill-opacity="0.800"/><circle cx="600.64" cy="228.90" r="4.00" fill="#1f77b4" fill-opacity="0.800"/><circle cx="631.78" cy="226.96" r="4.00" fill="#1f77b4" fill-opacity="0.800"/><circle cx="647.35" cy="222.77" r="4.00" fill="#1f77b4" fill-opacity="0.800"/><circle cx="662.92" cy="210.21" r="4.00" fill="#1f77b4" fill-opacity="0.800"/><circle cx="678.49" cy="213.23" r="4.00" fill="#1f77b4" fill-opacity="0.800"/><circle cx="694.07" cy="214.03" r="4.00" fill="#1f77b4" fill-opacity="0.800"/><circle cx="709.64" cy="195.76" r="4.00" fill="#1f77b4" fill-opacity="0.800"/><line x1="174.22" y1="217.26" x2="186.22" y2="229.26" stroke="#d62728" stroke-width="3.60"/><line x1="174.22" y1="229.26" x2="186.22" y2="217.26" stroke="#d62728" stroke-width="3.60"/><line x1="283.22" y1="173.05" x2="295.22" y2="185.05" stroke="#d62728" stroke-width="3.60"/><line x1="283.22" y1="185.05" x2="295.22" y2="173.05" stroke="#d62728" stroke-width="3.60"/><line x1="516.78" y1="84.63" x2="528.78" y2="96.63" stroke="#d62728" stroke-width="3.60"/><line x1="516.78" y1="96.63" x2="528.78" y2="84.63" stroke="#d62728" stroke-width="3.60"/><line x1="610.21" y1="53.27" x2="622.21" y2="65.27" stroke="#d62728" stroke-width="3.60"/><line x1="610.21" y1="65.27" x2="622.21" y2="53.27" stroke="#d62728" stroke-width="3.60"/><polyline fill="none" stroke="#ff7f0e" stroke-width="2.5" stroke-opacity="1.000" points="102.36,426.19 709.64,178.12" stroke-dasharray="6 4"/><polyline fill="none" stroke="#d62728" stroke-width="2.5" stroke-opacity="1.000" points="102.36,444.69 709.64,193.68"/></g><line x1="72.00" y1="40.00" x2="740.00" y2="40.00" stroke="#000000" stroke-width="1"/><line x1="72.00" y1="464.00" x2="740.00" y2="464.00" stroke="#000000" stroke-width="1"/><line x1="72.00" y1="40.00" x2="72.00" y2="464.00" stroke="#000000" stroke-width="1"/><line x1="740.00" y1="40.00" x2="740.00" y2="464.00" stroke="#000000" stroke-width="1"/><line x1="102.36" y1="464.00" x2="102.36" y2="469.00" stroke="#000000"/><text x="102.36" y="480.00" font-size="11" text-anchor="middle">0</text><line x1="413.79" y1="464.00" x2="413.79" y2="469.00" stroke="#000000"/><text x="413.79" y="480.00" font-size="11" text-anchor="middle">5</text><line x1="725.21" y1="464.00" x2="725.21" y2="469.00" stroke="#000000"/><text x="725.21" y="480.00" font-size="11" text-anchor="middle">10</text><line x1="67.00" y1="459.15" x2="72.00" y2="459.15" stroke="#000000"/><text x="64.00" y="463.15" font-size="11" text-anchor="end">0</text><line x1="67.00" y1="329.71" x2="72.00" y2="329.71" stroke="#000000"/><text x="64.00" y="333.71" font-size="11" text-anchor="end">10</text><line x1="67.00" y1="200.28" x2="72.00" y2="200.28" stroke="#000000"/><text x="64.00" y="204.28" font-size="11" text-anchor="end">20</text><line x1="67.00" y1="70.85" x2="72.00" y2="70.85" stroke="#000000"/><text x="64.00" y="74.85" font-size="11" text-anchor="end">30</text><text x="406.00" y="32.00" font-size="15" font-weight="bold" text-anchor="middle">Robust regression resists outliers</text><text x="406.00" y="494.00" font-size="12" text-anchor="middle">x</text><text x="22.00" y="252.00" font-size="12" text-anchor="middle" transform="rotate(-90 22.00 252.00)">y</text><g class="legend"><rect x="80.00" y="48.00" width="103.50" height="76.00" fill="white" fill-opacity="0.85" stroke="#7f7f7f" stroke-width="1"/><rect class="swatch" x="86.00" y="56.00" width="14.00" height="10" fill="#1f77b4"/><text x="106.00" y="65.00" font-size="11" text-anchor="start">inliers</text><rect class="swatch" x="86.00" y="72.00" width="14.00" height="10" fill="#d62728"/><text x="106.00" y="81.00" font-size="11" text-anchor="start">outliers</text><rect class="swatch" x="86.00" y="88.00" width="14.00" height="10" fill="#ff7f0e"/><text x="106.00" y="97.00" font-size="11" text-anchor="start">OLS fit</text><rect class="swatch" x="86.00" y="104.00" width="14.00" height="10" fill="#d62728"/><text x="106.00" y="113.00" font-size="11" text-anchor="start">RLM (Huber)</text></g></svg>