<svg xmlns="http://www.w3.org/2000/svg" width="820" height="520" viewBox="0 0 820 520" font-family="sans-serif"><rect x="0" y="0" width="820" height="520" fill="#ffffff"/><clipPath id="clip6_6"><rect x="72.00" y="40.00" width="728.00" height="424.00"/></clipPath><line x1="105.09" y1="40.00" x2="105.09" y2="464.00" stroke="#dddddd" stroke-width="1"/><line x1="383.17" y1="40.00" x2="383.17" y2="464.00" stroke="#dddddd" stroke-width="1"/><line x1="661.24" y1="40.00" x2="661.24" y2="464.00" stroke="#dddddd" stroke-width="1"/><line x1="72.00" y1="381.85" x2="800.00" y2="381.85" stroke="#dddddd" stroke-width="1"/><line x1="72.00" y1="206.19" x2="800.00" y2="206.19" stroke="#dddddd" stroke-width="1"/><g clip-path="url(#clip6_6)"><circle cx="105.09" cy="442.43" r="3.50" fill="#1f77b4" fill-opacity="0.550"/><circle cx="110.65" cy="403.97" r="3.50" fill="#1f77b4" fill-opacity="0.550"/><circle cx="116.21" cy="325.95" r="3.50" fill="#1f77b4" fill-opacity="0.550"/><circle cx="121.78" cy="370.91" r="3.50" fill="#1f77b4" fill-opacity="0.550"/><circle cx="127.34" cy="238.98" r="3.50" fill="#1f77b4" fill-opacity="0.550"/><circle cx="132.90" cy="285.68" r="3.50" fill="#1f77b4" fill-opacity="0.550"/><circle cx="138.46" cy="316.11" r="3.50" fill="#1f77b4" fill-opacity="0.550"/><circle cx="144.02" cy="263.03" r="3.50" fill="#1f77b4" fill-opacity="0.550"/><circle cx="149.58" cy="330.32" r="3.50" fill="#1f77b4" fill-opacity="0.550"/><circle cx="155.14" cy="364.62" r="3.50" fill="#1f77b4" fill-opacity="0.550"/><circle cx="160.71" cy="321.17" r="3.50" fill="#1f77b4" fill-opacity="0.550"/><circle cx="166.27" cy="310.86" r="3.50" fill="#1f77b4" fill-opacity="0.550"/><circle cx="171.83" cy="277.91" r="3.50" fill="#1f77b4" fill-opacity="0.550"/><circle cx="177.39" cy="360.71" r="3.50" fill="#1f77b4" fill-opacity="0.550"/><circle cx="182.95" cy="361.46" r="3.50" fill="#1f77b4" fill-opacity="0.550"/><circle cx="188.51" cy="357.73" r="3.50" fill="#1f77b4" fill-opacity="0.550"/><circle cx="194.07" cy="319.79" r="3.50" fill="#1f77b4" fill-opacity="0.550"/><circle cx="199.64" cy="444.73" r="3.50" fill="#1f77b4" fill-opacity="0.550"/><circle cx="205.20" cy="300.47" r="3.50" fill="#1f77b4" fill-opacity="0.550"/><circle cx="210.76" cy="313.84" r="3.50" fill="#1f77b4" fill-opacity="0.550"/><circle cx="216.32" cy="338.86" r="3.50" fill="#1f77b4" fill-opacity="0.550"/><circle cx="221.88" cy="326.74" r="3.50" fill="#1f77b4" fill-opacity="0.550"/><circle cx="227.44" cy="332.35" r="3.50" fill="#1f77b4" fill-opacity="0.550"/><circle cx="233.01" cy="354.61" r="3.50" fill="#1f77b4" fill-opacity="0.550"/><circle cx="238.57" cy="336.34" r="3.50" fill="#1f77b4" fill-opacity="0.550"/><circle cx="244.13" cy="407.27" r="3.50" fill="#1f77b4" fill-opacity="0.550"/><circle cx="249.69" cy="327.41" r="3.50" fill="#1f77b4" fill-opacity="0.550"/><circle cx="255.25" cy="276.22" r="3.50" fill="#1f77b4" fill-opacity="0.550"/><circle cx="260.81" cy="382.84" r="3.50" fill="#1f77b4" fill-opacity="0.550"/><circle cx="266.37" cy="203.38" r="3.50" fill="#1f77b4" fill-opacity="0.550"/><circle cx="271.94" cy="300.24" r="3.50" fill="#1f77b4" fill-opacity="0.550"/><circle cx="277.50" cy="232.07" r="3.50" fill="#1f77b4" fill-opacity="0.550"/><circle cx="283.06" cy="344.18" r="3.50" fill="#1f77b4" fill-opacity="0.550"/><circle cx="288.62" cy="360.07" r="3.50" fill="#1f77b4" fill-opacity="0.550"/><circle cx="294.18" cy="275.35" r="3.50" fill="#1f77b4" fill-opacity="0.550"/><circle cx="299.74" cy="340.46" r="3.50" fill="#1f77b4" fill-opacity="0.550"/><circle cx="305.30" cy="283.25" r="3.50" fill="#1f77b4" fill-opacity="0.550"/><circle cx="310.87" cy="333.68" r="3.50" fill="#1f77b4" fill-opacity="0.550"/><circle cx="316.43" cy="220.32" r="3.50" fill="#1f77b4" fill-opacity="0.550"/><circle cx="321.99" cy="391.81" r="3.50" fill="#1f77b4" fill-opacity="0.550"/><circle cx="327.55" cy="337.13" r="3.50" fill="#1f77b4" fill-opacity="0.550"/><circle cx="333.11" cy="283.22" r="3.50" fill="#1f77b4" fill-opacity="0.550"/><circle cx="338.67" cy="292.56" r="3.50" fill="#1f77b4" fill-opacity="0.550"/><circle cx="344.24" cy="261.07" r="3.50" fill="#1f77b4" fill-opacity="0.550"/><circle cx="349.80" cy="324.40" r="3.50" fill="#1f77b4" fill-opacity="0.550"/><circle cx="355.36" cy="319.16" r="3.50" fill="#1f77b4" fill-opacity="0.550"/><circle cx="360.92" cy="324.54" r="3.50" fill="#1f77b4" fill-opacity="0.550"/><circle cx="366.48" cy="286.24" r="3.50" fill="#1f77b4" fill-opacity="0.550"/><circle cx="372.04" cy="305.38" r="3.50" fill="#1f77b4" fill-opacity="0.550"/><circle cx="377.60" cy="310.27" r="3.50" fill="#1f77b4" fill-opacity="0.550"/><circle cx="383.17" cy="309.84" r="3.50" fill="#1f77b4" fill-opacity="0.550"/><circle cx="388.73" cy="312.85" r="3.50" fill="#1f77b4" fill-opacity="0.550"/><circle cx="394.29" cy="239.27" r="3.50" fill="#1f77b4" fill-opacity="0.550"/><circle cx="399.85" cy="386.03" r="3.50" fill="#1f77b4" fill-opacity="0.550"/><circle cx="405.41" cy="268.20" r="3.50" fill="#1f77b4" fill-opacity="0.550"/><circle cx="410.97" cy="349.66" r="3.50" fill="#1f77b4" fill-opacity="0.550"/><circle cx="416.53" cy="279.30" r="3.50" fill="#1f77b4" fill-opacity="0.550"/><circle cx="422.10" cy="311.09" r="3.50" fill="#1f77b4" fill-opacity="0.550"/><circle cx="427.66" cy="325.33" r="3.50" fill="#1f77b4" fill-opacity="0.550"/><circle cx="433.22" cy="344.19" r="3.50" fill="#1f77b4" fill-opacity="0.550"/><circle cx="438.78" cy="427.42" r="3.50" fill="#1f77b4" fill-opacity="0.550"/><circle cx="444.34" cy="380.89" r="3.50" fill="#1f77b4" fill-opacity="0.550"/><circle cx="449.90" cy="320.29" r="3.50" fill="#1f77b4" fill-opacity="0.550"/><circle cx="455.47" cy="358.95" r="3.50" fill="#1f77b4" fill-opacity="0.550"/><circle cx="461.03" cy="282.82" r="3.50" fill="#1f77b4" fill-opacity="0.550"/><circle cx="466.59" cy="378.93" r="3.50" fill="#1f77b4" fill-opacity="0.550"/><circle cx="472.15" cy="321.81" r="3.50" fill="#1f77b4" fill-opacity="0.550"/><circle cx="477.71" cy="312.62" r="3.50" fill="#1f77b4" fill-opacity="0.550"/><circle cx="483.27" cy="267.93" r="3.50" fill="#1f77b4" fill-opacity="0.550"/><circle cx="488.83" cy="344.82" r="3.50" fill="#1f77b4" fill-opacity="0.550"/><circle cx="494.40" cy="291.87" r="3.50" fill="#1f77b4" fill-opacity="0.550"/><circle cx="499.96" cy="290.27" r="3.50" fill="#1f77b4" fill-opacity="0.550"/><circle cx="505.52" cy="256.31" r="3.50" fill="#1f77b4" fill-opacity="0.550"/><circle cx="511.08" cy="318.86" r="3.50" fill="#1f77b4" fill-opacity="0.550"/><circle cx="516.64" cy="276.24" r="3.50" fill="#1f77b4" fill-opacity="0.550"/><circle cx="522.20" cy="282.64" r="3.50" fill="#1f77b4" fill-opacity="0.550"/><circle cx="527.76" cy="185.82" r="3.50" fill="#1f77b4" fill-opacity="0.550"/><circle cx="533.33" cy="268.38" r="3.50" fill="#1f77b4" fill-opacity="0.550"/><circle cx="538.89" cy="308.08" r="3.50" fill="#1f77b4" fill-opacity="0.550"/><circle cx="544.45" cy="215.80" r="3.50" fill="#1f77b4" fill-opacity="0.550"/><circle cx="550.01" cy="240.07" r="3.50" fill="#1f77b4" fill-opacity="0.550"/><circle cx="555.57" cy="211.44" r="3.50" fill="#1f77b4" fill-opacity="0.550"/><circle cx="561.13" cy="316.49" r="3.50" fill="#1f77b4" fill-opacity="0.550"/><circle cx="566.70" cy="179.32" r="3.50" fill="#1f77b4" fill-opacity="0.550"/><circle cx="572.26" cy="197.73" r="3.50" fill="#1f77b4" fill-opacity="0.550"/><circle cx="577.82" cy="239.27" r="3.50" fill="#1f77b4" fill-opacity="0.550"/><circle cx="583.38" cy="179.93" r="3.50" fill="#1f77b4" fill-opacity="0.550"/><circle cx="588.94" cy="137.01" r="3.50" fill="#1f77b4" fill-opacity="0.550"/><circle cx="594.50" cy="203.46" r="3.50" fill="#1f77b4" fill-opacity="0.550"/><circle cx="600.06" cy="131.51" r="3.50" fill="#1f77b4" fill-opacity="0.550"/><circle cx="605.63" cy="139.33" r="3.50" fill="#1f77b4" fill-opacity="0.550"/><circle cx="611.19" cy="163.46" r="3.50" fill="#1f77b4" fill-opacity="0.550"/><circle cx="616.75" cy="170.97" r="3.50" fill="#1f77b4" fill-opacity="0.550"/><circle cx="622.31" cy="158.20" r="3.50" fill="#1f77b4" fill-opacity="0.550"/><circle cx="627.87" cy="207.17" r="3.50" fill="#1f77b4" fill-opacity="0.550"/><circle cx="633.43" cy="187.78" r="3.50" fill="#1f77b4" fill-opacity="0.550"/><circle cx="638.99" cy="218.20" r="3.50" fill="#1f77b4" fill-opacity="0.550"/><circle cx="644.56" cy="127.69" r="3.50" fill="#1f77b4" fill-opacity="0.550"/><circle cx="650.12" cy="242.55" r="3.50" fill="#1f77b4" fill-opacity="0.550"/><circle cx="655.68" cy="159.86" r="3.50" fill="#1f77b4" fill-opacity="0.550"/><circle cx="661.24" cy="192.65" r="3.50" fill="#1f77b4" fill-opacity="0.550"/><circle cx="666.80" cy="265.41" r="3.50" fill="#1f77b4" fill-opacity="0.550"/><circle cx="672.36" cy="205.46" r="3.50" fill="#1f77b4" fill-opacity="0.550"/><circle cx="677.93" cy="143.69" r="3.50" fill="#1f77b4" fill-opacity="0.550"/><circle cx="683.49" cy="59.27" r="3.50" fill="#1f77b4" fill-opacity="0.550"/><circle cx="689.05" cy="193.26" r="3.50" fill="#1f77b4" fill-opacity="0.550"/><circle cx="694.61" cy="153.72" r="3.50" fill="#1f77b4" fill-opacity="0.550"/><circle cx="700.17" cy="190.49" r="3.50" fill="#1f77b4" fill-opacity="0.550"/><circle cx="705.73" cy="216.59" r="3.50" fill="#1f77b4" fill-opacity="0.550"/><circle cx="711.29" cy="238.72" r="3.50" fill="#1f77b4" fill-opacity="0.550"/><circle cx="716.86" cy="203.69" r="3.50" fill="#1f77b4" fill-opacity="0.550"/><circle cx="722.42" cy="182.09" r="3.50" fill="#1f77b4" fill-opacity="0.550"/><circle cx="727.98" cy="125.36" r="3.50" fill="#1f77b4" fill-opacity="0.550"/><circle cx="733.54" cy="179.68" r="3.50" fill="#1f77b4" fill-opacity="0.550"/><circle cx="739.10" cy="178.14" r="3.50" fill="#1f77b4" fill-opacity="0.550"/><circle cx="744.66" cy="219.21" r="3.50" fill="#1f77b4" fill-opacity="0.550"/><circle cx="750.22" cy="211.88" r="3.50" fill="#1f77b4" fill-opacity="0.550"/><circle cx="755.79" cy="124.68" r="3.50" fill="#1f77b4" fill-opacity="0.550"/><circle cx="761.35" cy="211.19" r="3.50" fill="#1f77b4" fill-opacity="0.550"/><circle cx="766.91" cy="118.58" r="3.50" fill="#1f77b4" fill-opacity="0.550"/><polyline fill="none" stroke="#d62728" stroke-width="2" stroke-opacity="1.000" points="105.09,442.43 110.65,422.59 116.21,387.04 121.78,382.16 127.34,343.62 132.90,329.08 138.46,325.96 144.02,311.20 149.58,315.62 155.14,326.83 160.71,325.54 166.27,322.21 171.83,312.18 177.39,323.16 182.95,331.81 188.51,337.67 194.07,333.63 199.64,358.72 205.20,345.57 210.76,338.40 216.32,338.51 221.88,335.85 227.44,335.06 233.01,339.47 238.57,338.77 244.13,354.23 249.69,348.18 255.25,331.93 260.81,343.43 266.37,311.80 271.94,309.19 277.50,291.78 283.06,303.61 288.62,316.36 294.18,307.10 299.74,314.63 305.30,307.55 310.87,313.45 316.43,292.42 321.99,314.86 327.55,319.89 333.11,311.61 338.67,307.31 344.24,296.87 349.80,303.08 355.36,306.71 360.92,310.74 366.48,305.21 372.04,305.24 377.60,306.38 383.17,307.16 388.73,308.45 394.29,292.83 399.85,313.87 405.41,303.56 410.97,313.97 416.53,306.14 422.10,307.26 427.66,311.34 433.22,318.75 438.78,343.29 444.34,351.78 449.90,344.67 455.47,347.89 461.03,333.20 466.59,343.53 472.15,338.62 477.71,332.75 483.27,318.12 488.83,324.15 494.40,316.86 499.96,310.85 505.52,298.54 511.08,303.13 516.64,297.06 522.20,293.80 527.76,269.42 533.33,269.19 538.89,277.97 544.45,263.93 550.01,258.54 555.57,247.91 561.13,263.39 566.70,244.41 572.26,233.87 577.82,235.09 583.38,222.64 588.94,203.30 594.50,203.34 600.06,187.12 605.63,176.33 611.19,173.43 616.75,172.87 622.31,169.56 627.87,178.05 633.43,180.25 638.99,188.82 644.56,175.02 650.12,190.26 655.68,183.40 661.24,185.49 666.80,203.53 672.36,203.97 677.93,190.36 683.49,160.76 689.05,168.10 694.61,164.85 700.17,170.64 705.73,181.02 711.29,194.04 716.86,196.22 722.42,193.03 727.98,177.75 733.54,178.19 739.10,178.17 744.66,187.44 750.22,192.96 755.79,177.54 761.35,185.14 766.91,170.11"/></g><line x1="72.00" y1="40.00" x2="800.00" y2="40.00" stroke="#000000" stroke-width="1"/><line x1="72.00" y1="464.00" x2="800.00" y2="464.00" stroke="#000000" stroke-width="1"/><line x1="72.00" y1="40.00" x2="72.00" y2="464.00" stroke="#000000" stroke-width="1"/><line x1="800.00" y1="40.00" x2="800.00" y2="464.00" stroke="#000000" stroke-width="1"/><line x1="105.09" y1="464.00" x2="105.09" y2="469.00" stroke="#000000"/><text x="105.09" y="480.00" font-size="11" text-anchor="middle">0</text><line x1="383.17" y1="464.00" x2="383.17" y2="469.00" stroke="#000000"/><text x="383.17" y="480.00" font-size="11" text-anchor="middle">50</text><line x1="661.24" y1="464.00" x2="661.24" y2="469.00" stroke="#000000"/><text x="661.24" y="480.00" font-size="11" text-anchor="middle">100</text><line x1="67.00" y1="381.85" x2="72.00" y2="381.85" stroke="#000000"/><text x="64.00" y="385.85" font-size="11" text-anchor="end">5</text><line x1="67.00" y1="206.19" x2="72.00" y2="206.19" stroke="#000000"/><text x="64.00" y="210.19" font-size="11" text-anchor="end">10</text><text x="436.00" y="32.00" font-size="15" font-weight="bold" text-anchor="middle">Local level: observations and filtered Kalman state</text><text x="436.00" y="494.00" font-size="12" text-anchor="middle">t</text><text x="22.00" y="252.00" font-size="12" text-anchor="middle" transform="rotate(-90 22.00 252.00)">y</text><g class="legend"><rect x="80.00" y="48.00" width="123.00" height="44.00" fill="white" fill-opacity="0.85" stroke="#7f7f7f" stroke-width="1"/><rect class="swatch" x="86.00" y="56.00" width="14.00" height="10" fill="#1f77b4"/><text x="106.00" y="65.00" font-size="11" text-anchor="start">observed</text><rect class="swatch" x="86.00" y="72.00" width="14.00" height="10" fill="#d62728"/><text x="106.00" y="81.00" font-size="11" text-anchor="start">filtered level</text></g></svg>