<svg xmlns="http://www.w3.org/2000/svg" width="760" height="520" viewBox="0 0 760 520" font-family="sans-serif"><rect x="0" y="0" width="760" height="520" fill="#ffffff"/><clipPath id="clip6_6"><rect x="72.00" y="40.00" width="668.00" height="424.00"/></clipPath><line x1="102.36" y1="40.00" x2="102.36" y2="464.00" stroke="#dddddd" stroke-width="1"/><line x1="266.25" y1="40.00" x2="266.25" y2="464.00" stroke="#dddddd" stroke-width="1"/><line x1="430.13" y1="40.00" x2="430.13" y2="464.00" stroke="#dddddd" stroke-width="1"/><line x1="594.01" y1="40.00" x2="594.01" y2="464.00" stroke="#dddddd" stroke-width="1"/><line x1="72.00" y1="464.00" x2="740.00" y2="464.00" stroke="#dddddd" stroke-width="1"/><line x1="72.00" y1="256.16" x2="740.00" y2="256.16" stroke="#dddddd" stroke-width="1"/><line x1="72.00" y1="48.31" x2="740.00" y2="48.31" stroke="#dddddd" stroke-width="1"/><g clip-path="url(#clip6_6)"><path d="M 102.36,48.31 103.20,58.54 106.42,64.76 108.44,70.38 110.63,75.76 116.79,80.95 117.24,85.96 120.05,90.83 121.06,95.59 122.09,100.32 122.13,104.97 122.49,109.55 122.61,114.07 122.66,118.54 125.51,122.96 126.69,127.34 130.34,131.68 131.52,135.98 134.29,140.36 138.53,144.71 138.71,149.03 139.90,153.31 140.40,157.57 145.10,161.86 151.17,166.12 169.80,170.48 170.12,174.81 172.62,179.12 174.13,183.53 180.79,188.06 181.47,192.55 183.27,197.03 188.18,201.48 188.70,205.90 196.98,210.38 199.60,214.84 200.20,219.27 206.45,223.68 206.83,228.07 213.01,232.53 215.02,236.96 217.48,241.37 221.92,245.84 222.00,250.29 223.96,254.73 224.45,259.14 227.79,263.54 233.99,267.91 237.39,272.27 244.64,276.80 245.23,281.42 245.73,286.13 253.93,290.81 261.51,295.59 266.02,300.35 268.50,305.08 287.55,310.38 289.52,316.00 291.45,321.57 301.62,327.31 312.27,333.23 314.13,339.34 316.46,345.39 324.67,351.67 329.10,357.87 330.77,364.00 363.08,370.06 368.09,376.04 377.47,381.95 381.47,387.79 403.97,393.96 419.64,400.03 419.70,406.01 424.05,411.87 436.92,417.62 442.77,423.26 450.42,429.46 451.66,435.47 458.54,441.27 474.75,446.83 498.50,452.11 521.72,457.07 529.23,461.63 554.64,464.00 647.69,464.00 709.64,464.00 709.64,464.00 647.69,430.75 554.64,419.77 529.23,409.58 521.72,399.94 498.50,390.70 474.75,381.79 458.54,373.15 451.66,364.75 450.42,356.56 442.77,348.57 436.92,341.19 424.05,333.93 419.70,326.78 419.64,319.73 403.97,312.79 381.47,305.95 377.47,299.46 368.09,293.04 363.08,286.69 330.77,280.42 329.10,274.22 324.67,268.10 316.46,262.04 314.13,256.22 312.27,250.46 301.62,244.90 291.45,239.52 289.52,234.30 287.55,229.13 268.50,224.20 266.02,219.66 261.51,215.15 253.93,210.65 245.73,206.26 245.23,201.90 244.64,197.62 237.39,193.43 233.99,189.38 227.79,185.35 224.45,181.34 223.96,177.35 222.00,173.38 221.92,169.43 217.48,165.50 215.02,161.63 213.01,157.79 206.83,153.97 206.45,150.22 200.20,146.48 199.60,142.76 196.98,139.07 188.70,135.40 188.18,131.79 183.27,128.20 181.47,124.64 180.79,121.10 174.13,117.58 172.62,114.16 170.12,110.82 169.80,107.51 151.17,104.22 145.10,101.01 140.40,97.82 139.90,94.69 138.71,91.59 138.53,88.51 134.29,85.47 131.52,82.45 130.34,79.52 126.69,76.62 125.51,73.76 122.66,70.94 122.61,68.17 122.49,65.45 122.13,62.79 122.09,60.20 121.06,57.68 120.05,55.27 117.24,52.97 116.79,50.81 110.63,48.82 108.44,48.31 106.42,48.31 103.20,48.31 102.36,48.31 Z" fill="#1f77b4" fill-opacity="0.180" stroke="none"/><polyline fill="none" stroke="#1f77b4" stroke-width="1.6" points="102.36,48.31 103.20,48.31 103.20,51.78 106.42,51.78 106.42,55.24 108.44,55.24 108.44,58.74 110.63,58.74 110.63,62.29 116.79,62.29 116.79,65.88 117.24,65.88 117.24,69.46 120.05,69.46 120.05,73.05 121.06,73.05 121.06,76.64 122.09,76.64 122.09,80.26 122.13,80.26 122.13,83.88 122.49,83.88 122.49,87.50 122.61,87.50 122.61,91.12 122.66,91.12 122.66,94.74 125.51,94.74 125.51,98.36 126.69,98.36 126.69,101.98 130.34,101.98 130.34,105.60 131.52,105.60 131.52,109.22 134.29,109.22 134.29,112.91 138.53,112.91 138.53,116.61 138.71,116.61 138.71,120.31 139.90,120.31 139.90,124.00 140.40,124.00 140.40,127.70 145.10,127.70 145.10,131.43 151.17,131.43 151.17,135.17 169.80,135.17 169.80,138.99 170.12,138.99 170.12,142.82 172.62,142.82 172.62,146.64 174.13,146.64 174.13,150.56 180.79,150.56 180.79,154.58 181.47,154.58 181.47,158.60 183.27,158.60 183.27,162.61 188.18,162.61 188.18,166.63 188.70,166.63 188.70,170.65 196.98,170.65 196.98,174.73 199.60,174.73 199.60,178.80 200.20,178.80 200.20,182.87 206.45,182.87 206.45,186.95 206.83,186.95 206.83,191.02 213.01,191.02 213.01,195.16 215.02,195.16 215.02,199.30 217.48,199.30 217.48,203.43 221.92,203.43 221.92,207.63 222.00,207.63 222.00,211.84 223.96,211.84 223.96,216.04 224.45,216.04 224.45,220.24 227.79,220.24 227.79,224.44 233.99,224.44 233.99,228.65 237.39,228.65 237.39,232.85 244.64,232.85 244.64,237.21 245.23,237.21 245.23,241.66 245.73,241.66 245.73,246.20 253.93,246.20 253.93,250.73 261.51,250.73 261.51,255.37 266.02,255.37 266.02,260.01 268.50,260.01 268.50,264.64 287.55,264.64 287.55,269.75 289.52,269.75 289.52,275.15 291.45,275.15 291.45,280.55 301.62,280.55 301.62,286.10 312.27,286.10 312.27,291.84 314.13,291.84 314.13,297.78 316.46,297.78 316.46,303.72 324.67,303.72 324.67,309.88 329.10,309.88 329.10,316.05 330.77,316.05 330.77,322.21 363.08,322.21 363.08,328.38 368.09,328.38 368.09,334.54 377.47,334.54 377.47,340.70 381.47,340.70 381.47,346.87 403.97,346.87 403.97,353.38 419.64,353.38 419.64,359.88 419.70,359.88 419.70,366.39 424.05,366.39 424.05,372.90 436.92,372.90 436.92,379.41 442.77,379.41 442.77,385.91 450.42,385.91 450.42,393.01 451.66,393.01 451.66,400.11 458.54,400.11 458.54,407.21 474.75,407.21 474.75,414.31 498.50,414.31 498.50,421.41 521.72,421.41 521.72,428.51 529.23,428.51 529.23,435.60 554.64,435.60 554.64,442.70 647.69,442.70 647.69,449.80 709.64,449.80 709.64,464.00"/></g><line x1="72.00" y1="40.00" x2="740.00" y2="40.00" stroke="#000000" stroke-width="1"/><line x1="72.00" y1="464.00" x2="740.00" y2="464.00" stroke="#000000" stroke-width="1"/><line x1="72.00" y1="40.00" x2="72.00" y2="464.00" stroke="#000000" stroke-width="1"/><line x1="740.00" y1="40.00" x2="740.00" y2="464.00" stroke="#000000" stroke-width="1"/><line x1="102.36" y1="464.00" x2="102.36" y2="469.00" stroke="#000000"/><text x="102.36" y="480.00" font-size="11" text-anchor="middle">0</text><line x1="266.25" y1="464.00" x2="266.25" y2="469.00" stroke="#000000"/><text x="266.25" y="480.00" font-size="11" text-anchor="middle">10</text><line x1="430.13" y1="464.00" x2="430.13" y2="469.00" stroke="#000000"/><text x="430.13" y="480.00" font-size="11" text-anchor="middle">20</text><line x1="594.01" y1="464.00" x2="594.01" y2="469.00" stroke="#000000"/><text x="594.01" y="480.00" font-size="11" text-anchor="middle">30</text><line x1="67.00" y1="464.00" x2="72.00" y2="464.00" stroke="#000000"/><text x="64.00" y="468.00" font-size="11" text-anchor="end">0</text><line x1="67.00" y1="256.16" x2="72.00" y2="256.16" stroke="#000000"/><text x="64.00" y="260.16" font-size="11" text-anchor="end">0.5</text><line x1="67.00" y1="48.31" x2="72.00" y2="48.31" stroke="#000000"/><text x="64.00" y="52.31" font-size="11" text-anchor="end">1</text><text x="406.00" y="32.00" font-size="15" font-weight="bold" text-anchor="middle">Kaplan-Meier survival function</text><text x="406.00" y="494.00" font-size="12" text-anchor="middle">time</text><text x="22.00" y="252.00" font-size="12" text-anchor="middle" transform="rotate(-90 22.00 252.00)">S(t)</text><g class="legend"><rect x="648.00" y="48.00" width="84.00" height="44.00" fill="white" fill-opacity="0.85" stroke="#7f7f7f" stroke-width="1"/><rect class="swatch" x="654.00" y="56.00" width="14.00" height="10" fill="#1f77b4"/><text x="674.00" y="65.00" font-size="11" text-anchor="start">95% band</text><rect class="swatch" x="654.00" y="72.00" width="14.00" height="10" fill="#1f77b4"/><text x="674.00" y="81.00" font-size="11" text-anchor="start">S(t)</text></g></svg>