<svg xmlns="http://www.w3.org/2000/svg" width="980" height="760" viewBox="0 0 980 760" font-family="sans-serif"><rect x="0" y="0" width="980" height="760" fill="#ffffff"/><text x="490.00" y="20" font-size="18" font-weight="bold" text-anchor="middle">Time-series diagnostics</text><clipPath id="clip6_30"><rect x="72.00" y="64.00" width="404.00" height="278.00"/></clipPath><line x1="90.36" y1="64.00" x2="90.36" y2="342.00" stroke="#dddddd" stroke-width="1"/><line x1="243.39" y1="64.00" x2="243.39" y2="342.00" stroke="#dddddd" stroke-width="1"/><line x1="396.42" y1="64.00" x2="396.42" y2="342.00" stroke="#dddddd" stroke-width="1"/><line x1="72.00" y1="337.17" x2="476.00" y2="337.17" stroke="#dddddd" stroke-width="1"/><line x1="72.00" y1="206.90" x2="476.00" y2="206.90" stroke="#dddddd" stroke-width="1"/><line x1="72.00" y1="76.64" x2="476.00" y2="76.64" stroke="#dddddd" stroke-width="1"/><g clip-path="url(#clip6_30)"><polyline fill="none" stroke="#1f77b4" stroke-width="1.4" stroke-opacity="0.900" points="90.36,206.90 90.36,76.64"/><polyline fill="none" stroke="#1f77b4" stroke-width="1.4" stroke-opacity="0.900" points="105.67,206.90 105.67,96.35"/><polyline fill="none" stroke="#1f77b4" stroke-width="1.4" stroke-opacity="0.900" points="120.97,206.90 120.97,144.24"/><polyline fill="none" stroke="#1f77b4" stroke-width="1.4" stroke-opacity="0.900" points="136.27,206.90 136.27,206.76"/><polyline fill="none" stroke="#1f77b4" stroke-width="1.4" stroke-opacity="0.900" points="151.58,206.90 151.58,268.31"/><polyline fill="none" stroke="#1f77b4" stroke-width="1.4" stroke-opacity="0.900" points="166.88,206.90 166.88,313.07"/><polyline fill="none" stroke="#1f77b4" stroke-width="1.4" stroke-opacity="0.900" points="182.18,206.90 182.18,329.36"/><polyline fill="none" stroke="#1f77b4" stroke-width="1.4" stroke-opacity="0.900" points="197.48,206.90 197.48,312.97"/><polyline fill="none" stroke="#1f77b4" stroke-width="1.4" stroke-opacity="0.900" points="212.79,206.90 212.79,269.27"/><polyline fill="none" stroke="#1f77b4" stroke-width="1.4" stroke-opacity="0.900" points="228.09,206.90 228.09,209.31"/><polyline fill="none" stroke="#1f77b4" stroke-width="1.4" stroke-opacity="0.900" points="243.39,206.90 243.39,148.76"/><polyline fill="none" stroke="#1f77b4" stroke-width="1.4" stroke-opacity="0.900" points="258.70,206.90 258.70,104.18"/><polyline fill="none" stroke="#1f77b4" stroke-width="1.4" stroke-opacity="0.900" points="274.00,206.90 274.00,88.04"/><polyline fill="none" stroke="#1f77b4" stroke-width="1.4" stroke-opacity="0.900" points="289.30,206.90 289.30,103.79"/><polyline fill="none" stroke="#1f77b4" stroke-width="1.4" stroke-opacity="0.900" points="304.61,206.90 304.61,146.77"/><polyline fill="none" stroke="#1f77b4" stroke-width="1.4" stroke-opacity="0.900" points="319.91,206.90 319.91,205.34"/><polyline fill="none" stroke="#1f77b4" stroke-width="1.4" stroke-opacity="0.900" points="335.21,206.90 335.21,263.49"/><polyline fill="none" stroke="#1f77b4" stroke-width="1.4" stroke-opacity="0.900" points="350.52,206.90 350.52,306.03"/><polyline fill="none" stroke="#1f77b4" stroke-width="1.4" stroke-opacity="0.900" points="365.82,206.90 365.82,321.82"/><polyline fill="none" stroke="#1f77b4" stroke-width="1.4" stroke-opacity="0.900" points="381.12,206.90 381.12,306.75"/><polyline fill="none" stroke="#1f77b4" stroke-width="1.4" stroke-opacity="0.900" points="396.42,206.90 396.42,265.53"/><polyline fill="none" stroke="#1f77b4" stroke-width="1.4" stroke-opacity="0.900" points="411.73,206.90 411.73,209.33"/><polyline fill="none" stroke="#1f77b4" stroke-width="1.4" stroke-opacity="0.900" points="427.03,206.90 427.03,152.98"/><polyline fill="none" stroke="#1f77b4" stroke-width="1.4" stroke-opacity="0.900" points="442.33,206.90 442.33,111.05"/><polyline fill="none" stroke="#1f77b4" stroke-width="1.4" stroke-opacity="0.900" points="457.64,206.90 457.64,94.97"/><circle cx="90.36" cy="76.64" r="3.00" fill="#1f77b4" fill-opacity="1.000"/><circle cx="105.67" cy="96.35" r="3.00" fill="#1f77b4" fill-opacity="1.000"/><circle cx="120.97" cy="144.24" r="3.00" fill="#1f77b4" fill-opacity="1.000"/><circle cx="136.27" cy="206.76" r="3.00" fill="#1f77b4" fill-opacity="1.000"/><circle cx="151.58" cy="268.31" r="3.00" fill="#1f77b4" fill-opacity="1.000"/><circle cx="166.88" cy="313.07" r="3.00" fill="#1f77b4" fill-opacity="1.000"/><circle cx="182.18" cy="329.36" r="3.00" fill="#1f77b4" fill-opacity="1.000"/><circle cx="197.48" cy="312.97" r="3.00" fill="#1f77b4" fill-opacity="1.000"/><circle cx="212.79" cy="269.27" r="3.00" fill="#1f77b4" fill-opacity="1.000"/><circle cx="228.09" cy="209.31" r="3.00" fill="#1f77b4" fill-opacity="1.000"/><circle cx="243.39" cy="148.76" r="3.00" fill="#1f77b4" fill-opacity="1.000"/><circle cx="258.70" cy="104.18" r="3.00" fill="#1f77b4" fill-opacity="1.000"/><circle cx="274.00" cy="88.04" r="3.00" fill="#1f77b4" fill-opacity="1.000"/><circle cx="289.30" cy="103.79" r="3.00" fill="#1f77b4" fill-opacity="1.000"/><circle cx="304.61" cy="146.77" r="3.00" fill="#1f77b4" fill-opacity="1.000"/><circle cx="319.91" cy="205.34" r="3.00" fill="#1f77b4" fill-opacity="1.000"/><circle cx="335.21" cy="263.49" r="3.00" fill="#1f77b4" fill-opacity="1.000"/><circle cx="350.52" cy="306.03" r="3.00" fill="#1f77b4" fill-opacity="1.000"/><circle cx="365.82" cy="321.82" r="3.00" fill="#1f77b4" fill-opacity="1.000"/><circle cx="381.12" cy="306.75" r="3.00" fill="#1f77b4" fill-opacity="1.000"/><circle cx="396.42" cy="265.53" r="3.00" fill="#1f77b4" fill-opacity="1.000"/><circle cx="411.73" cy="209.33" r="3.00" fill="#1f77b4" fill-opacity="1.000"/><circle cx="427.03" cy="152.98" r="3.00" fill="#1f77b4" fill-opacity="1.000"/><circle cx="442.33" cy="111.05" r="3.00" fill="#1f77b4" fill-opacity="1.000"/><circle cx="457.64" cy="94.97" r="3.00" fill="#1f77b4" fill-opacity="1.000"/><line x1="72.00" y1="190.42" x2="476.00" y2="190.42" stroke="#7f7f7f" stroke-width="1.2" stroke-dasharray="6 4"/><line x1="72.00" y1="223.38" x2="476.00" y2="223.38" stroke="#7f7f7f" stroke-width="1.2" stroke-dasharray="6 4"/><line x1="72.00" y1="206.90" x2="476.00" y2="206.90" stroke="#000000" stroke-width="1.2"/></g><line x1="72.00" y1="64.00" x2="476.00" y2="64.00" stroke="#000000" stroke-width="1"/><line x1="72.00" y1="342.00" x2="476.00" y2="342.00" stroke="#000000" stroke-width="1"/><line x1="72.00" y1="64.00" x2="72.00" y2="342.00" stroke="#000000" stroke-width="1"/><line x1="476.00" y1="64.00" x2="476.00" y2="342.00" stroke="#000000" stroke-width="1"/><line x1="90.36" y1="342.00" x2="90.36" y2="347.00" stroke="#000000"/><text x="90.36" y="358.00" font-size="11" text-anchor="middle">0</text><line x1="243.39" y1="342.00" x2="243.39" y2="347.00" stroke="#000000"/><text x="243.39" y="358.00" font-size="11" text-anchor="middle">10</text><line x1="396.42" y1="342.00" x2="396.42" y2="347.00" stroke="#000000"/><text x="396.42" y="358.00" font-size="11" text-anchor="middle">20</text><line x1="67.00" y1="337.17" x2="72.00" y2="337.17" stroke="#000000"/><text x="64.00" y="341.17" font-size="11" text-anchor="end">-1</text><line x1="67.00" y1="206.90" x2="72.00" y2="206.90" stroke="#000000"/><text x="64.00" y="210.90" font-size="11" text-anchor="end">0</text><line x1="67.00" y1="76.64" x2="72.00" y2="76.64" stroke="#000000"/><text x="64.00" y="80.64" font-size="11" text-anchor="end">1</text><text x="274.00" y="56.00" font-size="15" font-weight="bold" text-anchor="middle">ACF</text><text x="274.00" y="372.00" font-size="12" text-anchor="middle">lag</text><text x="22.00" y="203.00" font-size="12" text-anchor="middle" transform="rotate(-90 22.00 203.00)">acf</text><clipPath id="clip490_30"><rect x="556.00" y="64.00" width="404.00" height="278.00"/></clipPath><line x1="574.36" y1="64.00" x2="574.36" y2="342.00" stroke="#dddddd" stroke-width="1"/><line x1="727.39" y1="64.00" x2="727.39" y2="342.00" stroke="#dddddd" stroke-width="1"/><line x1="880.42" y1="64.00" x2="880.42" y2="342.00" stroke="#dddddd" stroke-width="1"/><line x1="556.00" y1="210.94" x2="960.00" y2="210.94" stroke="#dddddd" stroke-width="1"/><line x1="556.00" y1="76.64" x2="960.00" y2="76.64" stroke="#dddddd" stroke-width="1"/><g clip-path="url(#clip490_30)"><polyline fill="none" stroke="#ff7f0e" stroke-width="1.4" stroke-opacity="0.900" points="574.36,210.94 574.36,76.64"/><polyline fill="none" stroke="#ff7f0e" stroke-width="1.4" stroke-opacity="0.900" points="589.67,210.94 589.67,96.48"/><polyline fill="none" stroke="#ff7f0e" stroke-width="1.4" stroke-opacity="0.900" points="604.97,210.94 604.97,329.36"/><polyline fill="none" stroke="#ff7f0e" stroke-width="1.4" stroke-opacity="0.900" points="620.27,210.94 620.27,266.83"/><polyline fill="none" stroke="#ff7f0e" stroke-width="1.4" stroke-opacity="0.900" points="635.58,210.94 635.58,269.84"/><polyline fill="none" stroke="#ff7f0e" stroke-width="1.4" stroke-opacity="0.900" points="650.88,210.94 650.88,257.62"/><polyline fill="none" stroke="#ff7f0e" stroke-width="1.4" stroke-opacity="0.900" points="666.18,210.94 666.18,245.22"/><polyline fill="none" stroke="#ff7f0e" stroke-width="1.4" stroke-opacity="0.900" points="681.48,210.94 681.48,227.30"/><polyline fill="none" stroke="#ff7f0e" stroke-width="1.4" stroke-opacity="0.900" points="696.79,210.94 696.79,235.12"/><polyline fill="none" stroke="#ff7f0e" stroke-width="1.4" stroke-opacity="0.900" points="712.09,210.94 712.09,199.30"/><polyline fill="none" stroke="#ff7f0e" stroke-width="1.4" stroke-opacity="0.900" points="727.39,210.94 727.39,185.96"/><polyline fill="none" stroke="#ff7f0e" stroke-width="1.4" stroke-opacity="0.900" points="742.70,210.94 742.70,189.14"/><polyline fill="none" stroke="#ff7f0e" stroke-width="1.4" stroke-opacity="0.900" points="758.00,210.94 758.00,214.82"/><polyline fill="none" stroke="#ff7f0e" stroke-width="1.4" stroke-opacity="0.900" points="773.30,210.94 773.30,212.45"/><polyline fill="none" stroke="#ff7f0e" stroke-width="1.4" stroke-opacity="0.900" points="788.61,210.94 788.61,227.55"/><polyline fill="none" stroke="#ff7f0e" stroke-width="1.4" stroke-opacity="0.900" points="803.91,210.94 803.91,228.02"/><polyline fill="none" stroke="#ff7f0e" stroke-width="1.4" stroke-opacity="0.900" points="819.21,210.94 819.21,219.69"/><polyline fill="none" stroke="#ff7f0e" stroke-width="1.4" stroke-opacity="0.900" points="834.52,210.94 834.52,225.27"/><polyline fill="none" stroke="#ff7f0e" stroke-width="1.4" stroke-opacity="0.900" points="849.82,210.94 849.82,215.96"/><polyline fill="none" stroke="#ff7f0e" stroke-width="1.4" stroke-opacity="0.900" points="865.12,210.94 865.12,198.90"/><polyline fill="none" stroke="#ff7f0e" stroke-width="1.4" stroke-opacity="0.900" points="880.42,210.94 880.42,214.38"/><polyline fill="none" stroke="#ff7f0e" stroke-width="1.4" stroke-opacity="0.900" points="895.73,210.94 895.73,215.05"/><polyline fill="none" stroke="#ff7f0e" stroke-width="1.4" stroke-opacity="0.900" points="911.03,210.94 911.03,212.08"/><polyline fill="none" stroke="#ff7f0e" stroke-width="1.4" stroke-opacity="0.900" points="926.33,210.94 926.33,196.94"/><polyline fill="none" stroke="#ff7f0e" stroke-width="1.4" stroke-opacity="0.900" points="941.64,210.94 941.64,203.75"/><circle cx="574.36" cy="76.64" r="3.00" fill="#ff7f0e" fill-opacity="1.000"/><circle cx="589.67" cy="96.48" r="3.00" fill="#ff7f0e" fill-opacity="1.000"/><circle cx="604.97" cy="329.36" r="3.00" fill="#ff7f0e" fill-opacity="1.000"/><circle cx="620.27" cy="266.83" r="3.00" fill="#ff7f0e" fill-opacity="1.000"/><circle cx="635.58" cy="269.84" r="3.00" fill="#ff7f0e" fill-opacity="1.000"/><circle cx="650.88" cy="257.62" r="3.00" fill="#ff7f0e" fill-opacity="1.000"/><circle cx="666.18" cy="245.22" r="3.00" fill="#ff7f0e" fill-opacity="1.000"/><circle cx="681.48" cy="227.30" r="3.00" fill="#ff7f0e" fill-opacity="1.000"/><circle cx="696.79" cy="235.12" r="3.00" fill="#ff7f0e" fill-opacity="1.000"/><circle cx="712.09" cy="199.30" r="3.00" fill="#ff7f0e" fill-opacity="1.000"/><circle cx="727.39" cy="185.96" r="3.00" fill="#ff7f0e" fill-opacity="1.000"/><circle cx="742.70" cy="189.14" r="3.00" fill="#ff7f0e" fill-opacity="1.000"/><circle cx="758.00" cy="214.82" r="3.00" fill="#ff7f0e" fill-opacity="1.000"/><circle cx="773.30" cy="212.45" r="3.00" fill="#ff7f0e" fill-opacity="1.000"/><circle cx="788.61" cy="227.55" r="3.00" fill="#ff7f0e" fill-opacity="1.000"/><circle cx="803.91" cy="228.02" r="3.00" fill="#ff7f0e" fill-opacity="1.000"/><circle cx="819.21" cy="219.69" r="3.00" fill="#ff7f0e" fill-opacity="1.000"/><circle cx="834.52" cy="225.27" r="3.00" fill="#ff7f0e" fill-opacity="1.000"/><circle cx="849.82" cy="215.96" r="3.00" fill="#ff7f0e" fill-opacity="1.000"/><circle cx="865.12" cy="198.90" r="3.00" fill="#ff7f0e" fill-opacity="1.000"/><circle cx="880.42" cy="214.38" r="3.00" fill="#ff7f0e" fill-opacity="1.000"/><circle cx="895.73" cy="215.05" r="3.00" fill="#ff7f0e" fill-opacity="1.000"/><circle cx="911.03" cy="212.08" r="3.00" fill="#ff7f0e" fill-opacity="1.000"/><circle cx="926.33" cy="196.94" r="3.00" fill="#ff7f0e" fill-opacity="1.000"/><circle cx="941.64" cy="203.75" r="3.00" fill="#ff7f0e" fill-opacity="1.000"/><line x1="556.00" y1="193.95" x2="960.00" y2="193.95" stroke="#7f7f7f" stroke-width="1.2" stroke-dasharray="6 4"/><line x1="556.00" y1="227.94" x2="960.00" y2="227.94" stroke="#7f7f7f" stroke-width="1.2" stroke-dasharray="6 4"/><line x1="556.00" y1="210.94" x2="960.00" y2="210.94" stroke="#000000" stroke-width="1.2"/></g><line x1="556.00" y1="64.00" x2="960.00" y2="64.00" stroke="#000000" stroke-width="1"/><line x1="556.00" y1="342.00" x2="960.00" y2="342.00" stroke="#000000" stroke-width="1"/><line x1="556.00" y1="64.00" x2="556.00" y2="342.00" stroke="#000000" stroke-width="1"/><line x1="960.00" y1="64.00" x2="960.00" y2="342.00" stroke="#000000" stroke-width="1"/><line x1="574.36" y1="342.00" x2="574.36" y2="347.00" stroke="#000000"/><text x="574.36" y="358.00" font-size="11" text-anchor="middle">0</text><line x1="727.39" y1="342.00" x2="727.39" y2="347.00" stroke="#000000"/><text x="727.39" y="358.00" font-size="11" text-anchor="middle">10</text><line x1="880.42" y1="342.00" x2="880.42" y2="347.00" stroke="#000000"/><text x="880.42" y="358.00" font-size="11" text-anchor="middle">20</text><line x1="551.00" y1="210.94" x2="556.00" y2="210.94" stroke="#000000"/><text x="548.00" y="214.94" font-size="11" text-anchor="end">0</text><line x1="551.00" y1="76.64" x2="556.00" y2="76.64" stroke="#000000"/><text x="548.00" y="80.64" font-size="11" text-anchor="end">1</text><text x="758.00" y="56.00" font-size="15" font-weight="bold" text-anchor="middle">PACF</text><text x="758.00" y="372.00" font-size="12" text-anchor="middle">lag</text><text x="506.00" y="203.00" font-size="12" text-anchor="middle" transform="rotate(-90 506.00 203.00)">pacf</text><clipPath id="clip6_392"><rect x="72.00" y="426.00" width="404.00" height="278.00"/></clipPath><line x1="87.26" y1="426.00" x2="87.26" y2="704.00" stroke="#dddddd" stroke-width="1"/><line x1="242.23" y1="426.00" x2="242.23" y2="704.00" stroke="#dddddd" stroke-width="1"/><line x1="397.20" y1="426.00" x2="397.20" y2="704.00" stroke="#dddddd" stroke-width="1"/><line x1="72.00" y1="702.03" x2="476.00" y2="702.03" stroke="#dddddd" stroke-width="1"/><line x1="72.00" y1="627.61" x2="476.00" y2="627.61" stroke="#dddddd" stroke-width="1"/><line x1="72.00" y1="553.19" x2="476.00" y2="553.19" stroke="#dddddd" stroke-width="1"/><line x1="72.00" y1="478.76" x2="476.00" y2="478.76" stroke="#dddddd" stroke-width="1"/><g clip-path="url(#clip6_392)"><polyline fill="none" stroke="#1f77b4" stroke-width="1.4" stroke-opacity="0.900" points="90.36,466.17 91.91,472.03 93.46,470.55 95.01,510.97 96.56,567.62 98.11,605.61 99.66,625.26 101.21,645.83 102.76,646.60 104.31,615.41 105.86,571.03 107.41,495.18 108.96,464.42 110.51,442.36 112.06,468.25 113.61,509.18 115.16,548.20 116.71,618.96 118.26,660.26 119.81,661.29 121.36,633.95 122.91,616.69 124.46,567.01 126.01,516.14 127.56,485.80 129.11,463.84 130.66,486.21 132.20,507.42 133.75,566.00 135.30,614.76 136.85,627.00 138.40,659.39 139.95,650.95 141.50,607.41 143.05,542.72 144.60,505.81 146.15,467.81 147.70,460.86 149.25,460.80 150.80,490.35 152.35,533.46 153.90,592.54 155.45,625.03 157.00,647.97 158.55,639.58 160.10,612.81 161.65,561.10 163.20,528.51 164.75,498.52 166.30,487.83 167.85,453.91 169.40,473.43 170.95,536.38 172.50,602.58 174.05,610.54 175.60,625.20 177.15,647.18 178.70,600.72 180.24,528.47 181.79,474.99 183.34,467.60 184.89,449.11 186.44,464.32 187.99,509.93 189.54,577.37 191.09,601.26 192.64,613.69 194.19,641.55 195.74,609.57 197.29,599.34 198.84,580.67 200.39,517.88 201.94,462.40 203.49,441.35 205.04,467.02 206.59,513.32 208.14,556.68 209.69,617.23 211.24,634.29 212.79,644.31 214.34,648.71 215.89,610.12 217.44,556.28 218.99,513.38 220.54,473.96 222.09,443.34 223.64,463.13 225.19,497.31 226.73,553.06 228.28,594.96 229.83,634.81 231.38,667.76 232.93,639.06 234.48,615.09 236.03,532.81 237.58,495.81 239.13,459.36 240.68,450.70 242.23,443.47 243.78,477.25 245.33,549.73 246.88,600.53 248.43,661.09 249.98,673.39 251.53,634.23 253.08,609.36 254.63,551.70 256.18,517.62 257.73,500.61 259.28,452.53 260.83,449.22 262.38,486.59 263.93,525.30 265.48,564.94 267.03,646.91 268.58,659.19 270.13,656.22 271.68,610.00 273.23,562.03 274.77,506.29 276.32,484.18 277.87,467.50 279.42,472.85 280.97,495.48 282.52,546.97 284.07,596.78 285.62,623.54 287.17,655.47 288.72,641.47 290.27,604.62 291.82,562.16 293.37,493.72 294.92,462.05 296.47,459.27 298.02,471.77 299.57,513.75 301.12,558.55 302.67,589.60 304.22,622.12 305.77,639.55 307.32,638.88 308.87,599.37 310.42,556.88 311.97,505.30 313.52,488.18 315.07,493.07 316.62,500.23 318.17,515.16 319.72,541.97 321.27,589.40 322.81,616.50 324.36,642.72 325.91,647.35 327.46,600.51 329.01,553.22 330.56,514.29 332.11,473.82 333.66,477.05 335.21,475.62 336.76,502.37 338.31,548.09 339.86,591.40 341.41,633.30 342.96,624.50 344.51,629.23 346.06,607.39 347.61,563.28 349.16,517.95 350.71,488.72 352.26,464.82 353.81,479.52 355.36,502.86 356.91,558.47 358.46,595.04 360.01,620.00 361.56,653.80 363.11,651.06 364.66,609.85 366.21,540.54 367.76,495.39 369.30,459.53 370.85,465.71 372.40,489.98 373.95,507.41 375.50,542.71 377.05,610.01 378.60,648.30 380.15,639.55 381.70,615.72 383.25,588.99 384.80,562.80 386.35,508.73 387.90,469.65 389.45,471.88 391.00,476.01 392.55,479.97 394.10,536.89 395.65,594.67 397.20,651.02 398.75,648.88 400.30,622.17 401.85,601.66 403.40,530.55 404.95,493.14 406.50,465.70 408.05,472.39 409.60,484.11 411.15,491.01 412.70,546.19 414.25,605.60 415.80,629.39 417.34,643.52 418.89,629.57 420.44,593.65 421.99,540.57 423.54,515.05 425.09,503.31 426.64,467.29 428.19,467.75 429.74,494.76 431.29,535.64 432.84,583.40 434.39,630.15 435.94,659.88 437.49,648.28 439.04,618.00 440.59,540.41 442.14,483.21 443.69,442.69 445.24,458.74 446.79,455.82 448.34,486.38 449.89,522.02 451.44,564.42 452.99,617.14 454.54,651.20 456.09,649.83 457.64,592.29"/><polyline fill="none" stroke="#d62728" stroke-width="1.6" stroke-opacity="0.900" points="90.36,486.05 91.91,444.28 93.46,499.88 95.01,492.46 96.56,557.79 98.11,612.52 99.66,623.60 101.21,621.80 102.76,637.37 104.31,620.77 105.86,570.67 107.41,527.38 108.96,445.67 110.51,462.69 112.06,454.39 113.61,514.54 115.16,556.95 116.71,583.30 118.26,661.58 119.81,665.70 121.36,631.53 122.91,587.32 124.46,583.67 126.01,519.90 127.56,482.37 129.11,478.39 130.66,469.90 132.20,524.38 133.75,538.59 135.30,613.03 136.85,639.50 138.40,616.63 139.95,657.35 141.50,615.89 143.05,554.22 144.60,489.47 146.15,487.06 147.70,458.84 149.25,480.77 150.80,486.71 152.35,533.56 153.90,576.26 155.45,632.50 157.00,632.78 158.55,640.96 160.10,607.78 161.65,572.64 163.20,513.90 164.75,507.09 166.30,487.82 167.85,496.89 169.40,452.40 170.95,512.73 172.50,595.55 174.05,645.88 175.60,601.11 177.15,617.44 178.70,639.56 180.24,546.90 181.79,472.68 183.34,450.58 184.89,485.22 186.44,462.34 187.99,502.46 189.54,561.54 191.09,628.87 192.64,608.26 194.19,607.25 195.74,640.61 197.29,565.80 198.84,577.30 200.39,556.60 201.94,473.28 203.49,439.82 205.04,454.55 206.59,513.46 208.14,564.58 209.69,593.14 211.24,651.50 212.79,626.04 214.34,627.13 215.89,625.42 217.44,560.46 218.99,508.60 220.54,487.30 222.09,462.02 223.64,447.68 225.19,505.58 226.73,542.59 228.28,601.29 229.83,619.35 231.38,646.17 232.93,663.83 234.48,589.81 236.03,576.70 237.58,467.11 239.13,479.80 240.68,454.12 242.23,472.00 243.78,468.05 245.33,527.83 246.88,613.39 248.43,631.06 249.98,682.98 251.53,649.97 253.08,577.28 254.63,571.81 256.18,502.00 257.73,497.98 259.28,500.59 260.83,439.14 262.38,475.57 263.93,537.64 265.48,566.60 267.03,595.84 268.58,691.36 270.13,639.76 271.68,624.43 273.23,553.76 274.77,517.81 276.32,471.09 277.87,484.37 279.42,477.10 280.97,500.04 282.52,531.25 284.07,593.22 285.62,627.51 287.17,626.73 288.72,654.14 290.27,604.27 291.82,558.02 293.37,522.69 294.92,451.05 296.47,460.20 298.02,483.24 299.57,505.46 301.12,561.14 302.67,595.73 304.22,606.10 305.77,630.71 307.32,630.13 308.87,613.98 310.42,551.94 311.97,518.88 313.52,473.97 315.07,491.57 316.62,514.15 318.17,521.24 319.72,538.71 321.27,568.24 322.81,620.15 324.36,621.98 325.91,640.04 327.46,624.64 329.01,546.41 330.56,512.09 332.11,491.38 333.66,461.01 335.21,501.22 336.76,496.14 338.31,539.76 339.86,589.03 341.41,618.02 342.96,646.86 344.51,596.61 346.06,611.72 347.61,573.02 349.16,522.06 350.71,488.48 352.26,481.45 353.81,468.92 355.36,512.92 356.91,537.17 358.46,605.05 360.01,614.79 361.56,622.63 363.11,654.55 364.66,620.92 366.21,558.00 367.76,483.90 369.30,472.44 370.85,454.75 372.40,495.63 373.95,528.73 375.50,535.32 377.05,576.13 378.60,652.17 380.15,654.51 381.70,607.44 383.25,577.28 384.80,555.57 386.35,537.25 387.90,474.29 389.45,459.23 391.00,496.62 392.55,501.25 394.10,503.94 395.65,590.70 397.20,632.90 398.75,672.11 400.30,619.87 401.85,579.41 403.40,570.06 404.95,475.17 406.50,477.54 408.05,466.47 409.60,500.87 411.15,513.63 412.70,514.42 414.25,595.86 415.80,642.16 417.34,628.37 418.89,630.13 420.44,595.78 421.99,550.95 423.54,497.99 425.09,503.55 426.64,507.08 428.19,460.18 429.74,492.14 431.29,534.53 432.84,575.90 434.39,616.12 435.94,648.81 437.49,655.40 439.04,611.24 440.59,573.31 442.14,476.62 443.69,453.26 445.24,438.64 446.79,499.18 448.34,480.65 449.89,531.59 451.44,561.59 452.99,597.85 454.54,644.66 456.09,652.92 457.64,621.22" stroke-dasharray="6 4"/></g><line x1="72.00" y1="426.00" x2="476.00" y2="426.00" stroke="#000000" stroke-width="1"/><line x1="72.00" y1="704.00" x2="476.00" y2="704.00" stroke="#000000" stroke-width="1"/><line x1="72.00" y1="426.00" x2="72.00" y2="704.00" stroke="#000000" stroke-width="1"/><line x1="476.00" y1="426.00" x2="476.00" y2="704.00" stroke="#000000" stroke-width="1"/><line x1="87.26" y1="704.00" x2="87.26" y2="709.00" stroke="#000000"/><text x="87.26" y="720.00" font-size="11" text-anchor="middle">0</text><line x1="242.23" y1="704.00" x2="242.23" y2="709.00" stroke="#000000"/><text x="242.23" y="720.00" font-size="11" text-anchor="middle">100</text><line x1="397.20" y1="704.00" x2="397.20" y2="709.00" stroke="#000000"/><text x="397.20" y="720.00" font-size="11" text-anchor="middle">200</text><line x1="67.00" y1="702.03" x2="72.00" y2="702.03" stroke="#000000"/><text x="64.00" y="706.03" font-size="11" text-anchor="end">-10</text><line x1="67.00" y1="627.61" x2="72.00" y2="627.61" stroke="#000000"/><text x="64.00" y="631.61" font-size="11" text-anchor="end">-5</text><line x1="67.00" y1="553.19" x2="72.00" y2="553.19" stroke="#000000"/><text x="64.00" y="557.19" font-size="11" text-anchor="end">0</text><line x1="67.00" y1="478.76" x2="72.00" y2="478.76" stroke="#000000"/><text x="64.00" y="482.76" font-size="11" text-anchor="end">5</text><text x="274.00" y="418.00" font-size="15" font-weight="bold" text-anchor="middle">AutoReg(2): observed vs fitted</text><text x="274.00" y="734.00" font-size="12" text-anchor="middle">t</text><text x="22.00" y="565.00" font-size="12" text-anchor="middle" transform="rotate(-90 22.00 565.00)">y</text><g class="legend"><rect x="384.00" y="434.00" width="84.00" height="44.00" fill="white" fill-opacity="0.85" stroke="#7f7f7f" stroke-width="1"/><rect class="swatch" x="390.00" y="442.00" width="14.00" height="10" fill="#1f77b4"/><text x="410.00" y="451.00" font-size="11" text-anchor="start">observed</text><rect class="swatch" x="390.00" y="458.00" width="14.00" height="10" fill="#d62728"/><text x="410.00" y="467.00" font-size="11" text-anchor="start">fitted</text></g><clipPath id="clip490_392"><rect x="556.00" y="426.00" width="404.00" height="278.00"/></clipPath><line x1="574.36" y1="426.00" x2="574.36" y2="704.00" stroke="#dddddd" stroke-width="1"/><line x1="728.03" y1="426.00" x2="728.03" y2="704.00" stroke="#dddddd" stroke-width="1"/><line x1="881.70" y1="426.00" x2="881.70" y2="704.00" stroke="#dddddd" stroke-width="1"/><line x1="556.00" y1="662.19" x2="960.00" y2="662.19" stroke="#dddddd" stroke-width="1"/><line x1="556.00" y1="561.03" x2="960.00" y2="561.03" stroke="#dddddd" stroke-width="1"/><line x1="556.00" y1="459.87" x2="960.00" y2="459.87" stroke="#dddddd" stroke-width="1"/><g clip-path="url(#clip490_392)"><polyline fill="none" stroke="#2ca02c" stroke-width="1.6" stroke-opacity="1.000" points="574.36,560.89 575.90,496.34 577.44,454.99 578.97,438.64 580.51,448.65 582.05,486.19 583.58,554.63 585.12,622.07 586.66,668.32 588.19,691.36 589.73,676.86 591.27,633.42 592.80,560.89 594.34,496.34 595.88,454.99 597.41,438.64 598.95,448.65 600.49,486.19 602.02,554.63 603.56,622.07 605.10,668.32 606.63,691.36 608.17,676.86 609.71,633.42 611.24,560.89 612.78,496.34 614.32,454.99 615.85,438.64 617.39,448.65 618.93,486.19 620.46,554.63 622.00,622.07 623.54,668.32 625.07,691.36 626.61,676.86 628.15,633.42 629.69,560.89 631.22,496.34 632.76,454.99 634.30,438.64 635.83,448.65 637.37,486.19 638.91,554.63 640.44,622.07 641.98,668.32 643.52,691.36 645.05,676.86 646.59,633.42 648.13,560.89 649.66,496.34 651.20,454.99 652.74,438.64 654.27,448.65 655.81,486.19 657.35,554.63 658.88,622.07 660.42,668.32 661.96,691.36 663.49,676.86 665.03,633.42 666.57,560.89 668.10,496.34 669.64,454.99 671.18,438.64 672.71,448.65 674.25,486.19 675.79,554.63 677.32,622.07 678.86,668.32 680.40,691.36 681.93,676.86 683.47,633.42 685.01,560.89 686.54,496.34 688.08,454.99 689.62,438.64 691.15,448.65 692.69,486.19 694.23,554.63 695.76,622.07 697.30,668.32 698.84,691.36 700.37,676.86 701.91,633.42 703.45,560.89 704.98,496.34 706.52,454.99 708.06,438.64 709.59,448.65 711.13,486.19 712.67,554.63 714.20,622.07 715.74,668.32 717.28,691.36 718.81,676.86 720.35,633.42 721.89,560.89 723.42,496.34 724.96,454.99 726.50,438.64 728.03,448.65 729.57,486.19 731.11,554.63 732.64,622.07 734.18,668.32 735.72,691.36 737.25,676.86 738.79,633.42 740.33,560.89 741.86,496.34 743.40,454.99 744.94,438.64 746.47,448.65 748.01,486.19 749.55,554.63 751.08,622.07 752.62,668.32 754.16,691.36 755.69,676.86 757.23,633.42 758.77,560.89 760.31,496.34 761.84,454.99 763.38,438.64 764.92,448.65 766.45,486.19 767.99,554.63 769.53,622.07 771.06,668.32 772.60,691.36 774.14,676.86 775.67,633.42 777.21,560.89 778.75,496.34 780.28,454.99 781.82,438.64 783.36,448.65 784.89,486.19 786.43,554.63 787.97,622.07 789.50,668.32 791.04,691.36 792.58,676.86 794.11,633.42 795.65,560.89 797.19,496.34 798.72,454.99 800.26,438.64 801.80,448.65 803.33,486.19 804.87,554.63 806.41,622.07 807.94,668.32 809.48,691.36 811.02,676.86 812.55,633.42 814.09,560.89 815.63,496.34 817.16,454.99 818.70,438.64 820.24,448.65 821.77,486.19 823.31,554.63 824.85,622.07 826.38,668.32 827.92,691.36 829.46,676.86 830.99,633.42 832.53,560.89 834.07,496.34 835.60,454.99 837.14,438.64 838.68,448.65 840.21,486.19 841.75,554.63 843.29,622.07 844.82,668.32 846.36,691.36 847.90,676.86 849.43,633.42 850.97,560.89 852.51,496.34 854.04,454.99 855.58,438.64 857.12,448.65 858.65,486.19 860.19,554.63 861.73,622.07 863.26,668.32 864.80,691.36 866.34,676.86 867.87,633.42 869.41,560.89 870.95,496.34 872.48,454.99 874.02,438.64 875.56,448.65 877.09,486.19 878.63,554.63 880.17,622.07 881.70,668.32 883.24,691.36 884.78,676.86 886.31,633.42 887.85,560.89 889.39,496.34 890.93,454.99 892.46,438.64 894.00,448.65 895.54,486.19 897.07,554.63 898.61,622.07 900.15,668.32 901.68,691.36 903.22,676.86 904.76,633.42 906.29,560.89 907.83,496.34 909.37,454.99 910.90,438.64 912.44,448.65 913.98,486.19 915.51,554.63 917.05,622.07 918.59,668.32 920.12,691.36 921.66,676.86 923.20,633.42 924.73,560.89 926.27,496.34 927.81,454.99 929.34,438.64 930.88,448.65 932.42,486.19 933.95,554.63 935.49,622.07 937.03,668.32 938.56,691.36 940.10,676.86 941.64,633.42"/></g><line x1="556.00" y1="426.00" x2="960.00" y2="426.00" stroke="#000000" stroke-width="1"/><line x1="556.00" y1="704.00" x2="960.00" y2="704.00" stroke="#000000" stroke-width="1"/><line x1="556.00" y1="426.00" x2="556.00" y2="704.00" stroke="#000000" stroke-width="1"/><line x1="960.00" y1="426.00" x2="960.00" y2="704.00" stroke="#000000" stroke-width="1"/><line x1="574.36" y1="704.00" x2="574.36" y2="709.00" stroke="#000000"/><text x="574.36" y="720.00" font-size="11" text-anchor="middle">0</text><line x1="728.03" y1="704.00" x2="728.03" y2="709.00" stroke="#000000"/><text x="728.03" y="720.00" font-size="11" text-anchor="middle">100</text><line x1="881.70" y1="704.00" x2="881.70" y2="709.00" stroke="#000000"/><text x="881.70" y="720.00" font-size="11" text-anchor="middle">200</text><line x1="551.00" y1="662.19" x2="556.00" y2="662.19" stroke="#000000"/><text x="548.00" y="666.19" font-size="11" text-anchor="end">-5</text><line x1="551.00" y1="561.03" x2="556.00" y2="561.03" stroke="#000000"/><text x="548.00" y="565.03" font-size="11" text-anchor="end">0</text><line x1="551.00" y1="459.87" x2="556.00" y2="459.87" stroke="#000000"/><text x="548.00" y="463.87" font-size="11" text-anchor="end">5</text><text x="758.00" y="418.00" font-size="15" font-weight="bold" text-anchor="middle">Seasonal component</text><text x="758.00" y="734.00" font-size="12" text-anchor="middle">t</text><text x="506.00" y="565.00" font-size="12" text-anchor="middle" transform="rotate(-90 506.00 565.00)">season</text></svg>