<svg xmlns="http://www.w3.org/2000/svg" width="820" height="540" viewBox="0 0 820 540" font-family="sans-serif"><rect x="0" y="0" width="820" height="540" fill="#ffffff"/><clipPath id="clip6_6"><rect x="72.00" y="40.00" width="728.00" height="444.00"/></clipPath><line x1="105.09" y1="40.00" x2="105.09" y2="484.00" stroke="#dddddd" stroke-width="1"/><line x1="296.92" y1="40.00" x2="296.92" y2="484.00" stroke="#dddddd" stroke-width="1"/><line x1="488.75" y1="40.00" x2="488.75" y2="484.00" stroke="#dddddd" stroke-width="1"/><line x1="680.58" y1="40.00" x2="680.58" y2="484.00" stroke="#dddddd" stroke-width="1"/><line x1="72.00" y1="452.50" x2="800.00" y2="452.50" stroke="#dddddd" stroke-width="1"/><line x1="72.00" y1="292.98" x2="800.00" y2="292.98" stroke="#dddddd" stroke-width="1"/><line x1="72.00" y1="133.45" x2="800.00" y2="133.45" stroke="#dddddd" stroke-width="1"/><g clip-path="url(#clip6_6)"><circle cx="105.09" cy="133.45" r="3.00" fill="#1f77b4" fill-opacity="0.600"/><circle cx="114.68" cy="129.42" r="3.00" fill="#1f77b4" fill-opacity="0.600"/><circle cx="124.27" cy="99.24" r="3.00" fill="#1f77b4" fill-opacity="0.600"/><circle cx="133.87" cy="154.23" r="3.00" fill="#1f77b4" fill-opacity="0.600"/><circle cx="143.46" cy="92.23" r="3.00" fill="#1f77b4" fill-opacity="0.600"/><circle cx="153.05" cy="123.63" r="3.00" fill="#1f77b4" fill-opacity="0.600"/><circle cx="162.64" cy="78.97" r="3.00" fill="#1f77b4" fill-opacity="0.600"/><circle cx="172.23" cy="92.32" r="3.00" fill="#1f77b4" fill-opacity="0.600"/><circle cx="181.82" cy="123.33" r="3.00" fill="#1f77b4" fill-opacity="0.600"/><circle cx="191.42" cy="126.01" r="3.00" fill="#1f77b4" fill-opacity="0.600"/><circle cx="201.01" cy="173.83" r="3.00" fill="#1f77b4" fill-opacity="0.600"/><circle cx="210.60" cy="200.72" r="3.00" fill="#1f77b4" fill-opacity="0.600"/><circle cx="220.19" cy="202.54" r="3.00" fill="#1f77b4" fill-opacity="0.600"/><circle cx="229.78" cy="144.05" r="3.00" fill="#1f77b4" fill-opacity="0.600"/><circle cx="239.37" cy="89.24" r="3.00" fill="#1f77b4" fill-opacity="0.600"/><circle cx="248.96" cy="134.06" r="3.00" fill="#1f77b4" fill-opacity="0.600"/><circle cx="258.56" cy="143.04" r="3.00" fill="#1f77b4" fill-opacity="0.600"/><circle cx="268.15" cy="173.53" r="3.00" fill="#1f77b4" fill-opacity="0.600"/><circle cx="277.74" cy="169.77" r="3.00" fill="#1f77b4" fill-opacity="0.600"/><circle cx="287.33" cy="175.89" r="3.00" fill="#1f77b4" fill-opacity="0.600"/><circle cx="296.92" cy="153.39" r="3.00" fill="#1f77b4" fill-opacity="0.600"/><circle cx="306.51" cy="114.92" r="3.00" fill="#1f77b4" fill-opacity="0.600"/><circle cx="316.11" cy="111.19" r="3.00" fill="#1f77b4" fill-opacity="0.600"/><circle cx="325.70" cy="92.27" r="3.00" fill="#1f77b4" fill-opacity="0.600"/><circle cx="335.29" cy="167.04" r="3.00" fill="#1f77b4" fill-opacity="0.600"/><circle cx="344.88" cy="131.14" r="3.00" fill="#1f77b4" fill-opacity="0.600"/><circle cx="354.47" cy="228.63" r="3.00" fill="#1f77b4" fill-opacity="0.600"/><circle cx="364.06" cy="131.00" r="3.00" fill="#1f77b4" fill-opacity="0.600"/><circle cx="373.65" cy="93.19" r="3.00" fill="#1f77b4" fill-opacity="0.600"/><circle cx="383.25" cy="93.72" r="3.00" fill="#1f77b4" fill-opacity="0.600"/><circle cx="392.84" cy="90.90" r="3.00" fill="#1f77b4" fill-opacity="0.600"/><circle cx="402.43" cy="95.79" r="3.00" fill="#1f77b4" fill-opacity="0.600"/><circle cx="412.02" cy="171.48" r="3.00" fill="#1f77b4" fill-opacity="0.600"/><circle cx="421.61" cy="142.73" r="3.00" fill="#1f77b4" fill-opacity="0.600"/><circle cx="431.20" cy="84.09" r="3.00" fill="#1f77b4" fill-opacity="0.600"/><circle cx="440.80" cy="102.48" r="3.00" fill="#1f77b4" fill-opacity="0.600"/><circle cx="450.39" cy="188.27" r="3.00" fill="#1f77b4" fill-opacity="0.600"/><circle cx="459.98" cy="169.11" r="3.00" fill="#1f77b4" fill-opacity="0.600"/><circle cx="469.57" cy="145.49" r="3.00" fill="#1f77b4" fill-opacity="0.600"/><circle cx="479.16" cy="161.77" r="3.00" fill="#1f77b4" fill-opacity="0.600"/><circle cx="488.75" cy="199.53" r="3.00" fill="#1f77b4" fill-opacity="0.600"/><circle cx="498.35" cy="167.29" r="3.00" fill="#1f77b4" fill-opacity="0.600"/><circle cx="507.94" cy="108.36" r="3.00" fill="#1f77b4" fill-opacity="0.600"/><circle cx="517.53" cy="140.04" r="3.00" fill="#1f77b4" fill-opacity="0.600"/><circle cx="527.12" cy="60.18" r="3.00" fill="#1f77b4" fill-opacity="0.600"/><circle cx="536.71" cy="94.91" r="3.00" fill="#1f77b4" fill-opacity="0.600"/><circle cx="546.30" cy="93.85" r="3.00" fill="#1f77b4" fill-opacity="0.600"/><circle cx="555.89" cy="135.85" r="3.00" fill="#1f77b4" fill-opacity="0.600"/><circle cx="565.49" cy="191.32" r="3.00" fill="#1f77b4" fill-opacity="0.600"/><circle cx="575.08" cy="177.99" r="3.00" fill="#1f77b4" fill-opacity="0.600"/><circle cx="584.67" cy="144.41" r="3.00" fill="#1f77b4" fill-opacity="0.600"/><circle cx="594.26" cy="173.53" r="3.00" fill="#1f77b4" fill-opacity="0.600"/><circle cx="603.85" cy="189.34" r="3.00" fill="#1f77b4" fill-opacity="0.600"/><circle cx="613.44" cy="144.36" r="3.00" fill="#1f77b4" fill-opacity="0.600"/><circle cx="623.04" cy="109.56" r="3.00" fill="#1f77b4" fill-opacity="0.600"/><circle cx="632.63" cy="138.98" r="3.00" fill="#1f77b4" fill-opacity="0.600"/><circle cx="642.22" cy="154.28" r="3.00" fill="#1f77b4" fill-opacity="0.600"/><circle cx="651.81" cy="176.73" r="3.00" fill="#1f77b4" fill-opacity="0.600"/><circle cx="661.40" cy="195.66" r="3.00" fill="#1f77b4" fill-opacity="0.600"/><circle cx="670.99" cy="163.68" r="3.00" fill="#1f77b4" fill-opacity="0.600"/><polyline fill="none" stroke="#1f77b4" stroke-width="2" stroke-opacity="1.000" points="114.68,127.11 124.27,152.54 133.87,146.90 143.46,145.48 153.05,131.67 162.64,110.54 172.23,99.61 181.82,122.71 191.42,124.54 201.01,141.98 210.60,173.05 220.19,166.22 229.78,149.20 239.37,110.19 248.96,117.88 258.56,148.78 268.15,154.26 277.74,150.67 287.33,178.60 296.92,145.36 306.51,125.60 316.11,118.65 325.70,121.14 335.29,122.74 344.88,157.49 354.47,139.08 364.06,186.70 373.65,128.41 383.25,101.19 392.84,135.97 402.43,97.60 412.02,118.27 421.61,125.80 431.20,136.45 440.80,137.71 450.39,135.62 459.98,177.00 469.57,149.18 479.16,149.94 488.75,123.17 498.35,168.81 507.94,148.51 517.53,113.41 527.12,124.73 536.71,92.31 546.30,131.93 555.89,144.01 565.49,167.61 575.08,172.12 584.67,161.15 594.26,150.28 603.85,160.51 613.44,160.60 623.04,118.36 632.63,147.82 642.22,141.30 651.81,162.66 661.40,150.98 670.99,152.43"/><polyline fill="none" stroke="#1f77b4" stroke-width="2" stroke-opacity="1.000" points="670.99,163.68 680.58,139.78 690.18,136.02 699.77,137.77 709.36,139.43 718.95,140.11 728.54,140.24 738.13,140.20 747.73,140.15 757.32,140.13 766.91,140.13" stroke-dasharray="6 4"/><rect x="102.09" y="369.74" width="6.00" height="6.00" fill="#ff7f0e" fill-opacity="0.600"/><rect x="111.68" y="432.41" width="6.00" height="6.00" fill="#ff7f0e" fill-opacity="0.600"/><rect x="121.27" y="449.37" width="6.00" height="6.00" fill="#ff7f0e" fill-opacity="0.600"/><rect x="130.87" y="391.50" width="6.00" height="6.00" fill="#ff7f0e" fill-opacity="0.600"/><rect x="140.46" y="421.22" width="6.00" height="6.00" fill="#ff7f0e" fill-opacity="0.600"/><rect x="150.05" y="341.26" width="6.00" height="6.00" fill="#ff7f0e" fill-opacity="0.600"/><rect x="159.64" y="360.39" width="6.00" height="6.00" fill="#ff7f0e" fill-opacity="0.600"/><rect x="169.23" y="400.45" width="6.00" height="6.00" fill="#ff7f0e" fill-opacity="0.600"/><rect x="178.82" y="373.85" width="6.00" height="6.00" fill="#ff7f0e" fill-opacity="0.600"/><rect x="188.42" y="411.43" width="6.00" height="6.00" fill="#ff7f0e" fill-opacity="0.600"/><rect x="198.01" y="435.65" width="6.00" height="6.00" fill="#ff7f0e" fill-opacity="0.600"/><rect x="207.60" y="393.17" width="6.00" height="6.00" fill="#ff7f0e" fill-opacity="0.600"/><rect x="217.19" y="352.08" width="6.00" height="6.00" fill="#ff7f0e" fill-opacity="0.600"/><rect x="226.78" y="320.17" width="6.00" height="6.00" fill="#ff7f0e" fill-opacity="0.600"/><rect x="236.37" y="392.35" width="6.00" height="6.00" fill="#ff7f0e" fill-opacity="0.600"/><rect x="245.96" y="419.13" width="6.00" height="6.00" fill="#ff7f0e" fill-opacity="0.600"/><rect x="255.56" y="422.86" width="6.00" height="6.00" fill="#ff7f0e" fill-opacity="0.600"/><rect x="265.15" y="384.29" width="6.00" height="6.00" fill="#ff7f0e" fill-opacity="0.600"/><rect x="274.74" y="452.47" width="6.00" height="6.00" fill="#ff7f0e" fill-opacity="0.600"/><rect x="284.33" y="369.70" width="6.00" height="6.00" fill="#ff7f0e" fill-opacity="0.600"/><rect x="293.92" y="346.46" width="6.00" height="6.00" fill="#ff7f0e" fill-opacity="0.600"/><rect x="303.51" y="368.62" width="6.00" height="6.00" fill="#ff7f0e" fill-opacity="0.600"/><rect x="313.11" y="378.06" width="6.00" height="6.00" fill="#ff7f0e" fill-opacity="0.600"/><rect x="322.70" y="400.56" width="6.00" height="6.00" fill="#ff7f0e" fill-opacity="0.600"/><rect x="332.29" y="406.48" width="6.00" height="6.00" fill="#ff7f0e" fill-opacity="0.600"/><rect x="341.88" y="399.65" width="6.00" height="6.00" fill="#ff7f0e" fill-opacity="0.600"/><rect x="351.47" y="412.70" width="6.00" height="6.00" fill="#ff7f0e" fill-opacity="0.600"/><rect x="361.06" y="375.18" width="6.00" height="6.00" fill="#ff7f0e" fill-opacity="0.600"/><rect x="370.65" y="349.91" width="6.00" height="6.00" fill="#ff7f0e" fill-opacity="0.600"/><rect x="380.25" y="429.64" width="6.00" height="6.00" fill="#ff7f0e" fill-opacity="0.600"/><rect x="389.84" y="343.91" width="6.00" height="6.00" fill="#ff7f0e" fill-opacity="0.600"/><rect x="399.43" y="386.74" width="6.00" height="6.00" fill="#ff7f0e" fill-opacity="0.600"/><rect x="409.02" y="328.93" width="6.00" height="6.00" fill="#ff7f0e" fill-opacity="0.600"/><rect x="418.61" y="382.07" width="6.00" height="6.00" fill="#ff7f0e" fill-opacity="0.600"/><rect x="428.20" y="443.24" width="6.00" height="6.00" fill="#ff7f0e" fill-opacity="0.600"/><rect x="437.80" y="420.13" width="6.00" height="6.00" fill="#ff7f0e" fill-opacity="0.600"/><rect x="447.39" y="430.40" width="6.00" height="6.00" fill="#ff7f0e" fill-opacity="0.600"/><rect x="456.98" y="385.23" width="6.00" height="6.00" fill="#ff7f0e" fill-opacity="0.600"/><rect x="466.57" y="410.46" width="6.00" height="6.00" fill="#ff7f0e" fill-opacity="0.600"/><rect x="476.16" y="332.52" width="6.00" height="6.00" fill="#ff7f0e" fill-opacity="0.600"/><rect x="485.75" y="400.33" width="6.00" height="6.00" fill="#ff7f0e" fill-opacity="0.600"/><rect x="495.35" y="385.52" width="6.00" height="6.00" fill="#ff7f0e" fill-opacity="0.600"/><rect x="504.94" y="363.04" width="6.00" height="6.00" fill="#ff7f0e" fill-opacity="0.600"/><rect x="514.53" y="357.71" width="6.00" height="6.00" fill="#ff7f0e" fill-opacity="0.600"/><rect x="524.12" y="362.22" width="6.00" height="6.00" fill="#ff7f0e" fill-opacity="0.600"/><rect x="533.71" y="419.15" width="6.00" height="6.00" fill="#ff7f0e" fill-opacity="0.600"/><rect x="543.30" y="448.08" width="6.00" height="6.00" fill="#ff7f0e" fill-opacity="0.600"/><rect x="552.89" y="460.82" width="6.00" height="6.00" fill="#ff7f0e" fill-opacity="0.600"/><rect x="562.49" y="416.12" width="6.00" height="6.00" fill="#ff7f0e" fill-opacity="0.600"/><rect x="572.08" y="404.06" width="6.00" height="6.00" fill="#ff7f0e" fill-opacity="0.600"/><rect x="581.67" y="412.32" width="6.00" height="6.00" fill="#ff7f0e" fill-opacity="0.600"/><rect x="591.26" y="407.00" width="6.00" height="6.00" fill="#ff7f0e" fill-opacity="0.600"/><rect x="600.85" y="391.49" width="6.00" height="6.00" fill="#ff7f0e" fill-opacity="0.600"/><rect x="610.44" y="338.71" width="6.00" height="6.00" fill="#ff7f0e" fill-opacity="0.600"/><rect x="620.04" y="441.26" width="6.00" height="6.00" fill="#ff7f0e" fill-opacity="0.600"/><rect x="629.63" y="396.98" width="6.00" height="6.00" fill="#ff7f0e" fill-opacity="0.600"/><rect x="639.22" y="431.09" width="6.00" height="6.00" fill="#ff7f0e" fill-opacity="0.600"/><rect x="648.81" y="381.82" width="6.00" height="6.00" fill="#ff7f0e" fill-opacity="0.600"/><rect x="658.40" y="366.37" width="6.00" height="6.00" fill="#ff7f0e" fill-opacity="0.600"/><rect x="667.99" y="368.95" width="6.00" height="6.00" fill="#ff7f0e" fill-opacity="0.600"/><polyline fill="none" stroke="#ff7f0e" stroke-width="2" stroke-opacity="1.000" points="114.68,393.99 124.27,404.74 133.87,414.25 143.46,392.69 153.05,411.42 162.64,391.76 172.23,404.89 181.82,408.15 191.42,396.94 201.01,402.22 210.60,395.17 220.19,382.40 229.78,375.54 239.37,383.81 248.96,407.58 258.56,401.60 268.15,400.15 277.74,387.18 287.33,398.73 296.92,384.35 306.51,385.82 316.11,398.02 325.70,400.35 335.29,408.17 344.88,392.13 354.47,399.21 364.06,379.13 373.65,395.40 383.25,400.02 392.84,412.41 402.43,399.60 412.02,405.21 421.61,378.96 431.20,393.82 440.80,416.72 450.39,408.93 459.98,391.07 469.57,388.33 479.16,397.65 488.75,381.73 498.35,383.79 507.94,388.79 517.53,398.64 527.12,390.61 536.71,409.44 546.30,410.49 555.89,415.27 565.49,407.73 575.08,388.13 584.67,389.27 594.26,398.19 603.85,390.74 613.44,384.72 623.04,386.65 632.63,410.63 642.22,397.01 651.81,398.89 661.40,386.07 670.99,379.35"/><polyline fill="none" stroke="#ff7f0e" stroke-width="2" stroke-opacity="1.000" points="670.99,371.95 680.58,387.01 690.18,394.80 699.77,396.87 709.36,396.80 718.95,396.41 728.54,396.20 738.13,396.13 747.73,396.13 757.32,396.14 766.91,396.15" stroke-dasharray="6 4"/><line x1="670.99" y1="40.00" x2="670.99" y2="484.00" stroke="#7f7f7f" stroke-width="1.2" stroke-dasharray="1.5 3"/></g><line x1="72.00" y1="40.00" x2="800.00" y2="40.00" stroke="#000000" stroke-width="1"/><line x1="72.00" y1="484.00" x2="800.00" y2="484.00" stroke="#000000" stroke-width="1"/><line x1="72.00" y1="40.00" x2="72.00" y2="484.00" stroke="#000000" stroke-width="1"/><line x1="800.00" y1="40.00" x2="800.00" y2="484.00" stroke="#000000" stroke-width="1"/><line x1="105.09" y1="484.00" x2="105.09" y2="489.00" stroke="#000000"/><text x="105.09" y="500.00" font-size="11" text-anchor="middle">0</text><line x1="296.92" y1="484.00" x2="296.92" y2="489.00" stroke="#000000"/><text x="296.92" y="500.00" font-size="11" text-anchor="middle">20</text><line x1="488.75" y1="484.00" x2="488.75" y2="489.00" stroke="#000000"/><text x="488.75" y="500.00" font-size="11" text-anchor="middle">40</text><line x1="680.58" y1="484.00" x2="680.58" y2="489.00" stroke="#000000"/><text x="680.58" y="500.00" font-size="11" text-anchor="middle">60</text><line x1="67.00" y1="452.50" x2="72.00" y2="452.50" stroke="#000000"/><text x="64.00" y="456.50" font-size="11" text-anchor="end">-1</text><line x1="67.00" y1="292.98" x2="72.00" y2="292.98" stroke="#000000"/><text x="64.00" y="296.98" font-size="11" text-anchor="end">0</text><line x1="67.00" y1="133.45" x2="72.00" y2="133.45" stroke="#000000"/><text x="64.00" y="137.45" font-size="11" text-anchor="end">1</text><text x="436.00" y="32.00" font-size="15" font-weight="bold" text-anchor="middle">VAR(1): observed series, in-sample fit, and forecast</text><text x="436.00" y="514.00" font-size="12" text-anchor="middle">t</text><text x="22.00" y="262.00" font-size="12" text-anchor="middle" transform="rotate(-90 22.00 262.00)">y</text><g class="legend"><rect x="80.00" y="48.00" width="103.50" height="108.00" fill="white" fill-opacity="0.85" stroke="#7f7f7f" stroke-width="1"/><rect class="swatch" x="86.00" y="56.00" width="14.00" height="10" fill="#1f77b4"/><text x="106.00" y="65.00" font-size="11" text-anchor="start">y1 observed</text><rect class="swatch" x="86.00" y="72.00" width="14.00" height="10" fill="#1f77b4"/><text x="106.00" y="81.00" font-size="11" text-anchor="start">y1 fitted</text><rect class="swatch" x="86.00" y="88.00" width="14.00" height="10" fill="#1f77b4"/><text x="106.00" y="97.00" font-size="11" text-anchor="start">y1 forecast</text><rect class="swatch" x="86.00" y="104.00" width="14.00" height="10" fill="#ff7f0e"/><text x="106.00" y="113.00" font-size="11" text-anchor="start">y2 observed</text><rect class="swatch" x="86.00" y="120.00" width="14.00" height="10" fill="#ff7f0e"/><text x="106.00" y="129.00" font-size="11" text-anchor="start">y2 fitted</text><rect class="swatch" x="86.00" y="136.00" width="14.00" height="10" fill="#ff7f0e"/><text x="106.00" y="145.00" font-size="11" text-anchor="start">y2 forecast</text></g></svg>