<svg xmlns="http://www.w3.org/2000/svg" width="760" height="520" viewBox="0 0 760 520" font-family="sans-serif"><rect x="0" y="0" width="760" height="520" fill="#ffffff"/><clipPath id="clip6_6"><rect x="72.00" y="40.00" width="668.00" height="424.00"/></clipPath><line x1="81.78" y1="40.00" x2="81.78" y2="464.00" stroke="#dddddd" stroke-width="1"/><line x1="287.63" y1="40.00" x2="287.63" y2="464.00" stroke="#dddddd" stroke-width="1"/><line x1="493.49" y1="40.00" x2="493.49" y2="464.00" stroke="#dddddd" stroke-width="1"/><line x1="699.34" y1="40.00" x2="699.34" y2="464.00" stroke="#dddddd" stroke-width="1"/><line x1="72.00" y1="439.87" x2="740.00" y2="439.87" stroke="#dddddd" stroke-width="1"/><line x1="72.00" y1="348.90" x2="740.00" y2="348.90" stroke="#dddddd" stroke-width="1"/><line x1="72.00" y1="257.92" x2="740.00" y2="257.92" stroke="#dddddd" stroke-width="1"/><line x1="72.00" y1="166.94" x2="740.00" y2="166.94" stroke="#dddddd" stroke-width="1"/><line x1="72.00" y1="75.97" x2="740.00" y2="75.97" stroke="#dddddd" stroke-width="1"/><g clip-path="url(#clip6_6)"><circle cx="102.36" cy="422.23" r="4.00" fill="#1f77b4" fill-opacity="0.750"/><circle cx="112.66" cy="416.20" r="4.00" fill="#1f77b4" fill-opacity="0.750"/><circle cx="122.95" cy="432.77" r="4.00" fill="#1f77b4" fill-opacity="0.750"/><circle cx="133.24" cy="414.30" r="4.00" fill="#1f77b4" fill-opacity="0.750"/><circle cx="143.53" cy="422.16" r="4.00" fill="#1f77b4" fill-opacity="0.750"/><circle cx="153.83" cy="394.34" r="4.00" fill="#1f77b4" fill-opacity="0.750"/><circle cx="164.12" cy="389.26" r="4.00" fill="#1f77b4" fill-opacity="0.750"/><circle cx="174.41" cy="416.43" r="4.00" fill="#1f77b4" fill-opacity="0.750"/><circle cx="184.71" cy="407.56" r="4.00" fill="#1f77b4" fill-opacity="0.750"/><circle cx="195.00" cy="379.78" r="4.00" fill="#1f77b4" fill-opacity="0.750"/><circle cx="205.29" cy="405.73" r="4.00" fill="#1f77b4" fill-opacity="0.750"/><circle cx="215.58" cy="387.11" r="4.00" fill="#1f77b4" fill-opacity="0.750"/><circle cx="225.88" cy="333.03" r="4.00" fill="#1f77b4" fill-opacity="0.750"/><circle cx="236.17" cy="399.15" r="4.00" fill="#1f77b4" fill-opacity="0.750"/><circle cx="246.46" cy="363.70" r="4.00" fill="#1f77b4" fill-opacity="0.750"/><circle cx="256.76" cy="373.00" r="4.00" fill="#1f77b4" fill-opacity="0.750"/><circle cx="267.05" cy="369.96" r="4.00" fill="#1f77b4" fill-opacity="0.750"/><circle cx="277.34" cy="350.06" r="4.00" fill="#1f77b4" fill-opacity="0.750"/><circle cx="287.63" cy="385.28" r="4.00" fill="#1f77b4" fill-opacity="0.750"/><circle cx="297.93" cy="370.68" r="4.00" fill="#1f77b4" fill-opacity="0.750"/><circle cx="308.22" cy="356.82" r="4.00" fill="#1f77b4" fill-opacity="0.750"/><circle cx="318.51" cy="357.12" r="4.00" fill="#1f77b4" fill-opacity="0.750"/><circle cx="328.80" cy="306.34" r="4.00" fill="#1f77b4" fill-opacity="0.750"/><circle cx="339.10" cy="338.39" r="4.00" fill="#1f77b4" fill-opacity="0.750"/><circle cx="349.39" cy="349.51" r="4.00" fill="#1f77b4" fill-opacity="0.750"/><circle cx="359.68" cy="281.00" r="4.00" fill="#1f77b4" fill-opacity="0.750"/><circle cx="369.98" cy="358.32" r="4.00" fill="#1f77b4" fill-opacity="0.750"/><circle cx="380.27" cy="444.73" r="4.00" fill="#1f77b4" fill-opacity="0.750"/><circle cx="390.56" cy="213.01" r="4.00" fill="#1f77b4" fill-opacity="0.750"/><circle cx="400.85" cy="344.88" r="4.00" fill="#1f77b4" fill-opacity="0.750"/><circle cx="411.15" cy="312.71" r="4.00" fill="#1f77b4" fill-opacity="0.750"/><circle cx="421.44" cy="321.52" r="4.00" fill="#1f77b4" fill-opacity="0.750"/><circle cx="431.73" cy="350.93" r="4.00" fill="#1f77b4" fill-opacity="0.750"/><circle cx="442.02" cy="293.19" r="4.00" fill="#1f77b4" fill-opacity="0.750"/><circle cx="452.32" cy="255.06" r="4.00" fill="#1f77b4" fill-opacity="0.750"/><circle cx="462.61" cy="377.77" r="4.00" fill="#1f77b4" fill-opacity="0.750"/><circle cx="472.90" cy="391.70" r="4.00" fill="#1f77b4" fill-opacity="0.750"/><circle cx="483.20" cy="282.83" r="4.00" fill="#1f77b4" fill-opacity="0.750"/><circle cx="493.49" cy="270.17" r="4.00" fill="#1f77b4" fill-opacity="0.750"/><circle cx="503.78" cy="428.02" r="4.00" fill="#1f77b4" fill-opacity="0.750"/><circle cx="514.07" cy="284.80" r="4.00" fill="#1f77b4" fill-opacity="0.750"/><circle cx="524.37" cy="265.86" r="4.00" fill="#1f77b4" fill-opacity="0.750"/><circle cx="534.66" cy="243.85" r="4.00" fill="#1f77b4" fill-opacity="0.750"/><circle cx="544.95" cy="367.46" r="4.00" fill="#1f77b4" fill-opacity="0.750"/><circle cx="555.24" cy="227.12" r="4.00" fill="#1f77b4" fill-opacity="0.750"/><circle cx="565.54" cy="228.97" r="4.00" fill="#1f77b4" fill-opacity="0.750"/><circle cx="575.83" cy="224.32" r="4.00" fill="#1f77b4" fill-opacity="0.750"/><circle cx="586.12" cy="284.83" r="4.00" fill="#1f77b4" fill-opacity="0.750"/><circle cx="596.42" cy="348.64" r="4.00" fill="#1f77b4" fill-opacity="0.750"/><circle cx="606.71" cy="305.26" r="4.00" fill="#1f77b4" fill-opacity="0.750"/><circle cx="617.00" cy="217.84" r="4.00" fill="#1f77b4" fill-opacity="0.750"/><circle cx="627.29" cy="284.62" r="4.00" fill="#1f77b4" fill-opacity="0.750"/><circle cx="637.59" cy="370.53" r="4.00" fill="#1f77b4" fill-opacity="0.750"/><circle cx="647.88" cy="160.29" r="4.00" fill="#1f77b4" fill-opacity="0.750"/><circle cx="658.17" cy="227.17" r="4.00" fill="#1f77b4" fill-opacity="0.750"/><circle cx="668.47" cy="172.63" r="4.00" fill="#1f77b4" fill-opacity="0.750"/><circle cx="678.76" cy="270.29" r="4.00" fill="#1f77b4" fill-opacity="0.750"/><circle cx="689.05" cy="59.27" r="4.00" fill="#1f77b4" fill-opacity="0.750"/><circle cx="699.34" cy="249.87" r="4.00" fill="#1f77b4" fill-opacity="0.750"/><circle cx="709.64" cy="237.97" r="4.00" fill="#1f77b4" fill-opacity="0.750"/><polyline fill="none" stroke="#ff7f0e" stroke-width="2.5" stroke-opacity="1.000" points="102.36,425.81 709.64,224.14" stroke-dasharray="6 4"/><polyline fill="none" stroke="#d62728" stroke-width="2.5" stroke-opacity="1.000" points="102.36,423.86 709.64,226.75"/></g><line x1="72.00" y1="40.00" x2="740.00" y2="40.00" stroke="#000000" stroke-width="1"/><line x1="72.00" y1="464.00" x2="740.00" y2="464.00" stroke="#000000" stroke-width="1"/><line x1="72.00" y1="40.00" x2="72.00" y2="464.00" stroke="#000000" stroke-width="1"/><line x1="740.00" y1="40.00" x2="740.00" y2="464.00" stroke="#000000" stroke-width="1"/><line x1="81.78" y1="464.00" x2="81.78" y2="469.00" stroke="#000000"/><text x="81.78" y="480.00" font-size="11" text-anchor="middle">0</text><line x1="287.63" y1="464.00" x2="287.63" y2="469.00" stroke="#000000"/><text x="287.63" y="480.00" font-size="11" text-anchor="middle">10</text><line x1="493.49" y1="464.00" x2="493.49" y2="469.00" stroke="#000000"/><text x="493.49" y="480.00" font-size="11" text-anchor="middle">20</text><line x1="699.34" y1="464.00" x2="699.34" y2="469.00" stroke="#000000"/><text x="699.34" y="480.00" font-size="11" text-anchor="middle">30</text><line x1="67.00" y1="439.87" x2="72.00" y2="439.87" stroke="#000000"/><text x="64.00" y="443.87" font-size="11" text-anchor="end">0</text><line x1="67.00" y1="348.90" x2="72.00" y2="348.90" stroke="#000000"/><text x="64.00" y="352.90" font-size="11" text-anchor="end">10</text><line x1="67.00" y1="257.92" x2="72.00" y2="257.92" stroke="#000000"/><text x="64.00" y="261.92" font-size="11" text-anchor="end">20</text><line x1="67.00" y1="166.94" x2="72.00" y2="166.94" stroke="#000000"/><text x="64.00" y="170.94" font-size="11" text-anchor="end">30</text><line x1="67.00" y1="75.97" x2="72.00" y2="75.97" stroke="#000000"/><text x="64.00" y="79.97" font-size="11" text-anchor="end">40</text><text x="406.00" y="32.00" font-size="15" font-weight="bold" text-anchor="middle">WLS vs OLS under heteroskedasticity</text><text x="406.00" y="494.00" font-size="12" text-anchor="middle">x</text><text x="22.00" y="252.00" font-size="12" text-anchor="middle" transform="rotate(-90 22.00 252.00)">y</text><g class="legend"><rect x="80.00" y="48.00" width="84.00" height="60.00" fill="white" fill-opacity="0.85" stroke="#7f7f7f" stroke-width="1"/><rect class="swatch" x="86.00" y="56.00" width="14.00" height="10" fill="#1f77b4"/><text x="106.00" y="65.00" font-size="11" text-anchor="start">observed</text><rect class="swatch" x="86.00" y="72.00" width="14.00" height="10" fill="#ff7f0e"/><text x="106.00" y="81.00" font-size="11" text-anchor="start">OLS fit</text><rect class="swatch" x="86.00" y="88.00" width="14.00" height="10" fill="#d62728"/><text x="106.00" y="97.00" font-size="11" text-anchor="start">WLS fit</text></g></svg>